<svg width="25" height="25" viewBox="0 0 25 25" fill="none" xmlns="http://www.w3.org/2000/svg">
<g clip-path="url(#clip0_448_3632)">
<path d="M12.5 25C19.4036 25 25 19.4036 25 12.5C25 5.59644 19.4036 0 12.5 0C5.59644 0 0 5.59644 0 12.5C0 19.4036 5.59644 25 12.5 25Z" fill="#124BFF"/>
<path d="M12.5 21.25C17.3325 21.25 21.25 17.3325 21.25 12.5C21.25 7.66751 17.3325 3.75 12.5 3.75C7.66751 3.75 3.75 7.66751 3.75 12.5C3.75 17.3325 7.66751 21.25 12.5 21.25Z" fill="white"/>
<path d="M12.5 21.25C17.3325 21.25 21.25 17.3325 21.25 12.5C21.25 7.66751 17.3325 3.75 12.5 3.75C7.66751 3.75 3.75 7.66751 3.75 12.5C3.75 17.3325 7.66751 21.25 12.5 21.25Z" fill="white"/>
<path d="M12.5 17.5C15.2614 17.5 17.5 15.2614 17.5 12.5C17.5 9.73858 15.2614 7.5 12.5 7.5C9.73858 7.5 7.5 9.73858 7.5 12.5C7.5 15.2614 9.73858 17.5 12.5 17.5Z" fill="#124BFF"/>
<path d="M22.25 10.75H16.25V14.5H22.25V10.75Z" fill="#124BFF"/>
</g>
<defs>
<clipPath id="clip0_448_3632">
<rect width="25" height="25" fill="white"/>
</clipPath>
</defs>
</svg>
