<svg width="25" height="25" viewBox="0 0 25 25" fill="none" xmlns="http://www.w3.org/2000/svg">
<g clip-path="url(#clip0_448_3476)">
<mask id="mask0_448_3476" style="mask-type:luminance" maskUnits="userSpaceOnUse" x="0" y="0" width="25" height="25">
<path d="M25 0H0V25H25V0Z" fill="white"/>
</mask>
<g mask="url(#mask0_448_3476)">
<path d="M24.528 15.9517L15.5761 24.8972H12.9667L0 11.9225V9.71573L9.15317 0.569056C9.78217 -0.0599852 10.8018 -0.0592224 11.4309 0.569818L24.528 13.6742C25.1578 14.3032 25.1568 15.3236 24.528 15.9517Z" fill="#C9EF3F"/>
<path d="M4.02344 5.69727L7.44025 2.28027L22.8164 17.6565L19.3994 21.0735L4.02344 5.69727Z" fill="#3C3C47"/>
<path d="M23.3562 12.5007L18.0366 7.17871H2.53848L0 9.71564V11.9225L12.9667 24.8971H15.5761L23.3562 17.1228V12.5007Z" fill="#BADB31"/>
<path d="M5.50781 7.17871L19.4032 21.0731L22.8196 17.6567L12.3416 7.17871H5.50781Z" fill="#202026"/>
<path d="M20.1347 24.8972H1.61075C0.720784 24.8972 0 24.1765 0 23.2865V10.4003C0 9.5103 0.720784 8.78955 1.61075 8.78955H20.1347C21.0246 8.78955 21.7454 9.5103 21.7454 10.4003V23.2865C21.7454 24.1756 21.0246 24.8972 20.1347 24.8972Z" fill="#48C8EF"/>
<path d="M0 12.8164H21.7454V17.6487H0V12.8164Z" fill="#3C3C47"/>
<path d="M3.21875 20.0649H5.63498V21.6757H3.21875V20.0649Z" fill="white"/>
<path d="M7.25 20.0649H10.4715V21.6757H7.25V20.0649Z" fill="white"/>
<path d="M12.0781 20.0649H14.4944V21.6757H12.0781V20.0649Z" fill="white"/>
<path d="M16.1094 20.0649H18.5256V21.6757H16.1094V20.0649Z" fill="white"/>
<path d="M9.66406 2.34668H11.2748V3.95744H9.66406V2.34668Z" fill="white"/>
<path d="M12.0781 4.7627H13.6889V6.37345H12.0781V4.7627Z" fill="white"/>
</g>
</g>
<defs>
<clipPath id="clip0_448_3476">
<rect width="25" height="25" fill="white"/>
</clipPath>
</defs>
</svg>
