<svg width="25" height="25" viewBox="0 0 25 25" fill="none" xmlns="http://www.w3.org/2000/svg">
<g clip-path="url(#clip0_448_3622)">
<path fill-rule="evenodd" clip-rule="evenodd" d="M0 11.4268C0 17.6872 5.06721 22.7929 11.3409 22.7929C12.1109 22.7929 12.881 22.7249 13.7657 22.6469C14.7524 22.5598 15.8818 22.4602 17.3129 22.4281C19.4846 22.4281 21.8372 23.2183 24.4312 25.5279C24.6725 25.7711 25.0344 25.4672 24.7931 25.1633C22.1992 21.9419 19.8465 21.3341 17.4939 20.7871C14.5984 20.1185 13.0903 18.5382 12.0648 16.7147C11.8838 16.3501 11.7631 16.4108 11.7631 16.8971C11.7029 17.6264 11.7631 18.2951 11.8838 18.9637H11.5219C7.41984 18.9637 4.04171 15.5599 4.04171 11.4268C4.04171 7.29371 7.41984 3.88998 11.5219 3.88998C15.6239 3.88998 19.0021 7.29371 19.0021 11.4268C19.0021 11.6699 19.0021 11.9738 18.9417 12.2778C18.3385 12.1562 17.3129 12.1562 16.5287 12.217C16.2271 12.217 16.2271 12.3385 16.4684 12.3993C18.8813 12.8855 20.5704 14.4051 20.9927 17.201C20.9927 17.3226 21.053 17.3226 21.1134 17.2618C22.0786 15.5599 22.6818 13.5541 22.6818 11.4268C22.6818 5.1056 17.6146 0 11.3409 0C5.06721 0 0 5.16638 0 11.4268ZM19.545 16.107C19.9672 16.2894 20.1482 16.8971 20.1482 17.2011C20.2086 17.6873 20.0879 17.9304 19.907 17.9304C19.726 17.9304 19.4846 17.7481 19.2434 17.3226C19.0021 16.8971 18.8814 16.4717 19.0021 16.2286C19.183 16.107 19.364 16.0463 19.545 16.107ZM17.0714 17.9911C17.3128 17.9911 17.6144 18.1127 17.916 18.3558C18.3986 18.7812 18.5796 19.2675 18.3383 19.6322C18.2176 19.8146 17.916 19.9361 17.6747 19.9361C17.373 19.9361 17.0714 19.8146 16.8904 19.6322C16.4079 19.2067 16.2872 18.5989 16.5888 18.2342C16.6492 18.1127 16.8302 17.9911 17.0714 17.9911Z" fill="#F28A1A"/>
<g clip-path="url(#clip1_448_3622)">
<path d="M25 0H0V25H25V0Z" fill="white"/>
<path d="M12.5 25C19.4036 25 25 19.4036 25 12.5C25 5.59644 19.4036 0 12.5 0C5.59644 0 0 5.59644 0 12.5C0 19.4036 5.59644 25 12.5 25Z" fill="#4CA8E2"/>
<path d="M12.75 13.3886H10.5527V12.123H12.75C13.1093 12.123 13.4004 12.0645 13.623 11.9473C13.8496 11.8262 14.0156 11.6621 14.1211 11.4551C14.2265 11.2442 14.2793 11.0039 14.2793 10.7344C14.2793 10.4726 14.2265 10.2285 14.1211 10.002C14.0156 9.7754 13.8496 9.5918 13.623 9.45115C13.4004 9.31055 13.1093 9.24025 12.75 9.24025H11.08V16.5H9.46875V7.96875H12.75C13.4141 7.96875 13.9804 8.0879 14.4492 8.32615C14.9218 8.56055 15.2812 8.8867 15.5273 9.3047C15.7773 9.71875 15.9023 10.1914 15.9023 10.7226C15.9023 11.2734 15.7773 11.748 15.5273 12.1465C15.2812 12.5449 14.9218 12.8515 14.4492 13.0664C13.9804 13.2812 13.4141 13.3886 12.75 13.3886Z" fill="white"/>
</g>
</g>
<defs>
<clipPath id="clip0_448_3622">
<rect width="25" height="25.8929" fill="white"/>
</clipPath>
<clipPath id="clip1_448_3622">
<rect width="25" height="25" fill="white"/>
</clipPath>
</defs>
</svg>
