<svg width="395" height="243" viewBox="0 0 395 243" fill="none" xmlns="http://www.w3.org/2000/svg">
<path fill-rule="evenodd" clip-rule="evenodd" d="M375.838 243H36.0195V242.37H375.838V243Z" fill="black"/>
<path d="M195.706 107.219C216.244 107.219 232.893 91.0375 232.893 71.0765C232.893 51.1155 216.244 34.9338 195.706 34.9338C175.169 34.9338 158.52 51.1155 158.52 71.0765C158.52 91.0375 175.169 107.219 195.706 107.219Z" fill="#1B1B25"/>
<path d="M191.784 103.409C212.322 103.409 228.971 87.2275 228.971 67.2664C228.971 47.3054 212.322 31.1238 191.784 31.1238C171.247 31.1238 154.598 47.3054 154.598 67.2664C154.598 87.2275 171.247 103.409 191.784 103.409Z" fill="#FFB54A"/>
<path d="M191.807 96.4471C185.882 96.4483 180.091 94.742 175.164 91.5439C170.238 88.3459 166.398 83.7997 164.13 78.4804C161.862 73.161 161.267 67.3075 162.422 61.6599C163.577 56.0124 166.43 50.8247 170.618 46.7527C174.807 42.6807 180.144 39.9075 185.954 38.7837C191.765 37.6599 197.787 38.2361 203.261 40.4393C208.734 42.6425 213.413 46.3738 216.704 51.1613C219.996 55.9488 221.753 61.5775 221.753 67.3355C221.742 75.0522 218.584 82.4501 212.971 87.9072C207.357 93.3644 199.746 96.4354 191.807 96.4471ZM191.807 40.1169C186.266 40.1156 180.849 41.7114 176.242 44.7025C171.634 47.6935 168.043 51.9454 165.922 56.9203C163.801 61.8953 163.246 67.3698 164.327 72.6515C165.407 77.9332 168.075 82.7848 171.993 86.5927C175.911 90.4005 180.903 92.9936 186.337 94.0439C191.771 95.0941 197.404 94.5545 202.523 92.4931C207.641 90.4317 212.016 86.9413 215.093 82.4632C218.171 77.9851 219.813 72.7206 219.811 67.3355C219.803 60.1192 216.85 53.2009 211.599 48.0982C206.349 42.9955 199.231 40.1252 191.807 40.1169Z" fill="#FCF0E3"/>
<path d="M189.598 80.3848C187.741 80.1651 185.922 79.7084 184.188 79.0263C182.488 78.3623 180.886 77.4804 179.426 76.4038L182.784 71.6305C183.866 72.437 185.013 73.1583 186.213 73.7876C187.343 74.3763 188.555 74.8001 189.811 75.0454V68.3603C188.421 67.9991 187.06 67.5366 185.741 66.9767C184.68 66.5395 183.702 65.9314 182.849 65.178C182.097 64.4932 181.509 63.6558 181.128 62.7254C180.72 61.6903 180.522 60.5883 180.545 59.4803V59.4237C180.528 58.3284 180.748 57.2419 181.192 56.2352C181.617 55.2952 182.241 54.4529 183.023 53.7636C183.866 53.0365 184.837 52.4634 185.89 52.0719C187.079 51.6204 188.327 51.3305 189.598 51.2103V48.7324H194.075V51.248C196.97 51.6508 199.721 52.7298 202.092 54.3925L199.206 59.2979C198.363 58.7491 197.486 58.2514 196.579 57.8074C195.714 57.3833 194.802 57.0542 193.862 56.8263V63.153C197.136 64.0167 199.508 65.1466 200.979 66.5428C201.729 67.2787 202.313 68.1578 202.695 69.1245C203.077 70.0912 203.249 71.1244 203.199 72.1588V72.2406C203.223 73.3343 203.002 74.4202 202.552 75.4228C202.117 76.3621 201.487 77.2037 200.701 77.8943C199.856 78.6268 198.886 79.21 197.835 79.6175C196.633 80.0825 195.369 80.3769 194.082 80.4917V84.6424H189.604L189.598 80.3848ZM189.811 56.4238C188.976 56.4785 188.182 56.794 187.546 57.3231C187.315 57.5439 187.132 57.8085 187.01 58.1005C186.887 58.3926 186.828 58.7059 186.835 59.0212V59.1029C186.82 59.7084 187.036 60.2978 187.443 60.7569C188.113 61.3733 188.925 61.826 189.811 62.0776V56.4238ZM193.862 75.2341C195.898 74.928 196.918 74.0329 196.922 72.5487V72.467C196.952 71.8146 196.72 71.1763 196.275 70.6872C195.582 70.0771 194.758 69.6258 193.862 69.3665V75.2341Z" fill="#1B1B25"/>
<path d="M195.706 107.219C216.244 107.219 232.893 91.0378 232.893 71.0767C232.893 51.1157 216.244 34.9341 195.706 34.9341C175.169 34.9341 158.52 51.1157 158.52 71.0767C158.52 91.0378 175.169 107.219 195.706 107.219Z" fill="#1B1B25"/>
<path d="M191.784 103.409C212.322 103.409 228.971 87.2275 228.971 67.2664C228.971 47.3054 212.322 31.1238 191.784 31.1238C171.247 31.1238 154.598 47.3054 154.598 67.2664C154.598 87.2275 171.247 103.409 191.784 103.409Z" fill="#F35A05"/>
<path d="M191.807 96.4471C185.882 96.4483 180.091 94.742 175.164 91.5439C170.238 88.3459 166.398 83.7997 164.13 78.4804C161.862 73.161 161.267 67.3075 162.422 61.6599C163.577 56.0124 166.43 50.8247 170.618 46.7527C174.807 42.6807 180.144 39.9075 185.954 38.7837C191.765 37.6599 197.787 38.2361 203.261 40.4393C208.734 42.6425 213.413 46.3738 216.704 51.1613C219.996 55.9488 221.753 61.5775 221.753 67.3355C221.742 75.0522 218.584 82.4501 212.971 87.9072C207.357 93.3644 199.746 96.4354 191.807 96.4471ZM191.807 40.1169C186.266 40.1156 180.849 41.7114 176.242 44.7025C171.634 47.6935 168.043 51.9454 165.922 56.9203C163.801 61.8953 163.246 67.3698 164.327 72.6515C165.407 77.9332 168.075 82.7848 171.993 86.5927C175.911 90.4005 180.903 92.9936 186.337 94.0439C191.771 95.0941 197.404 94.5545 202.523 92.4931C207.641 90.4317 212.016 86.9413 215.093 82.4632C218.171 77.9851 219.813 72.7206 219.811 67.3355C219.803 60.1192 216.85 53.2009 211.599 48.0982C206.349 42.9955 199.231 40.1252 191.807 40.1169Z" fill="#FCF0E3"/>
<path d="M239.078 15.4041C239.078 14.5682 238.823 13.7511 238.345 13.056C237.867 12.361 237.188 11.8193 236.394 11.4994C235.599 11.1796 234.725 11.0959 233.881 11.2589C233.038 11.422 232.263 11.8245 231.655 12.4156C231.047 13.0067 230.633 13.7597 230.465 14.5795C230.297 15.3994 230.383 16.2491 230.712 17.0214C231.041 17.7937 231.599 18.4537 232.314 18.9181C233.029 19.3825 233.87 19.6304 234.73 19.6304C235.301 19.6304 235.866 19.5211 236.394 19.3087C236.921 19.0963 237.401 18.785 237.805 18.3925C238.208 18.0001 238.529 17.5342 238.747 17.0214C238.966 16.5086 239.078 15.9591 239.078 15.4041Z" fill="white"/>
<path d="M366.832 85.3679C366.832 84.532 366.577 83.7149 366.099 83.0199C365.621 82.3249 364.942 81.7832 364.148 81.4633C363.353 81.1434 362.479 81.0597 361.635 81.2228C360.792 81.3859 360.017 81.7884 359.409 82.3795C358.801 82.9705 358.387 83.7236 358.219 84.5434C358.051 85.3632 358.137 86.213 358.466 86.9853C358.795 87.7575 359.353 88.4176 360.068 88.882C360.783 89.3464 361.624 89.5943 362.484 89.5943C363.055 89.5943 363.62 89.4849 364.148 89.2725C364.675 89.0601 365.155 88.7488 365.558 88.3564C365.962 87.9639 366.283 87.498 366.501 86.9853C366.72 86.4725 366.832 85.9229 366.832 85.3679Z" fill="white"/>
<path d="M234.729 20.0749C235.68 20.0749 236.609 19.801 237.399 19.2877C238.19 18.7745 238.806 18.045 239.169 17.1916C239.533 16.3381 239.628 15.399 239.443 14.4929C239.257 13.5869 238.8 12.7546 238.128 12.1014C237.456 11.4482 236.599 11.0034 235.667 10.8231C234.735 10.6429 233.769 10.7354 232.89 11.0889C232.012 11.4425 231.262 12.0411 230.734 12.8092C230.206 13.5773 229.924 14.4804 229.924 15.4041C229.926 16.6422 230.433 17.8289 231.334 18.7043C232.235 19.5797 233.456 20.0726 234.729 20.0749ZM234.729 11.6222C235.499 11.6222 236.251 11.844 236.891 12.2596C237.531 12.6752 238.03 13.2658 238.324 13.9569C238.619 14.6479 238.696 15.4083 238.546 16.142C238.396 16.8756 238.025 17.5494 237.481 18.0784C236.937 18.6073 236.243 18.9675 235.489 19.1134C234.734 19.2593 233.951 19.1844 233.24 18.8982C232.529 18.6119 231.922 18.1272 231.494 17.5053C231.067 16.8833 230.838 16.1521 230.838 15.4041C230.841 14.4018 231.251 13.4412 231.981 12.7325C232.71 12.0237 233.698 11.6245 234.729 11.6222Z" fill="#07040C"/>
<path d="M362.487 90.0385C363.438 90.0385 364.367 89.7646 365.157 89.2513C365.947 88.7381 366.563 88.0086 366.927 87.1552C367.291 86.3017 367.386 85.3626 367.201 84.4565C367.015 83.5505 366.558 82.7183 365.885 82.0651C365.213 81.4118 364.357 80.967 363.425 80.7868C362.493 80.6065 361.526 80.699 360.648 81.0526C359.77 81.4061 359.02 82.0047 358.492 82.7728C357.964 83.5409 357.682 84.444 357.682 85.3678C357.684 86.6058 358.191 87.7925 359.092 88.6679C359.993 89.5434 361.213 90.0362 362.487 90.0385ZM362.487 81.5859C363.257 81.5859 364.009 81.8077 364.649 82.2232C365.289 82.6388 365.788 83.2294 366.082 83.9205C366.377 84.6115 366.454 85.372 366.304 86.1056C366.154 86.8392 365.783 87.5131 365.239 88.042C364.695 88.5709 364.001 88.9311 363.246 89.077C362.492 89.2229 361.709 89.148 360.998 88.8618C360.287 88.5755 359.68 88.0908 359.252 87.4689C358.824 86.847 358.596 86.1158 358.596 85.3678C358.599 84.3654 359.009 83.4048 359.738 82.6961C360.468 81.9873 361.456 81.5882 362.487 81.5859Z" fill="#07040C"/>
<path d="M189.598 80.3848C187.741 80.1651 185.922 79.7084 184.188 79.0263C182.488 78.3623 180.886 77.4804 179.426 76.4038L182.784 71.6305C183.866 72.437 185.013 73.1583 186.213 73.7876C187.343 74.3763 188.555 74.8001 189.811 75.0454V68.3603C188.421 67.9991 187.06 67.5366 185.741 66.9767C184.68 66.5395 183.702 65.9314 182.849 65.178C182.097 64.4932 181.509 63.6558 181.128 62.7254C180.72 61.6903 180.522 60.5883 180.545 59.4803V59.4237C180.528 58.3284 180.748 57.2419 181.192 56.2352C181.617 55.2952 182.241 54.4529 183.023 53.7636C183.866 53.0365 184.837 52.4634 185.89 52.0719C187.079 51.6204 188.327 51.3305 189.598 51.2103V48.7324H194.075V51.248C196.97 51.6508 199.721 52.7298 202.092 54.3925L199.206 59.2979C198.363 58.7491 197.486 58.2514 196.579 57.8074C195.714 57.3833 194.802 57.0542 193.862 56.8263V63.153C197.136 64.0167 199.508 65.1466 200.979 66.5428C201.729 67.2787 202.313 68.1578 202.695 69.1245C203.077 70.0912 203.249 71.1244 203.199 72.1588V72.2406C203.223 73.3343 203.002 74.4202 202.552 75.4228C202.117 76.3621 201.487 77.2037 200.701 77.8943C199.856 78.6268 198.886 79.21 197.835 79.6175C196.633 80.0825 195.369 80.3769 194.082 80.4917V84.6424H189.604L189.598 80.3848ZM189.811 56.4238C188.976 56.4785 188.182 56.794 187.546 57.3231C187.315 57.5439 187.132 57.8085 187.01 58.1005C186.887 58.3926 186.828 58.7059 186.835 59.0212V59.1029C186.82 59.7084 187.036 60.2978 187.443 60.7569C188.113 61.3733 188.925 61.826 189.811 62.0776V56.4238ZM193.862 75.2341C195.898 74.928 196.918 74.0329 196.922 72.5487V72.467C196.952 71.8146 196.72 71.1763 196.275 70.6872C195.582 70.0771 194.758 69.6258 193.862 69.3665V75.2341Z" fill="white" stroke="black"/>
<path d="M154.734 66.8881C164.025 66.8881 171.557 59.5674 171.557 50.5368C171.557 41.5063 164.025 34.1855 154.734 34.1855C145.442 34.1855 137.91 41.5063 137.91 50.5368C137.91 59.5674 145.442 66.8881 154.734 66.8881Z" fill="#1B1B25"/>
<path d="M152.96 65.165C162.252 65.165 169.784 57.8443 169.784 48.8137C169.784 39.7831 162.252 32.4624 152.96 32.4624C143.669 32.4624 136.137 39.7831 136.137 48.8137C136.137 57.8443 143.669 65.165 152.96 65.165Z" fill="#F35A05"/>
<path d="M152.979 62.0144C150.301 62.0069 147.685 61.2282 145.462 59.7767C143.239 58.3251 141.509 56.2658 140.489 53.8588C139.469 51.4518 139.207 48.8051 139.734 46.2531C140.261 43.701 141.555 41.3581 143.451 39.5201C145.347 37.6821 147.762 36.4317 150.389 35.9266C153.016 35.4215 155.739 35.6845 158.212 36.6823C160.686 37.6801 162.8 39.3681 164.287 41.5329C165.774 43.6977 166.568 46.2423 166.568 48.8453C166.557 52.3414 165.121 55.6909 162.574 58.1595C160.027 60.6281 156.576 62.0144 152.979 62.0144ZM152.979 36.5252C150.472 36.5252 148.022 37.2478 145.937 38.6015C143.852 39.9553 142.228 41.8794 141.268 44.1306C140.309 46.3818 140.058 48.859 140.547 51.2488C141.036 53.6387 142.243 55.8339 144.016 57.5569C145.789 59.2799 148.048 60.4533 150.506 60.9286C152.965 61.404 155.514 61.16 157.83 60.2276C160.146 59.2951 162.126 57.716 163.519 55.69C164.912 53.6639 165.655 51.282 165.655 48.8453C165.652 45.5788 164.315 42.4471 161.939 40.1374C159.562 37.8276 156.34 36.5286 152.979 36.5252Z" fill="#FCF0E3"/>
<path d="M151.97 54.7507C151.128 54.6462 150.304 54.4348 149.518 54.1218C148.75 53.8207 148.025 53.4232 147.363 52.9395L148.884 50.7761C149.375 51.1386 149.895 51.4645 150.437 51.7509C150.949 52.0146 151.498 52.2032 152.067 52.3106V49.2982C151.437 49.1333 150.821 48.9231 150.223 48.6693C149.747 48.4726 149.31 48.1982 148.929 47.858C148.587 47.5475 148.32 47.1674 148.146 46.7448C147.964 46.277 147.876 45.7795 147.887 45.2795V45.2418C147.879 44.7472 147.979 44.2565 148.179 43.8016C148.369 43.3751 148.651 42.9933 149.007 42.6822C149.387 42.3527 149.825 42.0928 150.301 41.9149C150.841 41.7116 151.407 41.5805 151.983 41.525V40.437H154.009V41.5753C155.317 41.7517 156.563 42.2328 157.639 42.9778L156.344 45.1978C155.961 44.9511 155.564 44.7264 155.154 44.5248C154.762 44.334 154.349 44.1843 153.924 44.0783V46.9398C155.116 47.187 156.226 47.7138 157.16 48.4743C157.495 48.8046 157.757 49.1982 157.93 49.6309C158.102 50.0637 158.182 50.5262 158.163 50.9899V51.0276C158.169 51.5234 158.065 52.0146 157.859 52.4678C157.662 52.8924 157.378 53.2733 157.024 53.5872C156.641 53.9163 156.203 54.18 155.73 54.3671C155.187 54.5768 154.616 54.7102 154.034 54.7633V56.65H152.009L151.97 54.7507ZM152.067 43.9085C151.686 43.9354 151.325 44.0834 151.039 44.3299C150.934 44.4296 150.852 44.5492 150.797 44.6813C150.743 44.8133 150.717 44.9549 150.722 45.0971V45.1349C150.715 45.4082 150.812 45.6744 150.993 45.8833C151.293 46.1753 151.662 46.3913 152.067 46.5121V43.9085ZM153.899 52.4175C154.824 52.2791 155.283 51.8766 155.283 51.2037V51.166C155.295 50.8714 155.191 50.5835 154.992 50.361C154.681 50.0738 154.307 49.8588 153.899 49.7321V52.4175Z" fill="white" stroke="black"/>
<path d="M133.956 78.177C133.955 76.2934 133.184 74.4874 131.812 73.156C130.441 71.8246 128.583 71.0768 126.645 71.0768C128.583 71.0768 130.441 70.3289 131.812 68.9976C133.184 67.6662 133.955 65.8602 133.956 63.9766C133.956 64.909 134.145 65.8323 134.512 66.6937C134.88 67.5551 135.418 68.3379 136.096 68.9972C136.774 69.6565 137.58 70.1795 138.466 70.5363C139.352 70.8931 140.302 71.0768 141.262 71.0768C140.302 71.0768 139.352 71.2605 138.466 71.6173C137.58 71.9741 136.774 72.4971 136.096 73.1564C135.418 73.8157 134.88 74.5984 134.512 75.4599C134.145 76.3213 133.956 77.2446 133.956 78.177Z" fill="white"/>
<path d="M219.79 113.886C219.79 112.503 219.225 111.176 218.219 110.197C217.213 109.219 215.849 108.668 214.426 108.666C215.13 108.666 215.828 108.531 216.479 108.269C217.129 108.007 217.721 107.623 218.219 107.139C218.717 106.655 219.112 106.08 219.382 105.448C219.651 104.815 219.79 104.137 219.79 103.453C219.792 104.836 220.358 106.162 221.365 107.14C222.372 108.117 223.737 108.666 225.161 108.666C223.737 108.668 222.372 109.218 221.365 110.197C220.358 111.175 219.792 112.502 219.79 113.886Z" fill="white"/>
<path d="M184.719 139.004C184.719 136.461 183.68 134.021 181.829 132.223C179.979 130.424 177.469 129.414 174.852 129.414C176.15 129.414 177.435 129.165 178.634 128.681C179.833 128.198 180.922 127.489 181.838 126.596C182.755 125.703 183.481 124.642 183.976 123.476C184.47 122.309 184.723 121.059 184.719 119.798C184.719 122.341 185.759 124.781 187.609 126.579C189.46 128.378 191.97 129.389 194.587 129.389C193.289 129.389 192.004 129.637 190.805 130.121C189.606 130.605 188.517 131.313 187.6 132.206C186.684 133.1 185.957 134.16 185.463 135.326C184.969 136.493 184.716 137.743 184.719 139.004Z" fill="white"/>
<path d="M218.789 65.0083C218.789 63.8281 218.55 62.6595 218.086 61.5691C217.621 60.4788 216.94 59.4881 216.081 58.6536C215.223 57.819 214.203 57.1571 213.081 56.7054C211.96 56.2538 210.757 56.0213 209.543 56.0213C210.757 56.0213 211.96 55.7889 213.081 55.3373C214.203 54.8856 215.223 54.2236 216.081 53.3891C216.94 52.5546 217.621 51.5639 218.086 50.4736C218.55 49.3832 218.789 48.2146 218.789 47.0344C218.789 48.2151 219.029 49.3843 219.494 50.475C219.959 51.5658 220.641 52.5568 221.5 53.3914C222.359 54.226 223.379 54.8878 224.502 55.3391C225.625 55.7903 226.828 56.0222 228.042 56.0213C226.827 56.0197 225.624 56.251 224.501 56.7019C223.378 57.1529 222.358 57.8147 221.498 58.6495C220.639 59.4842 219.957 60.4756 219.492 61.5667C219.027 62.6578 218.789 63.8273 218.789 65.0083Z" fill="#FCF0E3"/>
<path d="M249.695 71.0769C249.695 70.4256 249.563 69.7807 249.306 69.179C249.05 68.5774 248.674 68.0308 248.199 67.5705C247.725 67.1102 247.162 66.7453 246.543 66.4967C245.924 66.248 245.26 66.1204 244.59 66.1212C245.26 66.1221 245.924 65.9945 246.543 65.7458C247.162 65.4971 247.725 65.1322 248.199 64.672C248.674 64.2117 249.05 63.6651 249.306 63.0634C249.563 62.4618 249.695 61.8168 249.695 61.1655C249.695 62.4799 250.232 63.7404 251.189 64.6697C252.145 65.5991 253.442 66.1212 254.794 66.1212C253.442 66.1212 252.145 66.6433 251.189 67.5727C250.232 68.5021 249.695 69.7626 249.695 71.0769Z" fill="white"/>
<path d="M93.3992 54.5374H36.5872C33.7814 54.5374 31.0905 55.6207 29.1065 57.549C27.1224 59.4773 26.0078 62.0927 26.0078 64.8198C26.0078 67.5469 27.1224 70.1623 29.1065 72.0906C31.0905 74.0189 33.7814 75.1022 36.5872 75.1022H83.4021L89.8727 80.8063V75.1022H93.4251C94.8144 75.1022 96.1901 74.8363 97.4736 74.3195C98.7572 73.8028 99.9235 73.0454 100.906 72.0906C101.888 71.1358 102.668 70.0022 103.199 68.7547C103.731 67.5072 104.005 66.1701 104.005 64.8198C104.005 63.4695 103.731 62.1324 103.199 60.8849C102.668 59.6374 101.888 58.5038 100.906 57.549C99.9235 56.5942 98.7572 55.8368 97.4736 55.3201C96.1901 54.8033 94.8144 54.5374 93.4251 54.5374H93.3992Z" fill="white" stroke="black"/>
<path d="M94.0979 60.052H53.3977C53.3119 60.052 53.2296 60.0189 53.169 59.9599C53.1083 59.9009 53.0742 59.8209 53.0742 59.7375C53.0742 59.6541 53.1083 59.5742 53.169 59.5152C53.2296 59.4562 53.3119 59.4231 53.3977 59.4231H94.0979C94.1837 59.4231 94.266 59.4562 94.3266 59.5152C94.3873 59.5742 94.4214 59.6541 94.4214 59.7375C94.4214 59.8209 94.3873 59.9009 94.3266 59.9599C94.266 60.0189 94.1837 60.052 94.0979 60.052Z" fill="black"/>
<path d="M87.7955 69.3472H53.3977C53.3119 69.3472 53.2296 69.314 53.169 69.2551C53.1083 69.1961 53.0742 69.1161 53.0742 69.0327C53.0742 68.9493 53.1083 68.8693 53.169 68.8104C53.2296 68.7514 53.3119 68.7183 53.3977 68.7183H87.7955C87.8813 68.7183 87.9636 68.7514 88.0243 68.8104C88.0849 68.8693 88.119 68.9493 88.119 69.0327C88.119 69.1161 88.0849 69.1961 88.0243 69.2551C87.9636 69.314 87.8813 69.3472 87.7955 69.3472Z" fill="black"/>
<path d="M78.4261 65.0017H53.3977C53.3125 65.0001 53.2311 64.9664 53.1708 64.9078C53.1105 64.8492 53.0759 64.7701 53.0742 64.6873C53.0742 64.6039 53.1083 64.5239 53.169 64.4649C53.2296 64.4059 53.3119 64.3728 53.3977 64.3728H78.4261C78.5119 64.3728 78.5942 64.4059 78.6548 64.4649C78.7155 64.5239 78.7496 64.6039 78.7496 64.6873C78.7496 64.7706 78.7155 64.8506 78.6548 64.9096C78.5942 64.9686 78.5119 65.0017 78.4261 65.0017Z" fill="black"/>
<path d="M94.0992 65.0017H81.5462C81.4609 65.0001 81.3796 64.9664 81.3192 64.9078C81.2589 64.8492 81.2243 64.7701 81.2227 64.6873C81.2227 64.6039 81.2567 64.5239 81.3174 64.4649C81.3781 64.4059 81.4604 64.3728 81.5462 64.3728H94.0992C94.185 64.3728 94.2673 64.4059 94.3279 64.4649C94.3886 64.5239 94.4227 64.6039 94.4227 64.6873C94.421 64.7701 94.3864 64.8492 94.3261 64.9078C94.2658 64.9664 94.1844 65.0001 94.0992 65.0017Z" fill="white"/>
<path d="M291.123 30.2758H349.41C352.243 30.3431 354.936 31.4841 356.916 33.4552C358.895 35.4263 360.003 38.0714 360.003 40.8256C360.003 43.5798 358.895 46.2248 356.916 48.1959C354.936 50.1671 352.243 51.3081 349.41 51.3753H301.372L294.766 57.2303V51.3753H291.123C289.675 51.4097 288.235 51.1622 286.887 50.6475C285.539 50.1327 284.311 49.3611 283.274 48.3781C282.238 47.3951 281.414 46.2205 280.852 44.9234C280.29 43.6264 280 42.2331 280 40.8256C280 39.4181 280.29 38.0248 280.852 36.7277C281.414 35.4307 282.238 34.2561 283.274 33.273C284.311 32.29 285.539 31.5184 286.887 31.0037C288.235 30.489 289.675 30.2415 291.123 30.2758Z" fill="white" stroke="black"/>
<path d="M41.6882 63.4046C42.2212 62.9767 42.6055 62.3992 42.7883 61.7512C42.9711 61.1031 42.9437 60.416 42.7098 59.7836C42.4758 59.1512 42.0468 58.6045 41.4812 58.218C40.9156 57.8314 40.241 57.624 39.5496 57.624C38.8582 57.624 38.1836 57.8314 37.6181 58.218C37.0525 58.6045 36.6234 59.1512 36.3895 59.7836C36.1555 60.416 36.1281 61.1031 36.3109 61.7512C36.4938 62.3992 36.878 62.9767 37.4111 63.4046C36.2162 63.8283 35.1838 64.5983 34.4537 65.6105C33.7235 66.6227 33.3306 67.8284 33.3281 69.0647C33.3281 72.4041 45.7711 72.4041 45.7711 69.0647C45.7686 67.8284 45.3758 66.6227 44.6456 65.6105C43.9154 64.5983 42.8831 63.8283 41.6882 63.4046Z" fill="#F35A05"/>
<path d="M348.102 39.2752C348.632 38.8472 349.014 38.2706 349.195 37.6242C349.376 36.9778 349.347 36.2928 349.113 35.6628C348.879 35.0327 348.45 34.4881 347.886 34.1032C347.322 33.7182 346.65 33.5117 345.96 33.5117C345.271 33.5117 344.599 33.7182 344.035 34.1032C343.47 34.4881 343.042 35.0327 342.808 35.6628C342.574 36.2928 342.545 36.9778 342.726 37.6242C342.907 38.2706 343.288 38.8472 343.819 39.2752C342.625 39.7007 341.595 40.4713 340.866 41.4833C340.137 42.4953 339.745 43.7 339.742 44.9353C339.742 48.2685 352.185 48.2685 352.185 44.9353C352.182 43.6993 351.789 42.494 351.058 41.4819C350.328 40.4698 349.297 39.6997 348.102 39.2752Z" fill="#F35A05"/>
<path d="M353.214 41.0871H352.616C352.064 41.0871 351.616 40.6393 351.616 40.0871V39.5274C351.617 39.4872 351.609 39.4473 351.594 39.4099C351.579 39.3726 351.556 39.3386 351.527 39.3099C351.498 39.2812 351.464 39.2584 351.426 39.2428C351.388 39.2272 351.347 39.2192 351.305 39.2192H349.837C349.752 39.2192 349.672 39.2517 349.612 39.3095C349.553 39.3673 349.519 39.4457 349.519 39.5274V40.0871C349.519 40.6393 349.072 41.0871 348.519 41.0871H347.915C347.831 41.0871 347.75 41.1195 347.691 41.1773C347.631 41.2351 347.598 41.3135 347.598 41.3952V42.8228C347.598 42.863 347.606 42.9028 347.622 42.9398C347.638 42.9768 347.661 43.0104 347.691 43.0385C347.72 43.0666 347.755 43.0887 347.794 43.1035C347.832 43.1183 347.873 43.1255 347.915 43.1247H348.519C349.072 43.1247 349.519 43.5724 349.519 44.1247V44.6906C349.519 44.7308 349.528 44.7706 349.544 44.8076C349.56 44.8447 349.583 44.8782 349.613 44.9063C349.642 44.9344 349.677 44.9566 349.716 44.9713C349.754 44.9861 349.795 44.9933 349.837 44.9925H351.305C351.346 44.9934 351.387 44.9861 351.425 44.9713C351.463 44.9564 351.498 44.9342 351.527 44.906C351.556 44.8778 351.579 44.8442 351.594 44.8072C351.609 44.7701 351.617 44.7305 351.616 44.6906V44.1247C351.616 43.5724 352.064 43.1247 352.616 43.1247H353.227C353.268 43.1255 353.309 43.1183 353.347 43.1034C353.385 43.0886 353.42 43.0664 353.449 43.0382C353.478 43.01 353.501 42.9763 353.516 42.9393C353.531 42.9023 353.539 42.8627 353.538 42.8228V41.3952C353.539 41.354 353.531 41.313 353.515 41.2748C353.499 41.2366 353.475 41.2019 353.445 41.1731C353.414 41.1442 353.378 41.1216 353.339 41.1069C353.299 41.0921 353.257 41.0853 353.214 41.0871Z" fill="white" stroke="black"/>
<path d="M43.589 68.1341C43.3321 68.1318 43.0861 68.0326 42.9031 67.8574L40.4701 65.4864C40.3794 65.3993 40.3073 65.2955 40.2581 65.181C40.2089 65.0666 40.1836 64.9438 40.1836 64.8198C40.1836 64.6958 40.2089 64.573 40.2581 64.4586C40.3073 64.3441 40.3794 64.2403 40.4701 64.1532C40.653 63.978 40.8993 63.8799 41.156 63.8799C41.4127 63.8799 41.6591 63.978 41.8419 64.1532L42.892 65.1775C43.2799 65.5559 43.8986 65.5565 44.2872 65.1788L48.2996 61.2791C48.4824 61.1023 48.7299 61.0033 48.9878 61.0039C49.2456 61.0045 49.4927 61.1046 49.6746 61.2823C49.8565 61.4599 49.9584 61.7005 49.9577 61.9511C49.9571 62.2017 49.8541 62.4419 49.6714 62.6187L44.2749 67.8574C44.185 67.9453 44.0782 68.015 43.9604 68.0625C43.8427 68.11 43.7165 68.1343 43.589 68.1341Z" fill="white" stroke="black"/>
<path d="M334.651 36.5644H293.945C293.859 36.5644 293.777 36.5313 293.716 36.4723C293.655 36.4134 293.621 36.3334 293.621 36.25C293.621 36.1666 293.655 36.0866 293.716 36.0276C293.777 35.9687 293.859 35.9355 293.945 35.9355H334.651C334.737 35.9355 334.819 35.9687 334.88 36.0276C334.941 36.0866 334.975 36.1666 334.975 36.25C334.975 36.3334 334.941 36.4134 334.88 36.4723C334.819 36.5313 334.737 36.5644 334.651 36.5644Z" fill="black"/>
<path d="M328.323 45.8535H293.945C293.859 45.8535 293.777 45.8204 293.716 45.7614C293.655 45.7024 293.621 45.6225 293.621 45.5391C293.621 45.4557 293.655 45.3757 293.716 45.3167C293.777 45.2577 293.859 45.2246 293.945 45.2246H328.323C328.409 45.2246 328.491 45.2577 328.552 45.3167C328.612 45.3757 328.646 45.4557 328.646 45.5391C328.646 45.6225 328.612 45.7024 328.552 45.7614C328.491 45.8204 328.409 45.8535 328.323 45.8535Z" fill="black"/>
<path d="M318.973 41.5015H293.945C293.859 41.5015 293.777 41.4683 293.716 41.4094C293.655 41.3504 293.621 41.2704 293.621 41.187C293.621 41.1036 293.655 41.0236 293.716 40.9647C293.777 40.9057 293.859 40.8726 293.945 40.8726H318.973C319.059 40.8726 319.141 40.9057 319.202 40.9647C319.262 41.0236 319.296 41.1036 319.296 41.187C319.296 41.2704 319.262 41.3504 319.202 41.4094C319.141 41.4683 319.059 41.5015 318.973 41.5015Z" fill="black"/>
<path d="M390.309 119.313H377.749C377.664 119.313 377.581 119.28 377.521 119.221C377.46 119.162 377.426 119.082 377.426 118.999C377.426 118.916 377.46 118.836 377.521 118.777C377.581 118.718 377.664 118.685 377.749 118.685H390.309C390.395 118.685 390.477 118.718 390.538 118.777C390.598 118.836 390.632 118.916 390.632 118.999C390.632 119.082 390.598 119.162 390.538 119.221C390.477 119.28 390.395 119.313 390.309 119.313Z" fill="white"/>
<path d="M346.355 114.733H386.505C388.489 114.733 390.392 115.499 391.794 116.863C393.197 118.226 393.985 120.075 393.985 122.003C393.985 123.932 393.197 125.781 391.794 127.144C390.392 128.508 388.489 129.273 386.505 129.273H346.355C344.371 129.273 342.469 128.508 341.066 127.144C339.663 125.781 338.875 123.932 338.875 122.003C338.875 120.075 339.663 118.226 341.066 116.863C342.469 115.499 344.371 114.733 346.355 114.733Z" fill="white" stroke="black"/>
<path d="M341.702 63.6787H374.303C375.913 63.6787 377.458 64.3096 378.597 65.4325C379.736 66.5555 380.376 68.0785 380.376 69.6666C380.376 71.2547 379.736 72.7777 378.597 73.9007C377.458 75.0236 375.913 75.6545 374.303 75.6545H341.702C340.092 75.6545 338.547 75.0236 337.408 73.9007C336.269 72.7777 335.629 71.2547 335.629 69.6666C335.629 68.0785 336.269 66.5555 337.408 65.4325C338.547 64.3096 340.092 63.6787 341.702 63.6787Z" fill="white" stroke="black"/>
<path d="M8.04169 141.206H45.839C47.7066 141.206 49.4976 141.937 50.8182 143.237C52.1388 144.537 52.8807 146.301 52.8807 148.14C52.8807 149.978 52.1388 151.742 50.8182 153.042C49.4976 154.342 47.7066 155.073 45.839 155.073H8.04169C6.17411 155.073 4.38303 154.342 3.06246 153.042C1.74188 151.742 1 149.978 1 148.14C1 146.301 1.74188 144.537 3.06246 143.237C4.38303 141.937 6.17411 141.206 8.04169 141.206Z" fill="white" stroke="black"/>
<path d="M309.136 55.0723H299.527C299.441 55.0706 299.36 55.037 299.3 54.9784C299.239 54.9197 299.205 54.8407 299.203 54.7578C299.203 54.6744 299.237 54.5944 299.298 54.5355C299.359 54.4765 299.441 54.4434 299.527 54.4434H309.136C309.221 54.4434 309.304 54.4765 309.364 54.5355C309.425 54.5944 309.459 54.6744 309.459 54.7578C309.457 54.8407 309.423 54.9197 309.362 54.9784C309.302 55.037 309.221 55.0706 309.136 55.0723Z" fill="white"/>
<path d="M265.259 185.247H201.847C201.761 185.247 201.679 185.214 201.618 185.155C201.558 185.096 201.523 185.016 201.523 184.932C201.523 184.849 201.558 184.769 201.618 184.71C201.679 184.651 201.761 184.618 201.847 184.618H265.259C265.345 184.618 265.427 184.651 265.488 184.71C265.548 184.769 265.582 184.849 265.582 184.932C265.581 185.015 265.546 185.094 265.486 185.153C265.426 185.212 265.344 185.245 265.259 185.247Z" fill="black"/>
<path d="M344.733 68.105L344.447 67.7025C344.363 67.5721 344.206 67.4899 344.015 67.4842C343.842 67.4842 343.679 67.5607 343.589 67.6798L343.475 67.83L342.948 66.9116C342.785 66.6564 342.35 66.5969 342.103 66.8322L340.731 68.2468C340.241 68.7372 339.973 69.358 339.973 69.9958C339.973 70.1064 339.991 70.2396 340.037 70.4352C340.047 70.4692 340.056 70.5061 340.068 70.5458L340.084 70.611C340.367 71.5776 341.379 72.275 342.615 72.3459H342.634C343.901 72.3459 345.029 71.6202 345.31 70.6223C345.325 70.5826 345.335 70.5429 345.347 70.5033C345.353 70.4806 345.359 70.4579 345.372 70.4154C345.409 70.2453 345.424 70.1177 345.424 70.0157V69.9788C345.424 69.3212 345.069 68.5784 344.733 68.105ZM343.522 71.1893C343.515 71.2091 343.509 71.229 343.503 71.2516L343.497 71.2771C343.435 71.4898 343.256 71.6684 343.007 71.7676C342.889 71.8158 342.766 71.8413 342.637 71.8498H342.624C342.529 71.8498 342.421 71.8186 342.294 71.7676C342.048 71.6684 341.869 71.4898 341.798 71.2516C341.792 71.229 341.789 71.2063 341.786 71.2034C341.773 71.1439 341.764 71.1014 341.764 71.073C341.764 70.8548 341.86 70.6422 342.029 70.4721L342.652 69.8314L343.275 70.4749C343.444 70.6422 343.537 70.8548 343.537 71.073C343.537 71.1014 343.531 71.1467 343.522 71.1893Z" fill="#F35A05"/>
<path d="M352.132 68.105L351.845 67.7025C351.762 67.5721 351.605 67.4899 351.413 67.4842C351.241 67.4842 351.077 67.5607 350.988 67.6798L350.874 67.83L350.347 66.9116C350.183 66.6564 349.748 66.5969 349.502 66.8322L348.13 68.2468C347.639 68.7372 347.371 69.358 347.371 69.9958C347.371 70.1064 347.39 70.2396 347.436 70.4352C347.445 70.4692 347.454 70.5061 347.467 70.5458L347.482 70.611C347.766 71.5776 348.777 72.275 350.014 72.3459H350.032C351.299 72.3459 352.428 71.6202 352.708 70.6223C352.724 70.5826 352.733 70.5429 352.745 70.5033C352.752 70.4806 352.758 70.4579 352.77 70.4154C352.807 70.2453 352.822 70.1177 352.822 70.0157V69.9788C352.822 69.3212 352.468 68.5784 352.132 68.105ZM350.92 71.1893C350.914 71.2091 350.908 71.229 350.902 71.2516L350.895 71.2771C350.834 71.4898 350.655 71.6684 350.405 71.7676C350.288 71.8158 350.165 71.8413 350.035 71.8498H350.023C349.927 71.8498 349.819 71.8186 349.693 71.7676C349.446 71.6684 349.267 71.4898 349.196 71.2516C349.19 71.229 349.187 71.2063 349.184 71.2034C349.172 71.1439 349.163 71.1014 349.163 71.073C349.163 70.8548 349.258 70.6422 349.428 70.4721L350.051 69.8314L350.673 70.4749C350.843 70.6422 350.935 70.8548 350.935 71.073C350.935 71.1014 350.929 71.1467 350.92 71.1893Z" fill="#F35A05"/>
<path d="M359.53 68.105L359.243 67.7025C359.16 67.5721 359.003 67.4899 358.812 67.4842C358.639 67.4842 358.476 67.5607 358.386 67.6798L358.272 67.83L357.745 66.9116C357.582 66.6564 357.147 66.5969 356.9 66.8322L355.528 68.2468C355.038 68.7372 354.77 69.358 354.77 69.9958C354.77 70.1064 354.788 70.2396 354.834 70.4352C354.844 70.4692 354.853 70.5061 354.865 70.5458L354.881 70.611C355.164 71.5776 356.176 72.275 357.412 72.3459H357.43C358.698 72.3459 359.826 71.6202 360.107 70.6223C360.122 70.5826 360.131 70.5429 360.144 70.5033C360.15 70.4806 360.156 70.4579 360.168 70.4154C360.205 70.2453 360.221 70.1177 360.221 70.0157V69.9788C360.221 69.3212 359.866 68.5784 359.53 68.105ZM358.318 71.1893C358.312 71.2091 358.306 71.229 358.3 71.2516L358.294 71.2771C358.232 71.4898 358.053 71.6684 357.804 71.7676C357.686 71.8158 357.563 71.8413 357.434 71.8498H357.421C357.326 71.8498 357.218 71.8186 357.091 71.7676C356.845 71.6684 356.666 71.4898 356.595 71.2516C356.589 71.229 356.586 71.2063 356.583 71.2034C356.57 71.1439 356.561 71.1014 356.561 71.073C356.561 70.8548 356.657 70.6422 356.826 70.4721L357.449 69.8314L358.072 70.4749C358.241 70.6422 358.334 70.8548 358.334 71.073C358.334 71.1014 358.328 71.1467 358.318 71.1893Z" fill="#F35A05"/>
<path d="M366.936 68.105L366.65 67.7025C366.566 67.5721 366.409 67.4899 366.218 67.4842C366.045 67.4842 365.882 67.5607 365.793 67.6798L365.678 67.83L365.151 66.9116C364.988 66.6564 364.553 66.5969 364.306 66.8322L362.934 68.2468C362.444 68.7372 362.176 69.358 362.176 69.9958C362.176 70.1064 362.194 70.2396 362.241 70.4352C362.25 70.4692 362.259 70.5061 362.271 70.5458L362.287 70.611C362.57 71.5776 363.582 72.275 364.818 72.3459H364.837C366.104 72.3459 367.232 71.6202 367.513 70.6223C367.528 70.5826 367.538 70.5429 367.55 70.5033C367.556 70.4806 367.562 70.4579 367.575 70.4154C367.612 70.2453 367.627 70.1177 367.627 70.0157V69.9788C367.627 69.3212 367.273 68.5784 366.936 68.105ZM365.725 71.1893C365.719 71.2091 365.712 71.229 365.706 71.2516L365.7 71.2771C365.638 71.4898 365.46 71.6684 365.21 71.7676C365.093 71.8158 364.969 71.8413 364.84 71.8498H364.827C364.732 71.8498 364.624 71.8186 364.498 71.7676C364.251 71.6684 364.072 71.4898 364.001 71.2516C363.995 71.229 363.992 71.2063 363.989 71.2034C363.976 71.1439 363.967 71.1014 363.967 71.073C363.967 70.8548 364.063 70.6422 364.232 70.4721L364.855 69.8314L365.478 70.4749C365.648 70.6422 365.74 70.8548 365.74 71.073C365.74 71.1014 365.734 71.1467 365.725 71.1893Z" fill="#F35A05"/>
<path d="M374.335 68.105L374.048 67.7025C373.965 67.5721 373.808 67.4899 373.616 67.4842C373.444 67.4842 373.28 67.5607 373.191 67.6798L373.077 67.83L372.55 66.9116C372.386 66.6564 371.951 66.5969 371.705 66.8322L370.333 68.2468C369.842 68.7372 369.574 69.358 369.574 69.9958C369.574 70.1064 369.593 70.2396 369.639 70.4352C369.648 70.4692 369.657 70.5061 369.67 70.5458L369.685 70.611C369.969 71.5776 370.98 72.275 372.217 72.3459H372.235C373.502 72.3459 374.631 71.6202 374.911 70.6223C374.927 70.5826 374.936 70.5429 374.948 70.5033C374.955 70.4806 374.961 70.4579 374.973 70.4154C375.01 70.2453 375.026 70.1177 375.026 70.0157V69.9788C375.026 69.3212 374.671 68.5784 374.335 68.105ZM373.123 71.1893C373.117 71.2091 373.111 71.229 373.105 71.2516L373.098 71.2771C373.037 71.4898 372.858 71.6684 372.608 71.7676C372.491 71.8158 372.368 71.8413 372.238 71.8498H372.226C372.13 71.8498 372.022 71.8186 371.896 71.7676C371.649 71.6684 371.47 71.4898 371.4 71.2516C371.393 71.229 371.39 71.2063 371.387 71.2034C371.375 71.1439 371.366 71.1014 371.366 71.073C371.366 70.8548 371.461 70.6422 371.631 70.4721L372.254 69.8314L372.876 70.4749C373.046 70.6422 373.139 70.8548 373.139 71.073C373.139 71.1014 373.132 71.1467 373.123 71.1893Z" fill="#F35A05"/>
<path d="M265.259 199.712H211.663C211.578 199.712 211.495 199.679 211.435 199.62C211.374 199.561 211.34 199.481 211.34 199.398C211.34 199.314 211.374 199.234 211.435 199.175C211.495 199.116 211.578 199.083 211.663 199.083H265.259C265.345 199.083 265.428 199.116 265.488 199.175C265.549 199.234 265.583 199.314 265.583 199.398C265.583 199.481 265.549 199.561 265.488 199.62C265.428 199.679 265.345 199.712 265.259 199.712Z" fill="black"/>
<path d="M265.255 192.937H226.257C226.171 192.937 226.089 192.904 226.028 192.845C225.968 192.786 225.934 192.706 225.934 192.623C225.934 192.539 225.968 192.459 226.028 192.4C226.089 192.341 226.171 192.308 226.257 192.308H265.255C265.341 192.308 265.424 192.341 265.484 192.4C265.545 192.459 265.579 192.539 265.579 192.623C265.577 192.706 265.543 192.785 265.482 192.843C265.422 192.902 265.341 192.936 265.255 192.937Z" fill="black"/>
<path d="M221.397 192.937H201.824C201.738 192.937 201.655 192.904 201.595 192.845C201.534 192.786 201.5 192.706 201.5 192.623C201.5 192.539 201.534 192.459 201.595 192.4C201.655 192.341 201.738 192.308 201.824 192.308H221.397C221.483 192.308 221.565 192.341 221.626 192.4C221.687 192.459 221.721 192.539 221.721 192.623C221.719 192.706 221.684 192.785 221.624 192.843C221.564 192.902 221.482 192.936 221.397 192.937Z" fill="black"/>
<path d="M193.513 208.195H130.101C130.016 208.194 129.934 208.16 129.874 208.101C129.814 208.043 129.779 207.964 129.777 207.881C129.777 207.797 129.811 207.717 129.872 207.659C129.933 207.6 130.015 207.566 130.101 207.566H193.513C193.599 207.566 193.681 207.6 193.742 207.659C193.802 207.717 193.836 207.797 193.836 207.881C193.835 207.964 193.8 208.043 193.74 208.101C193.679 208.16 193.598 208.194 193.513 208.195Z" fill="black"/>
<path d="M183.673 222.661H130.077C129.992 222.659 129.911 222.625 129.85 222.567C129.79 222.508 129.756 222.429 129.754 222.346C129.754 222.263 129.788 222.183 129.849 222.124C129.909 222.065 129.992 222.032 130.077 222.032H183.673C183.759 222.032 183.842 222.065 183.902 222.124C183.963 222.183 183.997 222.263 183.997 222.346C183.995 222.429 183.961 222.508 183.9 222.567C183.84 222.625 183.759 222.659 183.673 222.661Z" fill="black"/>
<path d="M169.076 215.886H130.077C129.992 215.885 129.911 215.851 129.85 215.792C129.79 215.734 129.756 215.655 129.754 215.572C129.754 215.488 129.788 215.408 129.849 215.349C129.909 215.29 129.992 215.257 130.077 215.257H169.076C169.162 215.257 169.244 215.29 169.305 215.349C169.365 215.408 169.399 215.488 169.399 215.572C169.399 215.655 169.365 215.735 169.305 215.794C169.244 215.853 169.162 215.886 169.076 215.886Z" fill="black"/>
<path d="M193.51 215.886H173.937C173.851 215.886 173.769 215.853 173.708 215.794C173.647 215.735 173.613 215.655 173.613 215.572C173.613 215.488 173.647 215.408 173.708 215.349C173.769 215.29 173.851 215.257 173.937 215.257H193.51C193.596 215.257 193.678 215.29 193.739 215.349C193.8 215.408 193.834 215.488 193.834 215.572C193.832 215.655 193.798 215.734 193.737 215.792C193.677 215.851 193.596 215.885 193.51 215.886Z" fill="black"/>
<path d="M241.336 149.764V149.689L250.706 118.018H250.667C251.561 116.397 252.847 115.012 254.414 113.98C255.572 113.157 256.551 112.118 257.293 110.924C258.035 109.73 258.525 108.404 258.736 107.025C260.8 105.088 263.123 103.427 265.207 101.534C265.446 101.358 265.624 101.114 265.718 100.836C265.755 100.51 265.66 100.183 265.452 99.9245C264.365 98.3585 262.366 98.1321 260.703 98.8554C259.742 99.3007 258.848 99.8697 258.044 100.547C257.283 101.058 256.578 101.644 255.941 102.295L263.388 86.8309C264.035 85.4599 263.621 83.8939 262.431 83.3531C262.133 83.2239 261.81 83.1603 261.485 83.1669C261.159 83.1734 260.839 83.2499 260.548 83.3908C260.143 83.578 259.787 83.8509 259.506 84.1895L259.545 84.0134C250.816 76.8754 240.049 101.157 240.049 101.157L236.995 108.163L211.073 154.877C210.203 156.486 209.674 158.247 209.518 160.058C209.361 161.868 209.58 163.691 210.162 165.417C210.744 167.144 211.676 168.74 212.904 170.11C214.132 171.479 215.631 172.596 217.311 173.392L217.622 173.53C219.768 174.736 222.203 175.369 224.681 175.367H275.695L286.695 149.972L241.336 149.764Z" fill="white" stroke="black"/>
<path d="M254.991 59.6731C259.689 58.6855 264.42 57.8141 269.184 57.0588C266.162 54.5928 263.141 52.118 260.03 49.6257C258.012 52.9632 256.031 56.353 254.991 59.6731Z" fill="white"/>
<path d="M18.2838 117.661C22.9818 116.673 27.7128 115.802 32.4766 115.047C29.4551 112.581 26.4336 110.106 23.3225 107.614C21.3052 110.951 19.3238 114.341 18.2838 117.661Z" fill="white"/>
<path d="M254.988 60.1523H255.087C259.758 59.1414 264.528 58.2439 269.253 57.4771C269.339 57.4623 269.419 57.4242 269.484 57.3672C269.549 57.3102 269.597 57.2365 269.621 57.1546C269.644 57.0716 269.642 56.9837 269.615 56.9017C269.588 56.8197 269.537 56.7471 269.468 56.6928C266.518 54.2703 263.461 51.7693 260.359 49.2858C260.308 49.2434 260.247 49.2127 260.182 49.1961C260.117 49.1795 260.048 49.1774 259.982 49.19C259.854 49.2187 259.742 49.2934 259.669 49.3991C257.499 53.0329 255.616 56.3007 254.585 59.6207C254.562 59.6941 254.559 59.772 254.576 59.8468C254.594 59.9216 254.631 59.9908 254.684 60.0477C254.769 60.1175 254.877 60.1547 254.988 60.1523ZM268.132 56.7451C263.972 57.4422 259.785 58.2352 255.661 59.1066C256.864 56.03 258.365 53.0714 260.144 50.2705C262.86 52.4403 265.532 54.6188 268.132 56.7451Z" fill="#07040C"/>
<path d="M18.2814 118.14H18.38C23.0512 117.129 27.8209 116.232 32.5459 115.465C32.6321 115.45 32.7124 115.412 32.7774 115.355C32.8424 115.298 32.8896 115.225 32.9135 115.143C32.9369 115.06 32.9349 114.972 32.9078 114.89C32.8808 114.808 32.8298 114.735 32.7611 114.681C29.8114 112.258 26.754 109.757 23.6519 107.274C23.6006 107.231 23.54 107.201 23.4749 107.184C23.4097 107.168 23.3415 107.165 23.2753 107.178C23.1473 107.207 23.0352 107.281 22.9615 107.387C20.7918 111.021 18.909 114.289 17.8779 117.609C17.8551 117.682 17.8521 117.76 17.8694 117.835C17.8867 117.91 17.9236 117.979 17.9765 118.036C18.0617 118.106 18.1701 118.143 18.2814 118.14ZM31.4252 114.733C27.2651 115.43 23.0781 116.223 18.9538 117.095C20.1571 114.018 21.6581 111.059 23.4367 108.259C26.1533 110.428 28.8251 112.607 31.4252 114.733Z" fill="#07040C"/>
<path d="M64.2263 38.2575C65.3069 38.2575 66.183 37.406 66.183 36.3557C66.183 35.3053 65.3069 34.4539 64.2263 34.4539C63.1456 34.4539 62.2695 35.3053 62.2695 36.3557C62.2695 37.406 63.1456 38.2575 64.2263 38.2575Z" fill="white"/>
<path d="M265.265 4.79554C266.346 4.79554 267.222 3.94408 267.222 2.89374C267.222 1.84341 266.346 0.991943 265.265 0.991943C264.185 0.991943 263.309 1.84341 263.309 2.89374C263.309 3.94408 264.185 4.79554 265.265 4.79554Z" fill="white"/>
<path d="M64.2709 38.5828C63.8151 38.5846 63.369 38.4547 62.9892 38.2096C62.6094 37.9645 62.3131 37.6154 62.1378 37.2064C61.9625 36.7974 61.9162 36.347 62.0047 35.9123C62.0932 35.4777 62.3125 35.0784 62.6349 34.7651C62.9572 34.4518 63.368 34.2387 63.8152 34.1527C64.2624 34.0666 64.7258 34.1117 65.1466 34.282C65.5674 34.4524 65.9267 34.7404 66.1788 35.1095C66.431 35.4786 66.5646 35.9122 66.5628 36.3553C66.5605 36.9453 66.3182 37.5106 65.8889 37.9278C65.4596 38.3451 64.8781 38.5805 64.2709 38.5828ZM64.2709 34.7792C63.9498 34.7775 63.6354 34.8684 63.3676 35.0406C63.0997 35.2127 62.8905 35.4582 62.7664 35.746C62.6423 36.0338 62.6088 36.351 62.6704 36.6573C62.7319 36.9636 62.8856 37.2452 63.1121 37.4665C63.3385 37.6878 63.6274 37.8388 63.9422 37.9003C64.257 37.9619 64.5835 37.9312 64.8803 37.8122C65.1771 37.6931 65.4309 37.4911 65.6095 37.2318C65.7881 36.9724 65.8834 36.6674 65.8834 36.3553C65.8834 35.9388 65.7138 35.5393 65.4117 35.2439C65.1095 34.9486 64.6994 34.7816 64.2709 34.7792Z" fill="#07040C"/>
<path d="M265.31 5.12141C264.854 5.12315 264.408 4.99325 264.028 4.74818C263.648 4.50312 263.352 4.15394 263.177 3.74494C263.002 3.33594 262.955 2.88555 263.044 2.45091C263.132 2.01628 263.352 1.617 263.674 1.3037C263.996 0.990413 264.407 0.777236 264.854 0.691226C265.301 0.605216 265.765 0.650247 266.186 0.820603C266.606 0.990959 266.966 1.27896 267.218 1.64808C267.47 2.01719 267.604 2.45079 267.602 2.89384C267.6 3.48392 267.357 4.04916 266.928 4.46641C266.499 4.88366 265.917 5.11909 265.31 5.12141ZM265.31 1.31781C264.989 1.31607 264.674 1.40702 264.407 1.57913C264.139 1.75124 263.93 1.99677 263.805 2.28459C263.681 2.57241 263.648 2.88958 263.709 3.19587C263.771 3.50217 263.925 3.78381 264.151 4.0051C264.378 4.2264 264.666 4.37738 264.981 4.43891C265.296 4.50044 265.623 4.46975 265.919 4.35073C266.216 4.2317 266.47 4.02971 266.649 3.77034C266.827 3.51098 266.922 3.20593 266.922 2.89384C266.922 2.47738 266.753 2.07783 266.451 1.78252C266.149 1.48721 265.738 1.32014 265.31 1.31781Z" fill="#07040C"/>
<path d="M121.693 7.88135L123.196 12.6094H128.061L124.129 15.5326L125.633 20.2606L121.693 17.3375L117.761 20.2606L119.265 15.5326L115.324 12.6094H120.189L121.693 7.88135Z" fill="white"/>
<path d="M367.767 145.288L369.271 150.016H374.135L370.204 152.939L371.708 157.667L367.767 154.744L363.835 157.667L365.339 152.939L361.398 150.016H366.263L367.767 145.288Z" fill="white"/>
<path d="M125.644 20.0573C125.568 20.0554 125.495 20.0308 125.435 19.9868L121.703 17.2134L117.98 19.9868C117.92 20.0277 117.849 20.0497 117.776 20.0497C117.703 20.0497 117.632 20.0277 117.572 19.9868C117.513 19.9467 117.468 19.889 117.446 19.8224C117.423 19.7557 117.423 19.6837 117.445 19.617L118.877 15.1091L115.126 12.3268C115.072 12.2827 115.033 12.224 115.014 12.1581C114.994 12.0922 114.996 12.0221 115.017 11.957C115.04 11.8928 115.083 11.837 115.14 11.7976C115.197 11.7581 115.265 11.7369 115.335 11.7369H119.955L121.377 7.23773C121.398 7.16951 121.441 7.10966 121.5 7.0669C121.559 7.02414 121.63 7.0007 121.703 7C121.776 7.0007 121.847 7.02414 121.906 7.0669C121.965 7.10966 122.008 7.16951 122.029 7.23773L123.46 11.7369H128.071C128.143 11.7343 128.214 11.7542 128.274 11.7938C128.333 11.8334 128.378 11.8905 128.401 11.9567C128.424 12.0228 128.425 12.0945 128.403 12.1612C128.382 12.2279 128.338 12.2859 128.28 12.3268L124.529 15.1091L125.97 19.617C125.99 19.6847 125.988 19.7569 125.963 19.8233C125.939 19.8897 125.894 19.947 125.834 19.9868C125.779 20.0275 125.713 20.0519 125.644 20.0573ZM121.703 16.4738C121.777 16.4725 121.85 16.494 121.911 16.5354L125 18.8334L123.832 15.0474C123.812 14.9827 123.812 14.9136 123.833 14.8492C123.854 14.7847 123.895 14.728 123.95 14.6864L127.093 12.362H123.198C123.124 12.3613 123.053 12.3379 122.995 12.2951C122.936 12.2524 122.893 12.1925 122.872 12.1243L121.694 8.41754L120.516 12.1243C120.496 12.1932 120.454 12.2539 120.395 12.2969C120.336 12.3399 120.264 12.3627 120.19 12.362H116.331L119.475 14.6864C119.527 14.7295 119.567 14.7863 119.588 14.8502C119.608 14.9142 119.61 14.9826 119.592 15.0474L118.396 18.7894L121.495 16.4914C121.552 16.4489 121.622 16.4271 121.694 16.4297L121.703 16.4738Z" fill="#07040C"/>
<path d="M371.714 158.045C371.639 158.043 371.566 158.019 371.506 157.975L367.773 155.201L364.05 157.975C363.99 158.016 363.919 158.038 363.846 158.038C363.773 158.038 363.702 158.016 363.642 157.975C363.583 157.935 363.539 157.877 363.516 157.81C363.493 157.744 363.493 157.672 363.516 157.605L364.947 153.097L361.197 150.315C361.143 150.271 361.103 150.212 361.084 150.146C361.065 150.08 361.066 150.01 361.088 149.945C361.11 149.881 361.153 149.825 361.21 149.786C361.267 149.746 361.335 149.725 361.405 149.725H366.025L367.447 145.226C367.468 145.158 367.512 145.098 367.57 145.055C367.629 145.012 367.7 144.989 367.773 144.988C367.847 144.989 367.918 145.012 367.976 145.055C368.035 145.098 368.078 145.158 368.099 145.226L369.531 149.725H374.142C374.214 149.722 374.285 149.742 374.344 149.782C374.403 149.821 374.448 149.879 374.471 149.945C374.495 150.011 374.495 150.083 374.474 150.149C374.452 150.216 374.408 150.274 374.35 150.315L370.6 153.097L372.04 157.605C372.06 157.673 372.058 157.745 372.034 157.811C372.009 157.878 371.964 157.935 371.904 157.975C371.849 158.016 371.783 158.04 371.714 158.045ZM367.773 154.462C367.848 154.461 367.921 154.482 367.982 154.523L371.071 156.821L369.902 153.035C369.882 152.971 369.882 152.902 369.903 152.837C369.924 152.773 369.965 152.716 370.02 152.674L373.163 150.35H369.268C369.195 150.349 369.124 150.326 369.065 150.283C369.006 150.24 368.963 150.181 368.942 150.112L367.764 146.406L366.587 150.112C366.567 150.181 366.524 150.242 366.465 150.285C366.406 150.328 366.334 150.351 366.26 150.35H362.401L365.545 152.674C365.598 152.717 365.637 152.774 365.658 152.838C365.679 152.902 365.68 152.971 365.663 153.035L364.467 156.777L367.565 154.479C367.622 154.437 367.692 154.415 367.764 154.418L367.773 154.462Z" fill="#07040C"/>
<path opacity="0.13" d="M241.354 149.689L239.872 154.72C239.484 156.116 239.044 157.613 238.578 159.122L236.786 165.191C236.543 165.952 236.231 166.691 235.854 167.398C234.314 171.889 233.039 175.335 233.039 175.335L251.383 149.802C246.802 149.802 245.76 149.695 241.354 149.689Z" fill="black"/>
<path d="M248.745 103.848C248.685 103.848 248.626 103.832 248.575 103.801C248.524 103.771 248.483 103.727 248.456 103.675C248.429 103.622 248.418 103.564 248.423 103.506C248.429 103.448 248.451 103.392 248.487 103.345C249.292 102.156 250.522 101.299 251.939 100.939C253.356 100.579 254.86 100.742 256.161 101.396C256.23 101.439 256.281 101.507 256.301 101.585C256.321 101.663 256.309 101.745 256.269 101.815C256.228 101.885 256.161 101.938 256.082 101.961C256.003 101.985 255.918 101.978 255.844 101.943C255.682 101.861 251.916 99.8801 249.004 103.716C248.975 103.757 248.936 103.79 248.891 103.813C248.846 103.836 248.796 103.848 248.745 103.848Z" fill="black"/>
<path d="M259.746 84.1017C258.395 85.7464 257.157 87.4753 256.039 89.2775C255.488 90.1766 254.997 91.1093 254.57 92.0698C254.118 92.9825 253.882 93.9815 253.878 94.9942C253.88 95.0354 253.874 95.0768 253.86 95.1159C253.846 95.155 253.825 95.1911 253.797 95.222C253.768 95.253 253.734 95.2782 253.696 95.2963C253.657 95.3144 253.616 95.325 253.573 95.3275C253.531 95.3299 253.488 95.3243 253.448 95.3108C253.408 95.2972 253.371 95.2762 253.339 95.2487C253.307 95.2213 253.281 95.188 253.263 95.1508C253.244 95.1136 253.233 95.0732 253.23 95.0319C253.249 93.9221 253.523 92.8304 254.033 91.8371C254.493 90.8647 255.016 89.9215 255.599 89.0134C256.765 87.2146 258.051 85.492 259.449 83.8564C259.466 83.8385 259.487 83.8243 259.511 83.8146C259.534 83.8048 259.559 83.7998 259.585 83.7998C259.61 83.7998 259.635 83.8048 259.659 83.8146C259.682 83.8243 259.703 83.8385 259.72 83.8564C259.739 83.8729 259.753 83.8928 259.763 83.915C259.773 83.9372 259.778 83.9611 259.778 83.9853C259.778 84.0095 259.773 84.0335 259.763 84.0556C259.753 84.0778 259.739 84.0978 259.72 84.1143L259.746 84.1017Z" fill="black"/>
<path d="M257.488 83.2028C256.629 83.8068 255.854 84.5172 255.184 85.3159C254.503 86.1145 253.89 86.9664 253.353 87.8629C252.82 88.7649 252.353 89.7021 251.955 90.6678C251.742 91.1458 251.586 91.6426 251.399 92.1269L250.933 93.6236C250.921 93.6649 250.901 93.7035 250.874 93.7373C250.846 93.771 250.813 93.7992 250.774 93.8202C250.736 93.8412 250.693 93.8547 250.65 93.8598C250.606 93.8649 250.561 93.8616 250.519 93.85C250.476 93.8385 250.437 93.8189 250.402 93.7924C250.367 93.7659 250.338 93.733 250.317 93.6957C250.295 93.6583 250.281 93.6171 250.276 93.5746C250.271 93.532 250.274 93.4888 250.286 93.4475L250.791 91.9256C250.991 91.4351 251.159 90.9257 251.386 90.4414C251.813 89.4612 252.31 88.5114 252.874 87.5988C253.447 86.6866 254.096 85.8221 254.815 85.014C255.528 84.1936 256.35 83.4701 257.261 82.8632C257.305 82.8381 257.357 82.8301 257.407 82.8408C257.456 82.8515 257.5 82.8801 257.529 82.9208C257.557 82.9615 257.569 83.0114 257.561 83.0602C257.554 83.1091 257.528 83.1533 257.488 83.184V83.2028Z" fill="black"/>
<path d="M253.96 83.4404C252.715 84.7014 251.583 86.0626 250.575 87.5094C250.075 88.2281 249.627 88.9804 249.236 89.7608C248.851 90.5253 248.576 91.338 248.421 92.1758C248.407 92.2592 248.36 92.3338 248.289 92.3834C248.219 92.4329 248.131 92.4532 248.045 92.4399C247.96 92.4266 247.883 92.3806 247.832 92.3122C247.781 92.2438 247.76 92.1585 247.774 92.0751C247.961 91.1814 248.277 90.3176 248.712 89.5092C249.13 88.7153 249.608 87.9523 250.142 87.2264C251.201 85.7794 252.388 84.4243 253.688 83.1763C253.705 83.1586 253.725 83.1444 253.748 83.1348C253.771 83.1251 253.796 83.1201 253.82 83.1201C253.845 83.1201 253.87 83.1251 253.893 83.1348C253.916 83.1444 253.936 83.1586 253.953 83.1763C253.988 83.2105 254.008 83.2568 254.008 83.3052C254.008 83.3535 253.988 83.3999 253.953 83.4341L253.96 83.4404Z" fill="black"/>
<path d="M357.805 196.045C358.45 195.968 358.852 195.306 358.622 194.699L346.588 162.819C346.569 162.77 346.554 162.718 346.543 162.667C345.02 155.429 337.923 149.953 329.386 149.953L294.445 149.683L256.055 149.824C255.504 149.826 255.059 150.273 255.059 150.824V174.348C255.059 174.9 255.506 175.348 256.059 175.348H266.182C266.772 175.348 267.233 175.855 267.178 176.442L261.076 240.809C261.02 241.394 261.479 241.9 262.066 241.904L346.662 242.37C347.221 242.373 347.674 241.918 347.668 241.359L347.203 198.206C347.198 197.696 347.578 197.263 348.085 197.203L357.805 196.045Z" fill="#F35A05" stroke="black"/>
<path opacity="0.05" d="M294.366 149.984L294.437 149.701L255.051 149.846V175.367H267.274L267.338 174.694C267.338 161.191 279.387 150.249 294.366 149.984Z" fill="#1B1B25"/>
<path opacity="0.13" d="M244.59 113.03C244.59 113.03 246.803 131.268 246.932 130.834L250.724 118.017L244.59 113.03Z" fill="black"/>
<path d="M296.212 205.409L292.906 189.196L290.318 176.687C290.171 175.978 289.741 175.355 289.123 174.953C288.505 174.551 287.748 174.404 287.018 174.542L274.271 177.027C273.541 177.169 272.9 177.587 272.487 178.188C272.073 178.789 271.921 179.524 272.064 180.234L274.652 192.812L276.671 202.811L277.927 208.956C278.073 209.664 278.503 210.288 279.121 210.69C279.74 211.091 280.497 211.239 281.227 211.1L288.771 209.641L294.006 208.635C294.738 208.491 295.382 208.07 295.796 207.465C296.209 206.86 296.359 206.121 296.212 205.409Z" fill="white" stroke="black" stroke-linejoin="round"/>
<path d="M364.258 220.351L358.493 195.95L332.28 199.095L333.723 205.302L333.587 205.271L305.117 198.416C303.67 197.668 302.444 196.573 301.558 195.233C300.834 194.211 299.883 193.36 298.776 192.743C297.668 192.125 296.432 191.758 295.158 191.668C294.382 190.881 293.664 190.039 292.952 189.19L293.599 192.46L293.431 192.548C291.62 193.48 289.573 193.893 287.529 193.737L275.002 192.787C274.619 192.756 274.236 192.839 273.902 193.024C273.568 193.209 273.3 193.488 273.132 193.825C269.464 201.315 285.207 208.17 288.798 209.616L288.927 209.667L289.076 209.729L289.212 209.78L289.322 209.824L289.432 209.868H289.471H289.529L295.689 212.107L344.438 235.514C344.886 235.725 345.346 235.91 345.817 236.068C348.26 237.166 351.01 237.442 353.633 236.854C355.447 236.45 357.161 235.703 358.677 234.655C360.193 233.607 361.481 232.278 362.468 230.745C363.455 229.212 364.121 227.505 364.428 225.722C364.736 223.938 364.678 222.113 364.258 220.351Z" fill="white" stroke="black"/>
<path opacity="0.13" d="M362.402 212.484L332.281 199.07C333.291 203.327 332.702 201.447 333.575 205.246L335.627 205.736C344.31 206.308 362.402 212.484 362.402 212.484Z" fill="black"/>
<path opacity="0.35" d="M329.847 199.385C329.773 199.386 329.701 199.361 329.644 199.315C329.587 199.269 329.549 199.204 329.536 199.133L325.745 181.43C325.728 181.346 325.745 181.26 325.794 181.189C325.842 181.118 325.918 181.069 326.004 181.052C326.089 181.036 326.178 181.053 326.251 181.1C326.324 181.147 326.375 181.221 326.392 181.304L330.093 198.737L342.769 197.165C342.811 197.159 342.855 197.162 342.896 197.174C342.937 197.185 342.976 197.204 343.01 197.229C343.043 197.255 343.071 197.287 343.092 197.324C343.113 197.36 343.126 197.4 343.131 197.441C343.14 197.525 343.116 197.608 343.063 197.674C343.009 197.74 342.932 197.783 342.847 197.794L329.905 199.397L329.847 199.385Z" fill="#1B1B25"/>
<path opacity="0.17" d="M362.629 213.505L362.681 213.758L362.629 213.505Z" fill="#FF887C"/>
<path opacity="0.17" d="M362.402 212.484C362.402 212.484 362.467 212.83 362.538 213.157C362.499 212.981 362.454 212.767 362.402 212.484Z" fill="#FF887C"/>
<path opacity="0.17" d="M362.539 213.157L362.604 213.493C362.585 213.398 362.565 213.277 362.539 213.157Z" fill="#FF887C"/>
<path d="M326.884 84.2589C326.645 82.6321 325.997 81.0876 324.999 79.7615C324 78.4353 322.682 77.3682 321.159 76.6543C319.636 75.9403 317.956 75.6014 316.266 75.6674C314.577 75.7335 312.93 76.2024 311.471 77.0328C310.766 75.897 309.806 74.9307 308.662 74.2062C307.519 73.4817 306.221 73.0178 304.868 72.8491C303.514 72.6804 302.138 72.8112 300.843 73.2318C299.549 73.6525 298.369 74.352 297.391 75.2782C294.788 74.0114 291.799 73.7091 288.983 74.4278C286.167 75.1465 283.717 76.837 282.089 79.1834C280.462 81.5299 279.77 84.3719 280.141 87.1785C280.512 89.9851 281.922 92.5644 284.107 94.4344L281.674 107.088C281.508 107.951 281.518 108.838 281.704 109.698C281.89 110.558 282.249 111.373 282.76 112.098C283.271 112.823 283.923 113.443 284.681 113.922C285.438 114.402 286.286 114.731 287.174 114.892L316.04 120.156C317.834 120.482 319.687 120.101 321.193 119.099C322.699 118.097 323.733 116.554 324.07 114.811L328.806 90.2397C329.014 89.166 328.947 88.0592 328.612 87.0164C328.277 85.9736 327.684 85.0267 326.884 84.2589Z" fill="black" stroke="black"/>
<path d="M284.8 91.1771C284.745 91.1775 284.69 91.1645 284.642 91.1392C284.593 91.1139 284.552 91.0772 284.522 91.0324C279.345 83.0958 286.463 78.0143 286.547 77.964C286.581 77.9397 286.619 77.9222 286.66 77.9126C286.701 77.9029 286.744 77.9012 286.785 77.9077C286.827 77.9141 286.867 77.9285 286.902 77.9501C286.938 77.9716 286.969 77.9999 286.993 78.0332C287.043 78.1012 287.063 78.1851 287.049 78.2673C287.036 78.3494 286.991 78.4233 286.922 78.4734C286.644 78.6621 280.245 83.2719 285.072 90.6928C285.118 90.7629 285.134 90.848 285.115 90.9293C285.097 91.0107 285.047 91.0817 284.975 91.1268C284.923 91.1605 284.862 91.1781 284.8 91.1771Z" fill="white"/>
<path d="M322.216 109.063L321.569 108.949L315.195 95.6295C313.652 95.413 312.179 94.8605 310.886 94.0132C309.492 95.4835 307.555 96.3563 305.5 96.44C303.445 96.5237 301.44 95.8115 299.925 94.4597C297.957 96.1414 295.476 97.1493 292.863 97.3288C290.249 97.5083 287.647 96.8494 285.456 95.4534L281.017 118.502C280.427 121.56 281.011 124.722 282.661 127.389C283.46 129.316 284.726 131.027 286.352 132.376C287.977 133.725 289.915 134.672 291.998 135.137V150.356C292.005 152.904 293.049 155.346 294.903 157.148C296.757 158.95 299.27 159.965 301.892 159.972H305.043C307.665 159.965 310.177 158.95 312.031 157.148C313.885 155.346 314.93 152.904 314.936 150.356V133.074C316.596 131.311 317.717 129.133 318.172 126.785L318.98 122.578L319.628 122.691C321.434 123.005 323.294 122.613 324.805 121.6C326.315 120.587 327.352 119.035 327.69 117.282L327.761 116.911C328.089 115.157 327.69 113.347 326.651 111.877C325.612 110.407 324.018 109.396 322.216 109.063Z" fill="white" stroke="black"/>
<path opacity="0.13" d="M317.49 122.03L316.914 125.03C316.598 126.677 315.95 128.248 315.009 129.652C314.067 131.057 312.85 132.267 311.427 133.214C310.004 134.16 308.403 134.825 306.715 135.17C305.028 135.515 303.287 135.533 301.592 135.224L291.517 133.394C289.688 133.061 287.954 132.353 286.429 131.317C284.903 130.282 283.623 128.942 282.672 127.388C283.504 129.401 284.845 131.178 286.571 132.555C288.297 133.931 290.352 134.862 292.546 135.262L292.947 135.337C293.755 136.969 295.019 138.347 296.595 139.314C298.17 140.28 299.994 140.796 301.857 140.802H305.041C307.271 140.795 309.433 140.057 311.179 138.709C312.925 137.36 314.152 135.479 314.663 133.369C316.478 131.555 317.7 129.259 318.176 126.772L318.985 122.564L317.49 122.03Z" fill="black"/>
<path d="M322.771 118.093C322.698 118.092 322.627 118.068 322.57 118.024L320.053 116.137C320.015 116.111 319.984 116.076 319.962 116.035C319.941 115.995 319.93 115.95 319.93 115.904C319.928 115.859 319.935 115.814 319.952 115.772C319.969 115.73 319.994 115.691 320.027 115.659L323.133 112.81C323.195 112.752 323.277 112.72 323.363 112.72C323.448 112.72 323.531 112.752 323.592 112.81C323.623 112.839 323.647 112.874 323.663 112.913C323.68 112.951 323.688 112.992 323.688 113.033C323.688 113.075 323.68 113.116 323.663 113.154C323.647 113.193 323.623 113.227 323.592 113.257L320.758 115.854L322.978 117.527C323.045 117.578 323.089 117.653 323.1 117.735C323.111 117.818 323.088 117.901 323.036 117.967C323.005 118.007 322.965 118.039 322.919 118.061C322.873 118.083 322.822 118.094 322.771 118.093Z" fill="black"/>
<path d="M306.758 106.389C306.23 106.308 305.726 106.121 305.276 105.842C304.778 105.578 304.266 105.326 303.82 105.125C303.373 104.924 302.849 104.704 302.319 104.496C301.808 104.342 301.336 104.085 300.934 103.741C300.623 103.408 300.688 102.886 301.413 102.534C301.993 102.328 302.612 102.242 303.228 102.284C303.845 102.325 304.445 102.491 304.991 102.773C305.563 102.995 306.078 103.335 306.501 103.769C306.925 104.203 307.246 104.722 307.444 105.288C307.631 106.031 307.224 106.408 306.758 106.389Z" fill="#1B1B25"/>
<path d="M286.172 104.666C286.665 104.864 287.192 104.968 287.725 104.975C288.288 105.025 288.857 105.088 289.343 105.151C289.828 105.214 290.397 105.314 290.954 105.415C291.468 105.549 292.004 105.588 292.533 105.528C292.973 105.434 293.18 105.019 292.785 104.409C291.979 103.51 290.843 102.953 289.621 102.855C289.033 102.739 288.427 102.737 287.838 102.851C287.249 102.964 286.689 103.19 286.191 103.515C285.628 103.987 285.764 104.453 286.172 104.666Z" fill="#1B1B25"/>
<path d="M302.001 111.77L302.039 111.777C302.475 111.856 302.894 111.577 302.976 111.154L303.168 110.158C303.249 109.735 302.962 109.328 302.527 109.248L302.489 109.241C302.053 109.162 301.634 109.441 301.552 109.864L301.36 110.86C301.279 111.283 301.566 111.691 302.001 111.77Z" fill="#1B1B25"/>
<path d="M288.052 109.575L288.09 109.582C288.526 109.661 288.945 109.382 289.027 108.959L289.218 107.964C289.3 107.54 289.013 107.133 288.578 107.053L288.539 107.047C288.104 106.967 287.684 107.246 287.603 107.67L287.411 108.665C287.329 109.088 287.616 109.496 288.052 109.575Z" fill="#1B1B25"/>
<path opacity="0.13" d="M302.574 115.356L305.442 115.669C305.985 115.729 306.475 115.349 306.536 114.821L306.543 114.765C306.604 114.236 306.213 113.76 305.67 113.701L302.802 113.387C302.258 113.328 301.768 113.708 301.707 114.236L301.701 114.292C301.639 114.82 302.03 115.296 302.574 115.356Z" fill="black"/>
<path opacity="0.13" d="M283.695 112.466L286.563 112.779C287.106 112.839 287.596 112.459 287.658 111.931L287.664 111.874C287.725 111.346 287.334 110.87 286.791 110.811L283.923 110.497C283.379 110.437 282.889 110.817 282.828 111.346L282.822 111.402C282.76 111.93 283.151 112.406 283.695 112.466Z" fill="black"/>
<path d="M292.035 126.715C291.967 126.715 291.9 126.694 291.845 126.656C291.79 126.617 291.749 126.563 291.728 126.5C291.706 126.438 291.705 126.37 291.726 126.307C291.746 126.244 291.786 126.189 291.84 126.149C292.354 125.803 292.963 125.618 293.588 125.618C294.212 125.618 294.822 125.803 295.335 126.149C295.37 126.173 295.399 126.203 295.422 126.239C295.445 126.274 295.46 126.313 295.468 126.354C295.475 126.395 295.474 126.436 295.464 126.477C295.455 126.517 295.437 126.556 295.413 126.589C295.388 126.623 295.357 126.652 295.321 126.674C295.284 126.696 295.244 126.711 295.202 126.718C295.16 126.725 295.117 126.724 295.075 126.715C295.034 126.706 294.994 126.689 294.96 126.665C294.556 126.398 294.079 126.255 293.591 126.255C293.103 126.255 292.626 126.398 292.222 126.665C292.167 126.702 292.101 126.72 292.035 126.715Z" fill="black"/>
<path d="M293.668 119.992C293.615 119.458 293.994 118.978 294.526 118.904L299.564 118.205C300.295 118.104 300.88 118.802 300.652 119.504L300.317 120.539C300.056 121.34 299.538 122.039 298.84 122.533C298.141 123.028 297.298 123.292 296.434 123.288C295.771 123.287 295.132 123.048 294.639 122.618C294.146 122.187 293.834 121.595 293.762 120.954L293.668 119.992Z" fill="white" stroke="black"/>
<path d="M296.174 115.169C296.148 115.175 296.122 115.175 296.096 115.169L293.747 114.578C293.26 114.454 292.809 114.224 292.428 113.905C292.046 113.586 291.745 113.186 291.547 112.736C291.349 112.287 291.26 111.799 291.286 111.31C291.311 110.822 291.452 110.346 291.696 109.918L295.268 103.667C295.31 103.594 295.38 103.541 295.462 103.517C295.544 103.494 295.632 103.502 295.708 103.541C295.782 103.582 295.837 103.65 295.86 103.73C295.883 103.81 295.873 103.896 295.831 103.969L292.259 110.22C292.059 110.565 291.942 110.95 291.92 111.346C291.897 111.742 291.968 112.137 292.127 112.502C292.287 112.866 292.53 113.191 292.839 113.449C293.148 113.708 293.514 113.894 293.909 113.993L296.258 114.591C296.299 114.601 296.338 114.619 296.372 114.644C296.406 114.669 296.435 114.7 296.456 114.735C296.478 114.771 296.492 114.811 296.498 114.852C296.504 114.893 296.501 114.934 296.491 114.974C296.465 115.035 296.421 115.086 296.364 115.121C296.308 115.156 296.241 115.173 296.174 115.169Z" fill="black"/>
<path d="M186.291 160.386L160.369 113.672L157.315 106.66C157.315 106.66 146.548 82.3843 137.819 89.516L137.852 89.6983C137.574 89.3568 137.22 89.0815 136.816 88.8934C136.524 88.7541 136.204 88.6786 135.879 88.672C135.554 88.6655 135.231 88.7282 134.933 88.8556C133.743 89.4028 133.309 90.9687 133.976 92.3397L141.423 107.804C140.786 107.151 140.081 106.563 139.32 106.05C138.518 105.372 137.623 104.805 136.661 104.364C134.998 103.641 132.999 103.867 131.912 105.433C131.807 105.56 131.73 105.707 131.684 105.863C131.639 106.02 131.626 106.184 131.646 106.345C131.741 106.622 131.919 106.865 132.157 107.043C134.267 108.93 136.59 110.59 138.628 112.534C138.839 113.913 139.33 115.238 140.072 116.432C140.814 117.626 141.792 118.665 142.95 119.489C144.515 120.52 145.8 121.903 146.697 123.52L146.658 123.552L156.047 155.298L142.336 155.481V180.869H172.657C175.139 180.87 177.578 180.237 179.729 179.033L180.027 178.901C181.709 178.107 183.21 176.992 184.441 175.623C185.672 174.254 186.607 172.659 187.191 170.932C187.775 169.205 187.997 167.382 187.842 165.57C187.687 163.759 187.16 161.996 186.291 160.386Z" fill="white"/>
<path fill-rule="evenodd" clip-rule="evenodd" d="M157.613 106.534C157.613 106.534 157.613 106.535 157.315 106.659L157.613 106.534L157.614 106.537L160.662 113.535L186.576 160.236L186.291 160.386L186.578 160.24C187.467 161.887 188.007 163.69 188.165 165.544C188.324 167.398 188.097 169.263 187.499 171.03C186.902 172.797 185.945 174.43 184.685 175.83C183.426 177.231 181.89 178.371 180.169 179.184L180.162 179.187L179.878 179.313C177.681 180.54 175.191 181.185 172.657 181.184H142.011V155.17L155.618 154.989L146.295 123.465C145.43 121.98 144.223 120.709 142.768 119.75L142.764 119.746L142.759 119.743C141.566 118.895 140.559 117.824 139.795 116.595C139.05 115.396 138.55 114.068 138.324 112.685C137.337 111.751 136.282 110.88 135.211 110.009C135.074 109.897 134.937 109.785 134.799 109.674C133.84 108.896 132.874 108.111 131.948 107.284C131.665 107.068 131.453 106.777 131.339 106.445L131.328 106.415L131.324 106.384C131.299 106.18 131.315 105.974 131.372 105.777C131.428 105.584 131.523 105.404 131.65 105.247C132.852 103.527 135.035 103.312 136.793 104.076L136.799 104.079C137.783 104.529 138.698 105.109 139.52 105.8C139.829 106.01 140.13 106.231 140.42 106.464L133.683 92.4741C133.682 92.4739 133.683 92.4742 133.683 92.4741C132.962 90.9918 133.399 89.2119 134.795 88.5704L134.933 88.8553L134.803 88.5669C135.144 88.421 135.513 88.3492 135.886 88.3567C136.258 88.3641 136.624 88.4504 136.958 88.6095C137.256 88.7485 137.529 88.9303 137.77 89.148C138.863 88.3024 140.002 87.9088 141.158 87.8897C142.364 87.8696 143.559 88.2577 144.712 88.9137C147.01 90.2214 149.206 92.6323 151.105 95.2307C153.009 97.8362 154.635 100.662 155.785 102.834C156.36 103.92 156.816 104.844 157.129 105.497C157.286 105.824 157.407 106.082 157.488 106.26C157.529 106.349 157.56 106.417 157.581 106.463L157.605 106.516L157.611 106.53L157.612 106.533L157.613 106.534ZM137.996 89.7203L137.597 89.8934C137.35 89.5896 137.035 89.3446 136.676 89.1772L136.673 89.176C136.424 89.057 136.15 88.9924 135.872 88.9869C135.596 88.9813 135.321 89.0343 135.068 89.1421C134.086 89.5966 133.657 90.9468 134.269 92.2048L134.269 92.2058L141.717 107.67L141.188 108.021C140.566 107.383 139.878 106.81 139.135 106.308L139.121 106.298L139.108 106.287C138.328 105.629 137.459 105.079 136.526 104.65C134.962 103.972 133.154 104.207 132.18 105.609L132.173 105.62L132.165 105.63C132.087 105.724 132.03 105.833 131.996 105.949C131.965 106.055 131.955 106.166 131.965 106.275C132.042 106.48 132.177 106.66 132.355 106.793L132.366 106.802L132.377 106.811C133.294 107.631 134.251 108.408 135.214 109.189C135.352 109.301 135.49 109.413 135.628 109.525C136.727 110.419 137.826 111.327 138.855 112.308L138.933 112.382L138.949 112.487C139.154 113.825 139.63 115.111 140.35 116.269C141.069 117.426 142.016 118.432 143.137 119.231C144.743 120.291 146.062 121.71 146.982 123.371L147.108 123.597L147.028 123.662L156.476 155.608L142.66 155.791V180.554H172.657C175.083 180.555 177.466 179.936 179.568 178.76L179.581 178.752L179.885 178.617C179.887 178.617 179.888 178.616 179.889 178.616C181.531 177.84 182.996 176.752 184.197 175.416C185.399 174.079 186.313 172.52 186.883 170.834C187.454 169.147 187.67 167.366 187.519 165.596C187.368 163.827 186.853 162.106 186.004 160.534C186.004 160.534 186.004 160.533 186.003 160.532L160.077 113.808L157.017 106.784L157.017 106.783L157.017 106.782L157.016 106.78L157.01 106.768L156.987 106.717C156.967 106.672 156.936 106.604 156.896 106.517C156.816 106.342 156.697 106.087 156.542 105.763C156.232 105.117 155.779 104.2 155.208 103.122C154.066 100.965 152.455 98.1675 150.576 95.5956C148.692 93.0166 146.56 90.6959 144.384 89.4577C143.3 88.8408 142.222 88.5024 141.169 88.5199C140.169 88.5364 139.165 88.8738 138.171 89.6432L138.171 89.6445L138.167 89.6465C138.12 89.6824 138.074 89.7192 138.028 89.7569L137.996 89.7203Z" fill="black"/>
<path opacity="0.13" d="M164.38 180.87C164.38 180.87 157.333 162.443 156.123 155.229C151.451 155.229 150.746 155.431 146.074 155.431L164.38 180.87Z" fill="black"/>
<path d="M148.664 109.383C148.614 109.382 148.565 109.371 148.52 109.349C148.475 109.327 148.436 109.296 148.405 109.257C145.494 105.421 141.721 107.37 141.566 107.483C141.491 107.524 141.403 107.534 141.32 107.512C141.238 107.49 141.168 107.436 141.126 107.364C141.104 107.328 141.09 107.289 141.085 107.247C141.079 107.206 141.082 107.165 141.094 107.125C141.105 107.085 141.125 107.047 141.151 107.015C141.178 106.983 141.211 106.956 141.249 106.936C142.549 106.281 144.054 106.117 145.471 106.477C146.889 106.837 148.119 107.696 148.923 108.886C148.974 108.953 148.997 109.036 148.984 109.119C148.972 109.201 148.927 109.276 148.858 109.326C148.801 109.363 148.733 109.382 148.664 109.383Z" fill="black"/>
<path d="M137.956 89.3838C138.73 90.1469 139.459 90.9533 140.136 91.7987C140.816 92.6424 141.441 93.5267 142.007 94.4464C142.575 95.3726 143.06 96.3447 143.456 97.3519C143.842 98.379 144.088 99.451 144.187 100.54C144.194 100.624 144.166 100.706 144.111 100.77C144.055 100.834 143.975 100.873 143.889 100.88C143.804 100.887 143.719 100.86 143.653 100.806C143.588 100.751 143.547 100.674 143.54 100.591C143.46 99.5574 143.242 98.5385 142.893 97.5594C142.525 96.5769 142.072 95.626 141.541 94.7168C141.001 93.8038 140.405 92.9238 139.755 92.0817C139.108 91.2373 138.41 90.4309 137.665 89.6668C137.629 89.6309 137.609 89.5826 137.609 89.5325C137.61 89.4824 137.631 89.4345 137.668 89.3995C137.705 89.3645 137.755 89.3451 137.806 89.3457C137.858 89.3463 137.907 89.3668 137.943 89.4026L137.956 89.3838Z" fill="black"/>
<path d="M140.141 88.1771C141.13 88.7191 141.997 89.4483 142.691 90.3216C143.398 91.1616 144.022 92.0649 144.554 93.0196C145.092 93.9629 145.57 94.9375 145.984 95.9377L146.573 97.4533L147.097 98.9815C147.111 99.0228 147.116 99.0663 147.112 99.1095C147.109 99.1527 147.096 99.1948 147.076 99.2333C147.055 99.2719 147.027 99.3061 146.993 99.3342C146.959 99.3622 146.92 99.3834 146.877 99.3966C146.835 99.4098 146.79 99.4148 146.746 99.4112C146.701 99.4076 146.658 99.3955 146.618 99.3756C146.579 99.3558 146.543 99.3285 146.514 99.2954C146.486 99.2624 146.464 99.2241 146.45 99.1828L145.965 97.6671L145.415 96.1704C145.027 95.1824 144.578 94.2184 144.069 93.2837C143.571 92.3464 142.982 91.4576 142.309 90.6298C141.672 89.7967 140.874 89.0919 139.96 88.5544H139.928C139.904 88.5425 139.884 88.5262 139.867 88.5065C139.85 88.4867 139.837 88.4639 139.829 88.4394C139.821 88.4148 139.819 88.389 139.821 88.3634C139.824 88.3378 139.831 88.313 139.844 88.2903C139.853 88.2621 139.869 88.2362 139.89 88.2147C139.911 88.1931 139.937 88.1763 139.965 88.1654C139.994 88.1546 140.024 88.1501 140.055 88.1521C140.085 88.1541 140.115 88.1626 140.141 88.1771Z" fill="black"/>
<path d="M143.696 88.7048C144.41 89.2783 145.072 89.9095 145.676 90.5915C146.279 91.2634 146.833 91.9758 147.333 92.7235C147.841 93.4716 148.287 94.2582 148.666 95.0756C149.052 95.8885 149.372 96.7296 149.623 97.5911C149.647 97.6745 149.636 97.7638 149.592 97.8393C149.549 97.9148 149.476 97.9703 149.39 97.9936C149.304 98.017 149.213 98.0062 149.135 97.9638C149.057 97.9213 149 97.8506 148.976 97.7672C148.757 96.9268 148.469 96.1045 148.116 95.3082C147.768 94.509 147.357 93.7373 146.886 93.0002C146.417 92.2565 145.892 91.548 145.314 90.8808C144.75 90.1987 144.124 89.5673 143.444 88.9941C143.405 88.9633 143.381 88.9188 143.376 88.8704C143.371 88.8221 143.386 88.7738 143.418 88.7363C143.45 88.6988 143.495 88.675 143.545 88.6703C143.595 88.6656 143.645 88.6803 143.683 88.7111L143.696 88.7048Z" fill="black"/>
<path opacity="0.13" d="M145.516 121.76L155.532 120.559L149.34 132.508C149.34 132.508 147.496 123.628 145.516 121.76Z" fill="black"/>
<path d="M105.26 155.481H73.146C69.886 155.478 66.7023 156.439 64.0175 158.236C61.3328 160.033 59.2741 162.582 58.1148 165.543L58.0754 165.639C58.0672 165.659 58.063 165.68 58.063 165.702C58.063 165.722 58.0594 165.741 58.0523 165.76L45.0491 200.201C44.8196 200.809 45.2215 201.471 45.8667 201.547L56.2168 202.776C56.7199 202.836 57.0989 203.262 57.0989 203.769V241.501C57.0989 242.053 57.5466 242.501 58.0989 242.501H124.171C124.692 242.501 125.125 242.102 125.168 241.583L130.102 181.787C130.145 181.268 130.578 180.869 131.099 180.869H140.98C141.533 180.869 141.98 180.422 141.98 179.869V156.358C141.98 155.805 141.53 155.357 140.977 155.358L105.26 155.481Z" fill="white" stroke="black" stroke-linejoin="round"/>
<path opacity="0.05" d="M142.365 155.355L106.227 155.5C112.776 155.767 118.967 158.483 123.506 163.08C128.045 167.677 130.583 173.8 130.588 180.171L130.53 180.844H142.365V155.355Z" fill="#1B1B25"/>
<path d="M129.736 182.548L116.957 180.083C116.227 179.944 115.47 180.092 114.852 180.494C114.233 180.896 113.804 181.519 113.657 182.228L111.101 194.736L107.795 210.949C107.652 211.658 107.804 212.393 108.217 212.993C108.631 213.593 109.272 214.009 110.001 214.15L115.236 215.163L122.78 216.647C123.511 216.788 124.268 216.641 124.887 216.239C125.506 215.837 125.935 215.212 126.08 214.503L127.336 208.358L129.374 198.371L131.962 185.794C132.039 185.438 132.043 185.071 131.972 184.715C131.902 184.358 131.758 184.019 131.551 183.716C131.344 183.414 131.076 183.155 130.765 182.955C130.453 182.754 130.104 182.616 129.736 182.548Z" fill="#F35A05"/>
<path d="M131.077 199.241C130.924 198.923 130.676 198.657 130.365 198.48C130.307 198.398 130.268 198.323 130.203 198.241L129.899 198.278C129.674 198.215 129.44 198.19 129.207 198.203L116.679 199.159C114.636 199.313 112.589 198.898 110.778 197.964L110.474 197.807L111.121 194.738C110.474 195.543 109.762 196.335 109.031 197.09C107.421 197.223 105.88 197.787 104.579 198.719C103.767 199.277 103.067 199.976 102.515 200.781C101.886 201.706 101.103 202.522 100.199 203.196C99.8608 203.433 99.5037 203.644 99.1312 203.825V203.788L70.6605 210.643H70.5311L71.9806 204.41L45.7617 201.322L39.9963 225.717C39.1425 229.269 39.7745 233.005 41.7534 236.104C43.7324 239.203 46.8963 241.412 50.5499 242.245C53.1732 242.83 55.922 242.553 58.3664 241.458C58.8323 241.295 59.2917 241.113 59.7446 240.905L107.97 217.831L114.505 215.447C114.505 215.447 114.771 215.353 115.237 215.164H115.139C118.122 213.963 134.862 206.938 131.077 199.241Z" fill="white"/>
<path fill-rule="evenodd" clip-rule="evenodd" d="M108.883 196.787C109.579 196.064 110.254 195.309 110.87 194.544L111.443 194.801L110.63 197.249L109.628 196.988M108.883 196.787C107.259 196.943 105.708 197.522 104.393 198.463C103.549 199.044 102.822 199.77 102.249 200.607L102.249 200.608C101.64 201.501 100.884 202.291 100.009 202.943C99.7392 203.132 99.4567 203.304 99.1635 203.456L70.9594 210.247L72.3798 204.139L45.5148 200.975L39.6844 225.645C38.8113 229.278 39.4576 233.1 41.4818 236.27C43.506 239.44 46.7424 241.699 50.4797 242.551L50.5537 242.245L50.4812 242.552C53.1698 243.151 55.987 242.87 58.4933 241.75C58.9632 241.585 59.4278 241.4 59.8867 241.19L108.103 218.12L114.621 215.743L114.622 215.743L114.623 215.742L114.624 215.742L114.634 215.738L114.672 215.724C114.706 215.712 114.754 215.694 114.818 215.67C114.945 215.622 115.13 215.551 115.365 215.455L115.358 215.419C116.953 214.773 121.802 212.73 125.84 209.894C127.896 208.45 129.768 206.783 130.885 204.969C132.008 203.144 132.378 201.149 131.374 199.106C131.205 198.754 130.936 198.457 130.6 198.248C130.594 198.238 130.588 198.229 130.581 198.218C130.576 198.21 130.571 198.202 130.566 198.194C130.539 198.153 130.506 198.102 130.464 198.049L130.35 197.905L129.926 197.958C129.686 197.898 129.439 197.874 129.191 197.888L129.185 197.889L116.658 198.845M115.027 214.909L115.019 214.873C116.507 214.274 121.408 212.229 125.46 209.383C127.488 207.959 129.278 206.352 130.328 204.645C131.372 202.951 131.676 201.182 130.788 199.377L130.787 199.374C130.662 199.114 130.459 198.897 130.204 198.751L130.143 198.716L130.102 198.659C130.082 198.631 130.064 198.603 130.048 198.578L129.877 198.599L129.812 198.581C129.624 198.528 129.428 198.506 129.233 198.517L129.23 198.518L116.709 199.473C114.604 199.631 112.495 199.205 110.63 198.242L110.112 197.974L110.543 195.928C110.132 196.398 109.705 196.859 109.271 197.306L109.186 197.394L109.063 197.404C107.512 197.532 106.028 198.075 104.776 198.972L104.77 198.976C103.99 199.512 103.319 200.183 102.789 200.956C102.14 201.909 101.333 202.751 100.4 203.446L100.396 203.449L100.392 203.452C100.04 203.699 99.6684 203.918 99.2805 204.107L98.8108 204.336V204.19L70.7039 210.958H70.1292L71.589 204.681L46.0162 201.669L40.3162 225.788L40.3159 225.789C39.4817 229.259 40.0992 232.91 42.0328 235.938C43.9662 238.966 47.0573 241.124 50.6269 241.937C53.18 242.507 55.8554 242.238 58.2345 241.172L58.2471 241.167L58.2601 241.162C58.7167 241.002 59.1658 240.823 59.6076 240.621L59.6102 240.62L107.845 217.541L114.395 215.152" fill="black"/>
<path opacity="0.17" d="M41.4115 219.012C41.4115 219.145 41.3724 219.227 41.3594 219.265L41.4115 219.012Z" fill="#FF887C"/>
<path opacity="0.13" d="M70.4151 210.781C71.0103 208.145 70.8356 208.372 71.7092 204.58L41.582 218.025C41.582 218.025 44.5715 217.151 48.6997 216.088C49.0815 215.95 49.4762 215.831 49.8774 215.724L70.4151 210.781Z" fill="black"/>
<path opacity="0.17" d="M41.4844 218.647L41.4062 219.014L41.4844 218.647Z" fill="#FF887C"/>
<path opacity="0.17" d="M41.6073 218.025L41.4844 218.654C41.5491 218.333 41.6073 218.025 41.6073 218.025Z" fill="#FF887C"/>
<path opacity="0.35" d="M74.1626 204.893H74.1173L68.4037 204.202C68.3189 204.192 68.2414 204.15 68.1881 204.086C68.1348 204.021 68.1099 203.938 68.119 203.856C68.1238 203.814 68.1371 203.774 68.1579 203.738C68.1788 203.701 68.2069 203.669 68.2406 203.644C68.2744 203.618 68.313 203.599 68.3543 203.588C68.3957 203.577 68.4388 203.574 68.4814 203.579L73.8908 204.208L76.8996 185.536C76.914 185.454 76.9604 185.381 77.0292 185.332C77.098 185.282 77.1838 185.261 77.2685 185.272C77.3527 185.286 77.4281 185.331 77.4788 185.398C77.5295 185.465 77.5515 185.548 77.5402 185.63L74.4796 204.61C74.4717 204.687 74.435 204.758 74.3766 204.811C74.3181 204.863 74.2419 204.892 74.1626 204.893Z" fill="black"/>
<path opacity="0.08" d="M80.8398 208.17L93.7811 207.856C96.1881 208.164 100.025 206.051 99.6046 203.73L80.8398 208.17Z" fill="#FF887C"/>
<path d="M121.576 147.47L117.182 118.421C116.783 115.764 116.042 113.169 114.977 110.695C114.712 110.08 115.085 109.366 115.747 109.261L115.894 109.238C116.407 109.157 116.768 108.706 116.691 108.193C116.049 103.937 111.926 86.2587 88.0762 91.114C87.9772 91.1342 87.8709 91.1405 87.7703 91.131C85.0816 90.8774 82.371 90.9414 79.6978 91.3218C76.5545 91.7697 73.5327 92.8151 70.8051 94.3984C68.0775 95.9816 65.6975 98.0716 63.8011 100.549C61.9047 103.026 60.5291 105.843 59.7528 108.837C58.9764 111.831 58.8146 114.945 59.2766 118L61.8649 134.936C62.7988 141.104 66.215 146.659 71.3622 150.38C76.5094 154.101 82.9663 155.683 89.3132 154.777L119.285 150.495C120 150.386 120.642 150.007 121.071 149.441C121.5 148.874 121.682 148.166 121.576 147.47Z" fill="#F35A05" stroke="black"/>
<path d="M103.527 108.144C103.441 108.149 103.357 108.121 103.293 108.066C103.228 108.01 103.189 107.932 103.184 107.849C103.179 107.765 103.208 107.683 103.265 107.621C103.322 107.558 103.402 107.52 103.488 107.515L112.217 106.358C112.252 106.355 112.286 106.344 112.316 106.326C112.346 106.309 112.372 106.285 112.392 106.258C112.412 106.232 112.426 106.202 112.434 106.171C112.441 106.14 112.443 106.107 112.437 106.075C111.039 98.4153 103.805 94.8746 103.702 94.8431C103.664 94.825 103.629 94.7996 103.601 94.7686C103.573 94.7376 103.551 94.7015 103.538 94.6624C103.524 94.6233 103.518 94.5819 103.521 94.5406C103.523 94.4993 103.534 94.4589 103.553 94.4218C103.572 94.3846 103.598 94.3514 103.63 94.324C103.662 94.2966 103.699 94.2756 103.739 94.2622C103.779 94.2487 103.822 94.2432 103.864 94.2457C103.907 94.2483 103.948 94.259 103.987 94.2771C104.064 94.3149 111.615 97.9813 113.091 105.968C113.112 106.083 113.11 106.2 113.083 106.314C113.056 106.428 113.006 106.535 112.935 106.629C112.858 106.727 112.76 106.809 112.649 106.87C112.538 106.93 112.415 106.968 112.288 106.981L103.54 108.144H103.527Z" fill="#FCF0E3"/>
<path d="M111.957 109.829L88.0158 113.565L82.1923 105.213C83.3376 114.534 76.2652 120.558 76.2652 120.558L76.0646 120.282L75.864 120.319C74.0601 120.654 72.4653 121.668 71.4277 123.141C70.3901 124.613 69.9937 126.425 70.3252 128.181C70.6691 129.935 71.7135 131.486 73.2302 132.495C74.7469 133.504 76.6126 133.888 78.4199 133.564L78.8729 133.482C79.66 136.852 81.4622 139.917 84.0494 142.287V157.217C84.0562 159.765 85.1007 162.207 86.9547 164.009C88.8086 165.811 91.3211 166.826 93.9429 166.833C96.5647 166.826 99.0772 165.811 100.931 164.009C102.785 162.207 103.83 159.765 103.836 157.217V145.438C107.722 143.691 110.838 140.653 112.624 136.872C114.844 133.264 115.628 128.992 114.83 124.86L111.957 109.829Z" fill="white" stroke="black"/>
<path opacity="0.13" d="M100.66 144.985C96.4232 145.752 92.0441 144.997 88.3376 142.86C84.631 140.723 81.8494 137.35 80.5103 133.369C80.4197 133.099 78.8603 133.451 78.8992 133.614C79.7054 136.964 81.5213 140.003 84.1145 142.344C84.3474 144.726 85.4839 146.94 87.303 148.553C89.1221 150.167 91.4936 151.065 93.9563 151.073C95.764 151.067 97.5358 150.582 99.08 149.668C100.624 148.755 101.882 147.449 102.717 145.891C107.12 144.261 110.687 141.015 112.65 136.853C111.362 138.96 109.626 140.775 107.558 142.177C105.49 143.58 103.139 144.537 100.66 144.985Z" fill="black"/>
<path d="M75.1451 129.144C75.0782 129.143 75.0131 129.123 74.9587 129.085C74.9043 129.047 74.8634 128.994 74.8414 128.933C74.8194 128.871 74.8175 128.805 74.8359 128.742C74.8544 128.68 74.8923 128.624 74.9444 128.584L77.0929 126.961L74.3491 124.445C74.3189 124.416 74.295 124.382 74.2787 124.344C74.2623 124.307 74.2539 124.266 74.2539 124.225C74.2539 124.184 74.2623 124.143 74.2787 124.106C74.295 124.068 74.3189 124.034 74.3491 124.005C74.3792 123.975 74.4149 123.952 74.4544 123.936C74.4938 123.92 74.5361 123.912 74.5788 123.912C74.6215 123.912 74.6638 123.92 74.7032 123.936C74.7427 123.952 74.7785 123.975 74.8085 124.005L77.8242 126.772C77.8595 126.803 77.8872 126.841 77.9052 126.883C77.9231 126.926 77.9308 126.972 77.9277 127.018C77.9248 127.063 77.9124 127.106 77.8913 127.146C77.8701 127.187 77.8407 127.222 77.8048 127.25L75.3327 129.081C75.2787 129.121 75.2129 129.143 75.1451 129.144Z" fill="black"/>
<path d="M92.3781 117.679C92.691 117.632 92.9906 117.522 93.2582 117.358C93.5559 117.201 93.8536 117.05 94.1189 116.93C94.3842 116.811 94.6948 116.678 95.0119 116.559C95.3147 116.467 95.5946 116.315 95.8338 116.112C96.015 115.917 95.9826 115.603 95.5491 115.395C95.2049 115.272 94.8377 115.221 94.4717 115.246C94.1058 115.271 93.7495 115.371 93.4264 115.54C93.0881 115.669 92.7827 115.868 92.5313 116.124C92.2799 116.379 92.0885 116.684 91.9704 117.018C91.8668 117.471 92.0998 117.691 92.3781 117.679Z" fill="#1B1B25"/>
<path d="M109.534 114.767C109.22 114.806 108.9 114.78 108.596 114.691C108.266 114.622 107.949 114.559 107.645 114.515C107.341 114.471 106.998 114.427 106.687 114.396C106.369 114.392 106.055 114.321 105.768 114.188C105.535 114.05 105.483 113.741 105.833 113.427C106.128 113.214 106.467 113.064 106.826 112.989C107.185 112.913 107.557 112.912 107.917 112.987C108.279 113.022 108.629 113.132 108.943 113.312C109.257 113.491 109.527 113.734 109.735 114.024C109.962 114.44 109.806 114.716 109.534 114.767Z" fill="#1B1B25"/>
<path d="M99.8442 130.69C98.9995 130.652 98.1711 130.451 97.407 130.099C96.6428 129.747 95.9581 129.251 95.3924 128.64C95.3388 128.576 95.3134 128.493 95.3219 128.411C95.3304 128.329 95.372 128.253 95.4377 128.2C95.4697 128.173 95.507 128.153 95.5473 128.14C95.5876 128.127 95.6301 128.122 95.6724 128.126C95.7146 128.129 95.7557 128.141 95.7932 128.16C95.8306 128.18 95.8638 128.206 95.8906 128.238C95.9942 128.357 98.4465 131.143 101.882 129.609C101.921 129.591 101.962 129.581 102.004 129.578C102.047 129.576 102.089 129.583 102.129 129.597C102.169 129.611 102.205 129.632 102.236 129.66C102.267 129.688 102.292 129.722 102.309 129.76C102.328 129.798 102.338 129.839 102.34 129.881C102.342 129.922 102.335 129.964 102.32 130.003C102.305 130.043 102.282 130.079 102.252 130.109C102.223 130.14 102.187 130.164 102.148 130.181C101.427 130.511 100.641 130.685 99.8442 130.69Z" fill="black"/>
<path d="M101.771 126.3C101.697 126.3 101.625 126.275 101.567 126.229C101.509 126.183 101.469 126.12 101.454 126.049C101.439 125.966 101.458 125.881 101.506 125.812C101.554 125.742 101.629 125.694 101.713 125.678L103.984 125.244C104.322 125.182 104.644 125.056 104.931 124.872C105.219 124.688 105.465 124.45 105.657 124.173C105.848 123.895 105.981 123.583 106.047 123.255C106.113 122.927 106.112 122.59 106.042 122.263C105.994 122.024 105.85 121.814 105.643 121.679C105.435 121.543 105.181 121.493 104.936 121.539C104.362 121.645 103.769 121.527 103.284 121.21C102.8 120.893 102.463 120.404 102.347 119.848L101.797 117.131C101.782 117.049 101.801 116.965 101.849 116.897C101.898 116.828 101.972 116.781 102.056 116.766C102.098 116.757 102.14 116.756 102.182 116.764C102.224 116.771 102.263 116.787 102.298 116.81C102.334 116.833 102.363 116.863 102.386 116.897C102.409 116.932 102.425 116.971 102.432 117.011L102.981 119.722C103.063 120.117 103.302 120.465 103.646 120.69C103.99 120.915 104.412 120.999 104.819 120.923C105.023 120.882 105.234 120.881 105.439 120.921C105.644 120.961 105.838 121.041 106.01 121.156C106.35 121.387 106.583 121.74 106.657 122.137C106.739 122.546 106.736 122.968 106.651 123.377C106.565 123.785 106.397 124.174 106.156 124.52C105.916 124.865 105.608 125.162 105.25 125.392C104.891 125.622 104.49 125.781 104.069 125.86L101.791 126.294L101.771 126.3Z" fill="black"/>
<path d="M95.329 122.987C95.2252 123.006 95.1186 123.004 95.0154 122.983C94.9121 122.962 94.8143 122.92 94.7275 122.862C94.6408 122.803 94.5669 122.729 94.5102 122.642C94.4535 122.556 94.415 122.459 94.3971 122.358L94.2159 121.433C94.1781 121.229 94.2249 121.018 94.3461 120.848C94.4674 120.677 94.6532 120.559 94.8631 120.521C95.0724 120.484 95.2882 120.53 95.463 120.648C95.6377 120.766 95.7571 120.947 95.7949 121.15L95.9761 122.081C96.0138 122.284 95.9668 122.494 95.8455 122.664C95.7241 122.834 95.5384 122.95 95.329 122.987Z" fill="#1B1B25"/>
<path d="M108.896 120.842C108.793 120.861 108.686 120.859 108.583 120.838C108.479 120.816 108.382 120.775 108.295 120.717C108.208 120.658 108.134 120.583 108.078 120.497C108.021 120.41 107.982 120.314 107.965 120.213L107.783 119.282C107.764 119.181 107.765 119.077 107.787 118.977C107.809 118.876 107.851 118.781 107.912 118.697C107.972 118.613 108.049 118.541 108.138 118.486C108.227 118.431 108.326 118.393 108.43 118.376C108.534 118.357 108.641 118.358 108.744 118.38C108.847 118.401 108.945 118.442 109.032 118.501C109.119 118.559 109.193 118.634 109.249 118.721C109.306 118.807 109.344 118.904 109.362 119.005L109.544 119.936C109.581 120.139 109.534 120.349 109.413 120.519C109.292 120.689 109.106 120.805 108.896 120.842Z" fill="#1B1B25"/>
<path opacity="0.13" d="M94.7434 126.489L92.0061 126.791C91.7455 126.818 91.4847 126.744 91.28 126.585C91.0754 126.426 90.9433 126.195 90.9124 125.942C90.8832 125.688 90.9587 125.433 91.1224 125.232C91.2861 125.032 91.5246 124.903 91.786 124.873L94.5169 124.577C94.7785 124.549 95.041 124.622 95.2471 124.781C95.4532 124.94 95.5862 125.172 95.6171 125.426C95.6444 125.68 95.5681 125.933 95.4046 126.132C95.2411 126.331 95.0036 126.459 94.7434 126.489Z" fill="black"/>
<path opacity="0.13" d="M113.133 123.678L110.402 123.979C110.141 124.006 109.88 123.932 109.674 123.773C109.468 123.615 109.335 123.384 109.302 123.13C109.275 122.876 109.351 122.622 109.514 122.422C109.678 122.222 109.915 122.093 110.176 122.061L112.913 121.765C113.174 121.737 113.436 121.811 113.641 121.97C113.846 122.129 113.978 122.361 114.007 122.615C114.036 122.868 113.96 123.122 113.797 123.322C113.633 123.521 113.394 123.649 113.133 123.678Z" fill="black"/>
<path d="M105.043 137.539C104.975 137.536 104.91 137.514 104.855 137.476C104.464 137.217 104.001 137.078 103.528 137.078C103.055 137.078 102.593 137.217 102.202 137.476C102.131 137.522 102.045 137.539 101.961 137.524C101.878 137.509 101.804 137.462 101.755 137.394C101.73 137.361 101.713 137.323 101.703 137.283C101.694 137.243 101.693 137.202 101.7 137.161C101.707 137.121 101.723 137.082 101.745 137.048C101.768 137.013 101.798 136.983 101.833 136.96C102.333 136.624 102.926 136.443 103.535 136.443C104.143 136.443 104.737 136.624 105.237 136.96C105.305 137.01 105.35 137.084 105.364 137.166C105.377 137.248 105.357 137.332 105.308 137.4C105.279 137.443 105.239 137.478 105.193 137.502C105.147 137.526 105.095 137.539 105.043 137.539Z" fill="black"/>
</svg>
