<svg width="20" height="20" viewBox="0 0 20 20" fill="none" xmlns="http://www.w3.org/2000/svg">
<path d="M15.4995 5.86653L14.7245 4.68321C14.4995 4.29988 14.0745 4.0582 13.5578 4.04153C13.0911 4.04153 12.6495 4.26653 12.4078 4.61653L12.0995 5.05822L10.6745 2.35823C10.2328 1.60823 9.05782 1.43321 8.39115 2.12488L4.68281 6.2832C3.35781 7.72487 2.63281 9.5499 2.63281 11.4249C2.63281 11.7499 2.68281 12.1416 2.80781 12.7166C2.83281 12.8166 2.85781 12.9249 2.89114 13.0416L2.9328 13.2332C3.69947 16.0749 6.43282 18.1249 9.77449 18.3332H9.82448C13.2495 18.3332 16.2995 16.1999 17.0578 13.2665C17.0995 13.1499 17.1245 13.0332 17.1578 12.9166C17.1745 12.8499 17.1912 12.7832 17.2245 12.6582C17.3245 12.1582 17.3661 11.7832 17.3661 11.4832V11.3749C17.3661 9.44157 16.4078 7.2582 15.4995 5.86653ZM12.2245 14.9332C12.2078 14.9915 12.1911 15.0499 12.1745 15.1166L12.1578 15.1915C11.9911 15.8165 11.5078 16.3416 10.8328 16.6332C10.5161 16.7749 10.1828 16.8499 9.8328 16.8749H9.79948C9.54115 16.8749 9.24948 16.7832 8.90781 16.6332C8.24114 16.3416 7.7578 15.8166 7.56613 15.1166C7.54946 15.0499 7.54115 14.9832 7.53282 14.9749C7.49948 14.7999 7.47448 14.6749 7.47448 14.5916C7.47448 13.9499 7.7328 13.3249 8.19113 12.8249L9.87448 10.9416L11.5578 12.8332C12.0161 13.3249 12.2661 13.9499 12.2661 14.5916C12.2661 14.6749 12.2495 14.8082 12.2245 14.9332Z" fill="#F35A05"/>
</svg>
