<svg width="16" height="12" viewBox="0 0 16 12" fill="none" xmlns="http://www.w3.org/2000/svg">
<path d="M3.63906 5.54591C4.3115 5.62869 4.85867 5.9184 5.28059 6.41505C5.70251 6.8979 5.91347 7.47043 5.91347 8.13263C5.91347 9.07074 5.54429 9.90539 4.80593 10.6366C4.08076 11.3677 3.27647 11.7333 2.39308 11.7333C1.64153 11.7333 1.0548 11.4574 0.63288 10.9056C0.21096 10.3538 0 9.58119 0 8.58789C0 7.01517 0.665843 5.19412 1.99753 3.12475C3.3424 1.04158 4.49609 0 5.45859 0C5.77503 0 6.05851 0.124162 6.30902 0.372487C6.55954 0.607015 6.6848 0.876034 6.6848 1.17954C6.6848 1.57962 6.59909 1.91072 6.42769 2.17284C6.25628 2.42116 5.8937 2.75226 5.33993 3.16614C4.53564 3.77315 3.96869 4.56641 3.63906 5.54591ZM12.9543 5.54591C13.6267 5.62869 14.1739 5.9184 14.5958 6.41505C15.0177 6.8979 15.2287 7.47043 15.2287 8.13263C15.2287 9.07074 14.8595 9.90539 14.1211 10.6366C13.396 11.3677 12.5917 11.7333 11.7083 11.7333C10.9567 11.7333 10.37 11.4574 9.94808 10.9056C9.52616 10.3538 9.3152 9.58119 9.3152 8.58789C9.3152 7.74635 9.56572 6.69786 10.0667 5.44245C10.581 4.17323 11.3193 2.9523 12.2818 1.77966C13.2575 0.59322 14.0882 0 14.7738 0C15.0902 0 15.3737 0.124162 15.6242 0.372487C15.8747 0.607015 16 0.876034 16 1.17954C16 1.6348 15.8945 1.99349 15.6836 2.25561C15.4726 2.50394 15.1298 2.80745 14.6551 3.16614C13.8508 3.77315 13.2839 4.56641 12.9543 5.54591Z" fill="white"/>
</svg>
