<svg width="100" height="100" viewBox="0 0 100 100" fill="none" xmlns="http://www.w3.org/2000/svg">
<path d="M2.61012 84.0176L97.3984 84.0176L97.3984 18.3927L2.61012 18.3927L2.61012 84.0176Z" fill="white"/>
<path d="M97.3976 84.62H2.60238C2.5236 84.621 2.44536 84.6062 2.37231 84.5767C2.29927 84.5472 2.23285 84.5035 2.17682 84.4481C2.12079 84.3927 2.07634 84.3268 2.04598 84.2541C2.01562 84.1814 1.99999 84.1034 2 84.0246V18.3997C2 18.24 2.06343 18.0868 2.17639 17.9738C2.28936 17.8608 2.44262 17.7974 2.60238 17.7974H97.3976C97.5574 17.7974 97.7106 17.8608 97.8236 17.9738C97.9366 18.0868 98 18.24 98 18.3997V84.0246C98 84.1034 97.9844 84.1814 97.954 84.2541C97.9237 84.3268 97.8792 84.3927 97.8232 84.4481C97.7672 84.5035 97.7007 84.5472 97.6277 84.5767C97.5546 84.6062 97.4764 84.621 97.3976 84.62ZM3.23239 83.4153H96.823V19.0229H3.20475L3.23239 83.4153Z" fill="black"/>
<path d="M2.61012 24.2573L97.3984 24.2573V15.5955L2.61012 15.5955V24.2573Z" fill="#F35A05"/>
<path d="M97.3976 24.8596H2.60238C2.44262 24.8596 2.28936 24.7962 2.17639 24.6832C2.06343 24.5703 2 24.417 2 24.2573V15.6024C2 15.4426 2.06343 15.2894 2.17639 15.1764C2.28936 15.0635 2.44262 15 2.60238 15H97.3976C97.5574 15 97.7106 15.0635 97.8236 15.1764C97.9366 15.2894 98 15.4426 98 15.6024V24.2573C98 24.417 97.9366 24.5703 97.8236 24.6832C97.7106 24.7962 97.5574 24.8596 97.3976 24.8596ZM3.23239 23.6549H96.823V16.2048H3.20475L3.23239 23.6549Z" fill="black"/>
<path d="M71.164 20.5324H66.1649C66.0051 20.5324 65.8519 20.4689 65.739 20.356C65.626 20.243 65.5625 20.0898 65.5625 19.93C65.5625 19.7703 65.626 19.617 65.739 19.5041C65.8519 19.3911 66.0051 19.3276 66.1649 19.3276H71.164C71.3238 19.3276 71.4769 19.3911 71.5899 19.5041C71.7029 19.617 71.7664 19.7703 71.7664 19.93C71.7664 20.0898 71.7029 20.243 71.5899 20.356C71.4769 20.4689 71.3238 20.5324 71.164 20.5324Z" fill="black"/>
<path d="M81.3054 20.5324H76.3133C76.1536 20.5324 76.0003 20.4689 75.8873 20.356C75.7744 20.243 75.7109 20.0898 75.7109 19.93C75.7109 19.7703 75.7744 19.617 75.8873 19.5041C76.0003 19.3911 76.1536 19.3276 76.3133 19.3276H81.3124C81.4721 19.3276 81.6254 19.3911 81.7383 19.5041C81.8513 19.617 81.9147 19.7703 81.9147 19.93C81.9147 20.0898 81.8513 20.243 81.7383 20.356C81.6254 20.4689 81.4721 20.5324 81.3124 20.5324H81.3054Z" fill="black"/>
<path d="M91.4413 20.5324H86.4422C86.2825 20.5324 86.1292 20.4689 86.0162 20.356C85.9033 20.243 85.8398 20.0898 85.8398 19.93C85.8398 19.7703 85.9033 19.617 86.0162 19.5041C86.1292 19.3911 86.2825 19.3276 86.4422 19.3276H91.4413C91.601 19.3276 91.7543 19.3911 91.8672 19.5041C91.9802 19.617 92.0436 19.7703 92.0436 19.93C92.0436 20.0898 91.9802 20.243 91.8672 20.356C91.7543 20.4689 91.601 20.5324 91.4413 20.5324Z" fill="black"/>
<path d="M18.4375 70.959L13.9715 70.8067C13.8229 70.8036 13.6809 70.7451 13.5732 70.6426C13.4656 70.5401 13.4002 70.401 13.3899 70.2528C13.3207 69.3111 13.293 68.4941 13.293 67.7463C13.2971 62.4792 14.4339 57.2745 16.626 52.4852C18.8182 47.6959 22.0145 43.434 25.9983 39.9884C26.0578 39.9364 26.127 39.8968 26.2019 39.8719C26.2767 39.8469 26.3558 39.8371 26.4345 39.843C26.5145 39.8463 26.5929 39.8666 26.6645 39.9024C26.7361 39.9382 26.7994 39.9887 26.85 40.0507L29.6196 43.2426C29.945 43.6165 30.2704 43.9904 30.5889 44.3712L31.1775 45.0636C31.2804 45.1842 31.3315 45.3406 31.3198 45.4988C31.3082 45.6569 31.2346 45.804 31.1151 45.9083C27.9789 48.6194 25.4624 51.9732 23.7361 55.7423C22.0099 59.5114 21.1143 63.6077 21.1101 67.7533C21.1101 68.5357 21.1516 69.3735 21.2277 70.2389C21.2343 70.3214 21.2243 70.4044 21.1982 70.4829C21.172 70.5615 21.1302 70.6339 21.0754 70.6959C21.0186 70.7571 20.9501 70.8063 20.874 70.8408C20.798 70.8753 20.7158 70.8943 20.6323 70.8967C20.0022 70.8967 19.3237 70.8967 18.4928 70.966L18.4375 70.959ZM14.5324 69.6227L18.4305 69.7543L19.9468 69.6989C19.8984 69.0065 19.8776 68.3695 19.8776 67.7463C19.881 63.5293 20.7702 59.36 22.4878 55.5085C24.2054 51.6571 26.713 48.2094 29.8481 45.389L29.6473 45.1536L28.6848 44.0319L26.3169 41.297C22.5945 44.6252 19.616 48.7012 17.5758 53.2588C15.5356 57.8164 14.4796 62.753 14.4769 67.7463C14.4769 68.321 14.4908 68.9372 14.5324 69.6227Z" fill="black"/>
<path d="M65.7266 43.395C65.6139 43.3965 65.5033 43.3652 65.4081 43.305C60.9645 40.4889 55.8344 38.9439 50.5747 38.8377C45.3149 38.7315 40.1266 40.0682 35.573 42.7027C35.4452 42.777 35.2943 42.8012 35.1497 42.7705C35.0051 42.7398 34.8771 42.6563 34.7906 42.5365C33.3296 40.5493 32.0971 38.756 31.017 37.0527C30.9725 36.9864 30.9426 36.9113 30.9295 36.8325C30.9164 36.7537 30.9202 36.673 30.9408 36.5958C30.9587 36.5168 30.9924 36.4423 31.0401 36.3768C31.0877 36.3113 31.1482 36.2562 31.2178 36.2149C37.2498 32.6014 44.1955 30.803 51.2233 31.0351C58.251 31.2672 65.0629 33.5199 70.8433 37.5236C70.9164 37.5735 70.9774 37.6392 71.0219 37.7157C71.0663 37.7922 71.0932 37.8777 71.1005 37.9659C71.1078 38.0541 71.0953 38.1428 71.064 38.2256C71.0327 38.3084 70.9833 38.3831 70.9195 38.4444C69.2508 40.0923 67.5891 41.7748 66.1558 43.215C66.1003 43.2726 66.0336 43.3183 65.9598 43.3493C65.8859 43.3802 65.8066 43.3958 65.7266 43.395ZM50.0024 37.6274C55.5227 37.6228 60.9364 39.147 65.6435 42.031C66.8482 40.8124 68.1915 39.4553 69.5624 38.1052C64.084 34.4757 57.7029 32.4438 51.1345 32.2371C44.5661 32.0304 38.0699 33.6572 32.3741 36.935C33.2812 38.3198 34.292 39.8015 35.4483 41.3871C39.9027 38.9208 44.9108 37.6271 50.0024 37.6274Z" fill="black"/>
<path d="M75.6223 42.3218C73.919 43.7389 72.248 45.1929 70.6094 46.6839C73.424 49.4224 75.6614 52.6972 77.1895 56.3147C78.7177 59.9323 79.5055 63.8193 79.5066 67.7464C79.5066 68.5565 79.465 69.3735 79.3889 70.2182C80.7044 70.2182 82.02 70.2598 83.3355 70.2944C84.2218 70.2944 85.115 70.3359 86.0082 70.3775C86.0774 69.4912 86.112 68.6188 86.112 67.7464C86.1177 58.2173 82.3456 49.0746 75.6223 42.3218Z" fill="#F35A05"/>
<path d="M86.5751 71.0074H85.9935C85.3842 71.0074 84.7749 70.9658 84.1656 70.952H83.3347C82.0953 70.9174 80.8074 70.8897 79.395 70.8758H78.7442L78.8064 70.2319C78.8826 69.3803 78.9173 68.5909 78.9173 67.8085C78.923 63.961 78.1548 60.1516 76.6584 56.6069C75.1621 53.0623 72.9681 49.8548 70.207 47.1753L69.75 46.7321L70.2208 46.3028C71.8341 44.8419 73.5235 43.3671 75.2475 41.9269L75.6699 41.5669L76.0577 41.9616C82.8812 48.807 86.7088 58.0808 86.6997 67.7462C86.6997 68.6048 86.6997 69.4772 86.5959 70.4258L86.5751 71.0074ZM80.0528 69.6226C81.2229 69.6226 82.3099 69.6641 83.3693 69.6918H84.1933H85.4603C85.5019 68.9994 85.5227 68.3071 85.5227 67.6839C85.5329 58.5231 81.9825 49.7169 75.6215 43.1248C74.2367 44.3018 72.8519 45.4928 71.5294 46.6837C77.0646 52.2868 80.1629 59.8493 80.1497 67.7254C80.122 68.3624 80.1013 68.9787 80.0528 69.6226Z" fill="black"/>
<path d="M48.9771 67.5802C48.744 67.5847 48.5113 67.5591 48.2847 67.504C47.8823 67.3962 47.5077 67.2031 47.1864 66.9379C46.865 66.6728 46.6044 66.3416 46.4221 65.9669C45.2451 63.8413 46.7338 62.048 47.6823 61.4041L47.7793 61.3487C47.9247 61.2864 62.5895 54.861 66.4739 53.1023C66.5996 53.0442 66.7417 53.0317 66.8757 53.0671C67.0096 53.1025 67.1271 53.1835 67.2078 53.2962C67.2898 53.4084 67.3304 53.5456 67.3229 53.6844C67.3153 53.8232 67.26 53.9551 67.1663 54.0578L67.1108 54.1132L67.0416 54.1824L51.0058 66.9293H50.9643C50.37 67.3159 49.6849 67.5403 48.9771 67.5802ZM48.3539 62.4288C48.0424 62.6573 46.6368 63.8136 47.5092 65.3853C47.6134 65.611 47.7641 65.8122 47.9515 65.9757C48.1388 66.1392 48.3585 66.2612 48.5963 66.3339C49.2008 66.4215 49.8167 66.2914 50.3342 65.9669L62.7419 56.1003C57.1958 58.5583 49.1156 62.0895 48.3539 62.4288Z" fill="black"/>
<path d="M48.9309 36.9697C48.8997 36.9697 48.8689 36.9622 48.8412 36.9477C48.8135 36.9333 48.7896 36.9123 48.7717 36.8866C47.9062 35.7373 47.0546 34.5602 46.2307 33.4247C46.2009 33.3814 46.1893 33.3281 46.1983 33.2763C46.2074 33.2245 46.2364 33.1784 46.2791 33.1477C46.3235 33.1175 46.3779 33.1057 46.4308 33.1148C46.4838 33.1238 46.5311 33.153 46.563 33.1962C47.38 34.3525 48.2317 35.5226 49.0903 36.6582C49.1063 36.6789 49.1179 36.7026 49.1245 36.7279C49.1311 36.7532 49.1324 36.7796 49.1286 36.8055C49.1247 36.8314 49.1157 36.8562 49.1019 36.8785C49.0882 36.9008 49.0701 36.92 49.0487 36.9351C49.0145 36.9596 48.973 36.9717 48.9309 36.9697Z" fill="black"/>
<path d="M51.9845 37.0734C51.9523 37.0734 51.9205 37.0658 51.8916 37.0514C51.8628 37.037 51.8377 37.0161 51.8184 36.9903L49.1527 33.1059C49.1224 33.0619 49.1108 33.0076 49.1206 32.955C49.1303 32.9024 49.1605 32.8558 49.2046 32.8255C49.2486 32.7952 49.3029 32.7837 49.3555 32.7934C49.4081 32.8031 49.4547 32.8334 49.485 32.8775L52.1507 36.7618C52.1798 36.8059 52.1903 36.8598 52.1799 36.9116C52.1696 36.9635 52.1392 37.0092 52.0953 37.0387C52.0638 37.0632 52.0244 37.0755 51.9845 37.0734Z" fill="black"/>
<path d="M55.5421 37.5858C55.5109 37.5859 55.48 37.5783 55.4523 37.5638C55.4246 37.5494 55.4008 37.5284 55.3829 37.5028C54.3097 36.0764 53.2019 34.6501 52.0733 33.2653C52.0393 33.224 52.0231 33.1709 52.0283 33.1176C52.0335 33.0644 52.0597 33.0154 52.101 32.9814C52.1423 32.9475 52.1954 32.9313 52.2486 32.9365C52.3019 32.9417 52.3508 32.9678 52.3848 33.0091C53.5134 34.3939 54.6282 35.8341 55.7014 37.2604C55.7176 37.2817 55.7294 37.306 55.736 37.3318C55.7427 37.3577 55.7441 37.3847 55.7403 37.4111C55.7364 37.4375 55.7273 37.4629 55.7135 37.4858C55.6997 37.5087 55.6815 37.5286 55.6599 37.5443C55.6266 37.5712 55.585 37.5859 55.5421 37.5858Z" fill="black"/>
<path d="M59.8486 38.7145C59.8181 38.7143 59.7881 38.7073 59.7605 38.6941C59.733 38.681 59.7087 38.6619 59.6894 38.6383L55.9504 33.7916C55.9284 33.772 55.9109 33.7478 55.8992 33.7208C55.8875 33.6937 55.882 33.6643 55.8829 33.6348C55.8839 33.6054 55.8913 33.5764 55.9046 33.5501C55.918 33.5239 55.937 33.5008 55.9603 33.4827C55.9835 33.4646 56.0106 33.4519 56.0394 33.4454C56.0681 33.4389 56.0979 33.4388 56.1268 33.4451C56.1556 33.4515 56.1827 33.4641 56.206 33.4821C56.2294 33.5001 56.2486 33.523 56.2621 33.5492L60.0078 38.396C60.0424 38.4352 60.0615 38.4856 60.0615 38.5379C60.0615 38.5902 60.0424 38.6406 60.0078 38.6798C59.9611 38.7112 59.9042 38.7236 59.8486 38.7145Z" fill="black"/>
<path d="M63.9085 40.2238C63.8781 40.2231 63.8481 40.2159 63.8207 40.2028C63.7932 40.1897 63.7689 40.1709 63.7492 40.1476L59.6988 34.8162C59.6804 34.7981 59.6657 34.7766 59.6558 34.7528C59.6458 34.729 59.6406 34.7035 59.6406 34.6777C59.6406 34.6519 59.6458 34.6264 59.6558 34.6026C59.6657 34.5788 59.6804 34.5573 59.6988 34.5392C59.7364 34.5016 59.7875 34.4805 59.8407 34.4805C59.8939 34.4805 59.945 34.5016 59.9827 34.5392L64.0539 39.8706C64.0755 39.9004 64.0884 39.9354 64.0914 39.972C64.0944 40.0086 64.0873 40.0453 64.0708 40.0782C64.0544 40.111 64.0293 40.1387 63.9982 40.1583C63.9672 40.1778 63.9314 40.1885 63.8947 40.1891L63.9085 40.2238Z" fill="black"/>
<path d="M66.7095 39.9053C66.6772 39.9053 66.6454 39.8977 66.6166 39.8833C66.5877 39.8689 66.5626 39.848 66.5433 39.8222L64.1961 36.5541C64.1659 36.5097 64.1541 36.4553 64.1631 36.4024C64.1722 36.3494 64.2013 36.3021 64.2445 36.2702C64.2878 36.2404 64.3411 36.2288 64.3929 36.2379C64.4447 36.2469 64.4909 36.2759 64.5215 36.3187L66.8687 39.5868C66.8849 39.608 66.8967 39.6323 66.9034 39.6582C66.91 39.684 66.9115 39.711 66.9076 39.7374C66.9037 39.7639 66.8946 39.7893 66.8808 39.8121C66.867 39.835 66.8488 39.8549 66.8272 39.8706C66.7932 39.8956 66.7515 39.9079 66.7095 39.9053Z" fill="black"/>
<path d="M45.643 37.371C45.6125 37.3708 45.5824 37.3638 45.5549 37.3507C45.5274 37.3375 45.5031 37.3184 45.4837 37.2948C44.6182 36.2355 43.7874 35.1207 43.0119 33.9852C42.9821 33.9419 42.9705 33.8886 42.9796 33.8368C42.9886 33.785 43.0176 33.7389 43.0604 33.7083C43.0825 33.6928 43.1075 33.6819 43.1339 33.6763C43.1603 33.6707 43.1876 33.6704 43.2141 33.6756C43.2406 33.6808 43.2658 33.6912 43.2881 33.7064C43.3105 33.7215 43.3296 33.741 43.3443 33.7637C44.1128 34.8853 44.9368 35.9862 45.7954 37.0456C45.8309 37.0829 45.8507 37.1325 45.8507 37.1841C45.8507 37.2356 45.8309 37.2852 45.7954 37.3225C45.7751 37.3414 45.751 37.3555 45.7246 37.3639C45.6983 37.3723 45.6704 37.3747 45.643 37.371Z" fill="black"/>
<path d="M42.5179 37.8629C42.4885 37.8621 42.4596 37.8549 42.4333 37.8417C42.4069 37.8286 42.3838 37.8098 42.3656 37.7867L39.8107 34.7679C39.7758 34.7275 39.7584 34.6749 39.7623 34.6216C39.7662 34.5684 39.7911 34.5189 39.8315 34.484C39.8719 34.4491 39.9245 34.4317 39.9777 34.4356C40.0309 34.4395 40.0804 34.4644 40.1153 34.5048L42.6703 37.5305C42.7079 37.5682 42.729 37.6192 42.729 37.6725C42.729 37.7257 42.7079 37.7768 42.6703 37.8144C42.6267 37.8478 42.5727 37.865 42.5179 37.8629Z" fill="black"/>
<path d="M39.5266 38.9707C39.5009 38.9715 39.4754 38.967 39.4516 38.9575C39.4278 38.9479 39.4062 38.9336 39.3881 38.9154C38.3703 37.9668 37.3663 36.9559 36.4178 35.9311C36.381 35.8917 36.3615 35.8392 36.3634 35.7853C36.3654 35.7314 36.3887 35.6805 36.4282 35.6438C36.4676 35.6071 36.5201 35.5875 36.574 35.5895C36.6278 35.5914 36.6788 35.6147 36.7155 35.6542C37.6572 36.6789 38.6472 37.676 39.665 38.6246C39.7027 38.6622 39.7239 38.7133 39.7239 38.7665C39.7239 38.8197 39.7027 38.8708 39.665 38.9084C39.6476 38.9279 39.6263 38.9436 39.6024 38.9543C39.5786 38.965 39.5527 38.9706 39.5266 38.9707Z" fill="black"/>
<path d="M36.7991 39.9952C36.7563 39.9953 36.7147 39.9806 36.6814 39.9537C35.809 39.3029 34.9435 38.6174 34.1057 37.9181C34.0681 37.8804 34.0469 37.8293 34.0469 37.7761C34.0469 37.7229 34.0681 37.6718 34.1057 37.6342C34.1442 37.5982 34.1949 37.5781 34.2476 37.5781C34.3003 37.5781 34.351 37.5982 34.3895 37.6342C35.2135 38.3266 36.0721 39.019 36.9445 39.6629C36.9855 39.6968 37.012 39.7451 37.0184 39.7979C37.0249 39.8507 37.0107 39.904 36.9791 39.9468C36.9555 39.9693 36.9268 39.9856 36.8953 39.9941C36.8638 40.0025 36.8308 40.0029 36.7991 39.9952Z" fill="black"/>
<g opacity="0.13">
<path d="M97.3899 24.915H2.60156V27.7262H97.3899V24.915Z" fill="black"/>
</g>
</svg>
