<svg width="100" height="100" viewBox="0 0 100 100" fill="none" xmlns="http://www.w3.org/2000/svg">
<path d="M48.6136 8.36914H20.2383C15.3669 8.36914 11.418 12.3181 11.418 17.1895V79.5906C11.418 84.4619 15.3669 88.4109 20.2383 88.4109H48.6136C53.485 88.4109 57.434 84.4619 57.434 79.5906V17.1895C57.434 12.3181 53.485 8.36914 48.6136 8.36914Z" fill="#F35A05"/>
<path d="M48.694 88.9463H20.1587C17.6995 88.943 15.3421 87.9647 13.6032 86.2258C11.8644 84.487 10.8861 82.1295 10.8828 79.6704V17.1155C10.8861 14.6558 11.8642 12.2977 13.6029 10.5579C15.3415 8.81806 17.699 7.83838 20.1587 7.8335H48.694C51.1537 7.83838 53.5111 8.81806 55.2498 10.5579C56.9885 12.2977 57.9666 14.6558 57.9698 17.1155V79.6704C57.9666 82.1295 56.9883 84.487 55.2494 86.2258C53.5106 87.9647 51.1531 88.943 48.694 88.9463ZM20.1587 8.92911C17.9921 8.94046 15.9177 9.80698 14.3869 11.3401C12.8561 12.8733 11.9927 14.9489 11.9846 17.1155V79.6704C11.9878 81.8455 12.8533 83.9305 14.3913 85.4685C15.9293 87.0065 18.0144 87.872 20.1894 87.8753H48.7248C50.8977 87.8687 52.9796 87.0018 54.5149 85.4642C56.0502 83.9265 56.914 81.8434 56.9173 79.6704V17.1155C56.9156 14.9394 56.0509 12.8527 54.5127 11.3134C52.9746 9.77408 50.8886 8.90775 48.7124 8.90449L20.1587 8.92911Z" fill="black"/>
<path d="M57.434 16.8818H11.418V77.2394H57.434V16.8818Z" fill="white"/>
<path d="M57.4343 77.7809H11.4183C11.348 77.7809 11.2783 77.767 11.2134 77.7401C11.1484 77.7132 11.0894 77.6738 11.0397 77.6241C10.9899 77.5743 10.9505 77.5153 10.9236 77.4503C10.8967 77.3854 10.8828 77.3157 10.8828 77.2454V16.8817C10.8828 16.7397 10.9392 16.6035 11.0397 16.503C11.1401 16.4026 11.2763 16.3462 11.4183 16.3462H57.4343C57.5764 16.3462 57.7126 16.4026 57.813 16.503C57.9134 16.6035 57.9698 16.7397 57.9698 16.8817V77.2454C57.9698 77.3874 57.9134 77.5236 57.813 77.6241C57.7126 77.7245 57.5764 77.7809 57.4343 77.7809ZM11.9846 76.7099H56.9173V17.4172H11.9846V76.7099Z" fill="black"/>
<path d="M39.066 82.114H30.7503C30.6083 82.114 30.4721 82.0575 30.3717 81.9571C30.2713 81.8567 30.2148 81.7205 30.2148 81.5785C30.2148 81.4364 30.2713 81.3002 30.3717 81.1998C30.4721 81.0994 30.6083 81.043 30.7503 81.043H39.066C39.208 81.043 39.3442 81.0994 39.4446 81.1998C39.545 81.3002 39.6015 81.4364 39.6015 81.5785C39.6015 81.7205 39.545 81.8567 39.4446 81.9571C39.3442 82.0575 39.208 82.114 39.066 82.114Z" fill="black"/>
<g opacity="0.13">
<path d="M53.2857 16.1493C51.7161 16.1062 50.1466 16.0324 48.577 16.0508C44.3464 16.0098 40.1198 16.0098 35.8974 16.0508C32.5736 16.0508 29.2437 16.217 25.926 15.9893C21.8513 15.8662 17.7704 15.6261 13.6957 15.7862C13.1233 15.7862 12.5508 15.7862 11.9784 15.7862C11.633 15.7182 11.2751 15.7546 10.9505 15.8908C10.6189 16.0311 10.3462 16.2819 10.1787 16.6006C10.0113 16.9193 9.9594 17.2862 10.032 17.6388C10.1045 17.9915 10.297 18.3081 10.5767 18.5347C10.8564 18.7614 11.206 18.8842 11.566 18.8822C13.5541 19.0238 15.5484 18.8822 17.5427 18.913C19.9186 18.913 22.2883 19.1038 24.6581 19.153C33.5215 19.2023 42.3911 19.2392 51.2545 19.0853C52.4301 19.0853 53.6119 19.0853 54.7876 19.0546C55.7601 19.1653 56.7511 18.7037 56.7634 17.6081C56.6341 15.7123 54.5968 16.217 53.2857 16.1493Z" fill="black"/>
</g>
<path d="M59.3789 62.1837L70.5998 73.2199C72.5285 75.1902 74.5671 77.05 76.7057 78.7903C77.8629 79.7013 79.1678 80.563 80.5711 80.563C81.3194 80.5575 82.0371 80.2653 82.5764 79.7466C83.1157 79.2279 83.4356 78.5222 83.4702 77.7747C83.4702 76.5437 82.6023 75.5343 81.796 74.6971C75.846 68.4148 69.6334 62.4648 63.1582 56.8472C61.9518 58.5829 60.7638 60.3187 59.3789 62.1837Z" fill="white"/>
<path d="M80.5482 81.0984C78.9725 81.0984 77.5999 80.1936 76.3504 79.215C74.1948 77.4609 72.1399 75.5868 70.1952 73.6015L58.9744 62.5652C58.8824 62.4729 58.8268 62.3505 58.8177 62.2205C58.8087 62.0905 58.8468 61.9616 58.9251 61.8574C60.3285 60.0108 61.5226 58.2505 62.6859 56.5516C62.7291 56.4896 62.7849 56.4372 62.8495 56.398C62.9142 56.3588 62.9864 56.3335 63.0614 56.3239C63.1359 56.3118 63.2122 56.3166 63.2846 56.3379C63.3571 56.3592 63.4238 56.3965 63.4799 56.447C69.9305 62.0359 76.215 68.0495 82.1547 74.297C83.0349 75.2202 83.9643 76.322 84.0013 77.7562C84.0002 78.1772 83.9153 78.5938 83.7515 78.9816C83.5877 79.3695 83.3483 79.7208 83.0472 80.0151C82.3886 80.6901 81.4911 81.0791 80.5482 81.0984ZM60.07 62.1098L70.9523 72.8197C72.868 74.776 74.89 76.6254 77.009 78.3594C78.1108 79.2211 79.2987 80.0151 80.5482 80.0151C81.1981 79.9968 81.8157 79.7277 82.2717 79.2642C82.6667 78.8667 82.888 78.3289 82.8872 77.7685C82.8872 76.7283 82.1301 75.8481 81.3607 75.0356C75.581 68.942 69.4812 63.0884 63.2153 57.635C62.255 59.0937 61.2271 60.5771 60.07 62.1098Z" fill="black"/>
<path d="M44.7656 21.4858C40.1527 21.4846 35.643 22.8514 31.8069 25.4133C27.9709 27.9752 24.9807 31.6172 23.2145 35.8786C21.4484 40.14 20.9857 44.8295 21.8849 49.3539C22.7841 53.8783 25.0048 58.0344 28.2661 61.2967C31.5275 64.5589 35.6831 66.7807 40.2073 67.6811C44.7315 68.5815 49.421 68.12 53.6829 66.355C57.9448 64.59 61.5875 61.6008 64.1504 57.7654C66.7134 53.93 68.0814 49.4207 68.0814 44.8078C68.0822 41.7454 67.4797 38.7128 66.3083 35.8833C65.1369 33.0538 63.4197 30.4828 61.2545 28.317C59.0894 26.1513 56.5188 24.4333 53.6896 23.2612C50.8604 22.0891 47.828 21.4858 44.7656 21.4858ZM44.7656 62.5162C41.2599 62.521 37.8316 61.4856 34.9147 59.541C31.9977 57.5964 29.7234 54.83 28.3796 51.5921C27.0357 48.3541 26.6829 44.7903 27.3656 41.3517C28.0483 37.9131 29.736 34.7544 32.2149 32.2755C34.6938 29.7966 37.8525 28.109 41.2911 27.4262C44.7296 26.7435 48.2935 27.0964 51.5314 28.4402C54.7693 29.784 57.5357 32.0584 59.4804 34.9753C61.425 37.8922 62.4604 41.3205 62.4555 44.8262C62.4555 49.5196 60.5923 54.021 57.2754 57.3414C53.9584 60.6619 49.4589 62.5297 44.7656 62.5346V62.5162ZM44.7656 62.5162C41.2599 62.521 37.8316 61.4856 34.9147 59.541C31.9977 57.5964 29.7234 54.83 28.3796 51.5921C27.0357 48.3541 26.6829 44.7903 27.3656 41.3517C28.0483 37.9131 29.736 34.7544 32.2149 32.2755C34.6938 29.7966 37.8525 28.109 41.2911 27.4262C44.7296 26.7435 48.2935 27.0964 51.5314 28.4402C54.7693 29.784 57.5357 32.0584 59.4804 34.9753C61.425 37.8922 62.4604 41.3205 62.4555 44.8262C62.4555 49.5196 60.5923 54.021 57.2754 57.3414C53.9584 60.6619 49.4589 62.5297 44.7656 62.5346V62.5162Z" fill="white"/>
<path d="M44.7682 68.6773C40.0488 68.6797 35.4348 67.2824 31.5097 64.6621C27.5846 62.0418 24.5248 58.3163 22.7174 53.9568C20.91 49.5973 20.4362 44.7996 21.3558 40.1708C22.2755 35.5419 24.5473 31.2898 27.8839 27.9523C31.2206 24.6148 35.4721 22.3418 40.1007 21.421C44.7294 20.5001 49.5271 20.9727 53.8871 22.779C58.2471 24.5853 61.9734 27.6441 64.5947 31.5685C67.216 35.493 68.6145 40.1067 68.6133 44.826C68.6051 51.1482 66.0905 57.2092 61.6206 61.6802C57.1507 66.1512 51.0903 68.6675 44.7682 68.6773ZM44.7682 22.0396C40.2639 22.0396 35.8607 23.3752 32.1156 25.8777C28.3704 28.3801 25.4514 31.937 23.7276 36.0984C22.0039 40.2598 21.5529 44.8389 22.4317 49.2567C23.3104 53.6744 25.4794 57.7324 28.6644 60.9174C31.8494 64.1024 35.9074 66.2714 40.3252 67.1502C44.7429 68.0289 49.322 67.5779 53.4834 65.8542C57.6449 64.1305 61.2017 61.2115 63.7041 57.4663C66.2066 53.7211 67.5423 49.318 67.5423 44.8137C67.5325 38.7766 65.1299 32.9896 60.8611 28.7207C56.5922 24.4519 50.8052 22.0493 44.7682 22.0396ZM44.7682 63.0699C41.1581 63.0711 37.6288 62.0016 34.6266 59.9968C31.6245 57.9919 29.2844 55.1417 27.9023 51.8067C26.5203 48.4716 26.1583 44.8017 26.8623 41.2609C27.5663 37.7202 29.3046 34.4678 31.8573 31.9151C34.41 29.3624 37.6624 27.6241 41.2031 26.9201C44.7438 26.2161 48.4138 26.5781 51.7489 27.9601C55.0839 29.3422 57.9341 31.6823 59.9389 34.6845C61.9438 37.6866 63.0133 41.2159 63.0121 44.826C63.0072 49.6631 61.0835 54.3006 57.6632 57.721C54.2428 61.1413 49.6053 63.065 44.7682 63.0699ZM27.5952 44.826C27.5977 48.2219 28.6069 51.5409 30.4954 54.3634C32.3839 57.1858 35.0667 59.385 38.2049 60.6829C41.3431 61.9808 44.7956 62.3191 48.126 61.6551C51.4564 60.9911 54.5152 59.3546 56.9156 56.9524C59.316 54.5502 60.9504 51.4903 61.612 48.1594C62.2736 44.8285 61.9328 41.3763 60.6327 38.239C59.3325 35.1018 57.1314 32.4205 54.3076 30.5341C51.4838 28.6476 48.1641 27.6408 44.7682 27.6408C40.213 27.6457 35.846 29.4582 32.6261 32.6803C29.4063 35.9025 27.5969 40.2708 27.5952 44.826Z" fill="black"/>
<path d="M62.363 62.8484H62.3138C62.2911 62.8421 62.2699 62.8312 62.2514 62.8166C62.2329 62.802 62.2175 62.7839 62.2061 62.7633C62.1946 62.7427 62.1874 62.72 62.1847 62.6966C62.1821 62.6732 62.1841 62.6495 62.1907 62.6268L62.603 61.1927C62.6094 61.17 62.6202 61.1488 62.6349 61.1303C62.6495 61.1118 62.6676 61.0964 62.6882 61.085C62.7088 61.0735 62.7315 61.0663 62.7549 61.0636C62.7783 61.061 62.802 61.063 62.8246 61.0696C62.8693 61.0838 62.9067 61.1149 62.9285 61.1564C62.9504 61.1979 62.9551 61.2463 62.9416 61.2912L62.5353 62.7253C62.5235 62.7615 62.5004 62.7931 62.4694 62.8152C62.4384 62.8374 62.4011 62.849 62.363 62.8484Z" fill="black"/>
<path d="M64.3042 65.3658C64.2807 65.3628 64.258 65.3551 64.2375 65.3432C64.2169 65.3313 64.199 65.3154 64.1846 65.2965C64.1703 65.2776 64.1599 65.256 64.154 65.233C64.1481 65.21 64.1469 65.1861 64.1503 65.1626C64.3719 63.4884 64.6366 61.7896 64.9382 60.1277C64.9408 60.1034 64.9484 60.0799 64.9605 60.0586C64.9725 60.0374 64.9888 60.0188 65.0084 60.0041C65.0279 59.9894 65.0502 59.9789 65.074 59.9732C65.0978 59.9675 65.1225 59.9667 65.1465 59.9709C65.1706 59.9752 65.1936 59.9843 65.214 59.9978C65.2344 60.0112 65.2518 60.0287 65.2652 60.0492C65.2785 60.0697 65.2876 60.0927 65.2917 60.1167C65.2958 60.1408 65.2949 60.1655 65.289 60.1893C64.9874 61.8512 64.7228 63.5377 64.5012 65.2119C64.495 65.2582 64.471 65.3003 64.4341 65.329C64.3973 65.3578 64.3507 65.371 64.3042 65.3658Z" fill="black"/>
<path d="M66.8699 67.8031C66.8226 67.8031 66.7772 67.7843 66.7437 67.7508C66.7102 67.7173 66.6914 67.6719 66.6914 67.6246C66.6914 66.7875 66.8207 65.3841 66.9376 64.1408C67.0053 63.3837 67.0669 62.7251 67.0853 62.2942C67.0853 62.2469 67.1041 62.2015 67.1376 62.168C67.1711 62.1345 67.2165 62.1157 67.2638 62.1157C67.3112 62.1157 67.3566 62.1345 67.3901 62.168C67.4235 62.2015 67.4423 62.2469 67.4423 62.2942C67.4423 62.7128 67.3623 63.3714 67.2946 64.1408C67.1777 65.3718 67.0484 66.7752 67.0484 67.5938C67.0542 67.6198 67.0538 67.6469 67.0474 67.6727C67.0409 67.6986 67.0286 67.7226 67.0113 67.7429C66.994 67.7632 66.9722 67.7792 66.9477 67.7896C66.9231 67.8001 66.8965 67.8047 66.8699 67.8031Z" fill="black"/>
<path d="M69.4819 70.2097C69.4356 70.2098 69.3911 70.1918 69.3578 70.1596C69.3245 70.1275 69.305 70.0837 69.3034 70.0374L69.168 64.0792C69.1694 64.0317 69.1885 63.9865 69.2215 63.9523C69.2545 63.9182 69.2991 63.8976 69.3465 63.8945C69.3933 63.8961 69.4378 63.9154 69.471 63.9485C69.5041 63.9817 69.5234 64.0262 69.5249 64.073L69.6604 70.0251C69.6612 70.0485 69.6574 70.0719 69.6492 70.0939C69.641 70.1158 69.6285 70.136 69.6125 70.1531C69.5965 70.1703 69.5773 70.1841 69.5559 70.1938C69.5345 70.2035 69.5115 70.2089 69.488 70.2097H69.4819Z" fill="black"/>
<path d="M71.9594 72.8445C71.9131 72.8445 71.8686 72.8265 71.8353 72.7944C71.802 72.7622 71.7825 72.7184 71.7809 72.6721L71.547 66.4185C71.5462 66.395 71.55 66.3717 71.5582 66.3497C71.5664 66.3277 71.5789 66.3076 71.5949 66.2904C71.6109 66.2733 71.6301 66.2595 71.6515 66.2497C71.6728 66.24 71.6959 66.2346 71.7193 66.2338C71.743 66.2321 71.7667 66.2353 71.7891 66.2432C71.8114 66.2511 71.8319 66.2636 71.8492 66.2797C71.8666 66.2959 71.8804 66.3155 71.8898 66.3372C71.8992 66.359 71.904 66.3825 71.904 66.4062L72.1379 72.6413C72.1387 72.6648 72.1349 72.6882 72.1267 72.7102C72.1184 72.7321 72.106 72.7523 72.09 72.7694C72.074 72.7866 72.0547 72.8004 72.0334 72.8101C72.012 72.8198 71.989 72.8252 71.9655 72.826L71.9594 72.8445Z" fill="black"/>
<path d="M74.489 75.0664C74.4428 75.0664 74.3983 75.0484 74.365 75.0163C74.3317 74.9841 74.3122 74.9403 74.3106 74.894L73.9966 69.0712C73.9931 69.0258 74.007 68.9807 74.0356 68.9453C74.0642 68.9098 74.1054 68.8866 74.1505 68.8804C74.1744 68.8778 74.1985 68.8803 74.2213 68.8878C74.2441 68.8953 74.265 68.9077 74.2825 68.9241C74.3001 68.9405 74.3139 68.9604 74.323 68.9827C74.332 69.0049 74.3362 69.0288 74.3352 69.0528L74.6552 74.8756C74.657 74.9235 74.6399 74.9703 74.6077 75.0059C74.5756 75.0415 74.5308 75.0632 74.4829 75.0664H74.489Z" fill="black"/>
<path d="M76.991 77.1162C76.9457 77.1164 76.9021 77.0992 76.8689 77.0684C76.8358 77.0375 76.8156 76.9952 76.8125 76.95L76.3755 71.2811C76.3738 71.2577 76.3768 71.2341 76.3842 71.2118C76.3917 71.1895 76.4035 71.1689 76.4189 71.1512C76.4344 71.1335 76.4532 71.119 76.4742 71.1085C76.4953 71.0981 76.5182 71.0919 76.5417 71.0903C76.588 71.0869 76.6339 71.1017 76.6696 71.1316C76.7052 71.1615 76.7278 71.2041 76.7325 71.2504L77.1695 76.9254C77.1712 76.9489 77.1682 76.9724 77.1607 76.9947C77.1532 77.017 77.1415 77.0376 77.126 77.0554C77.1106 77.0731 77.0918 77.0876 77.0707 77.098C77.0497 77.1085 77.0268 77.1147 77.0033 77.1162H76.991Z" fill="black"/>
<path d="M79.3522 78.9627C79.3086 78.9628 79.2665 78.9463 79.2345 78.9166C79.2025 78.8869 79.183 78.8462 79.1799 78.8027L78.669 73.8231C78.6665 73.8 78.6686 73.7766 78.6754 73.7543C78.6821 73.7321 78.6933 73.7114 78.7083 73.6935C78.7232 73.6757 78.7416 73.6611 78.7624 73.6506C78.7831 73.6401 78.8058 73.6338 78.829 73.6323C78.8754 73.6289 78.9213 73.6437 78.957 73.6736C78.9926 73.7035 79.0151 73.7461 79.0198 73.7924L79.5307 78.7657C79.5333 78.7884 79.5313 78.8113 79.525 78.8332C79.5186 78.8551 79.5079 78.8755 79.4936 78.8933C79.4793 78.911 79.4616 78.9257 79.4416 78.9366C79.4215 78.9475 79.3995 78.9542 79.3768 78.9565L79.3522 78.9627Z" fill="black"/>
<path d="M81.6743 78.7285C81.6316 78.7288 81.5904 78.7132 81.5585 78.6847C81.5267 78.6563 81.5065 78.6171 81.5019 78.5746L81.1388 76.3526C81.1317 76.3061 81.1432 76.2587 81.1709 76.2207C81.1985 76.1827 81.2401 76.1571 81.2865 76.1495C81.3096 76.1451 81.3334 76.1455 81.3564 76.1507C81.3793 76.1558 81.401 76.1656 81.42 76.1794C81.439 76.1933 81.455 76.2109 81.467 76.2311C81.479 76.2514 81.4867 76.2739 81.4896 76.2972L81.8528 78.5192C81.8599 78.5657 81.8484 78.6132 81.8207 78.6512C81.793 78.6892 81.7515 78.7148 81.7051 78.7224L81.6743 78.7285Z" fill="black"/>
<g opacity="0.13">
<path d="M61.2621 50.4641C60.6774 50.9565 60.4066 51.7567 59.908 52.3415C59.2979 53.1007 58.6421 53.8222 57.9445 54.5019C57.3597 55.0251 56.7996 55.4806 56.2272 55.9176C56.1208 55.9393 56.0188 55.9788 55.9256 56.0346C53.0142 58.1458 50.823 58.9152 47.136 59.5923C44.9846 60.074 42.7505 60.0466 40.6116 59.5122C38.685 59.0629 37.7494 58.5336 35.7367 57.1794C34.245 56.0483 32.8826 54.7561 31.6742 53.3263C30.7322 52.0125 30.0031 50.5585 29.5138 49.0177C29.2245 48.236 29.0029 47.4358 28.7752 46.6356C28.479 45.8637 28.3287 45.0435 28.332 44.2166C28.1227 43.6011 27.9257 43.0225 27.7472 42.4132C27.5766 42.3322 27.388 42.2961 27.1994 42.3085C26.9008 44.7088 26.9132 47.1376 27.2364 49.5347C27.7596 51.609 28.4058 53.8433 30.394 56.09C31.4154 57.1916 32.5524 58.1801 33.7855 59.0383C35.3641 60.2461 37.1208 61.2013 38.9927 61.8697C40.0366 62.1408 41.1009 62.3261 42.175 62.4236C43.3362 62.6216 44.52 62.6506 45.6896 62.5098C46.6002 62.3978 47.4985 62.2021 48.3732 61.9251C50.2302 61.5155 52.029 60.8766 53.7282 60.0231C54.1535 59.7711 54.5645 59.4958 54.9592 59.1983C56.9002 57.9988 58.6756 56.5503 60.2404 54.8897C60.5235 54.2742 60.8005 53.7141 61.0528 53.117C61.3791 52.2245 61.6684 51.332 62.0192 50.4395C61.8985 50.3895 61.7686 50.3658 61.638 50.37C61.5074 50.3743 61.3793 50.4063 61.2621 50.4641Z" fill="black"/>
</g>
<g opacity="0.13">
<path d="M65.0659 58.072C64.1796 57.8196 63.5825 58.4351 63.1455 59.1122L63.0839 59.186C62.3084 60.0909 62.093 60.0108 60.8127 61.168C60.5352 61.3063 60.2914 61.5038 60.0987 61.7466C59.9213 61.9529 59.8064 62.2054 59.7671 62.4746C59.7279 62.7438 59.766 63.0186 59.8771 63.2669C59.7161 63.2695 59.5575 63.3065 59.4121 63.3755C59.2666 63.4445 59.1376 63.5439 59.0338 63.667C58.7913 63.9264 58.5185 64.1558 58.2213 64.3502C56.8868 65.2284 55.478 65.9884 54.0112 66.6215C50.4659 67.9879 47.9915 68.665 44.5815 68.468C39.1219 68.3265 34.5486 66.246 30.5108 63.4023C29.7772 62.8745 29.1152 62.2538 28.5412 61.5558L28.7073 61.7712C28.1349 61.088 27.6917 60.1955 26.8608 59.7646C26.6319 59.6729 26.3786 59.6624 26.143 59.735C25.9073 59.8076 25.7038 59.9588 25.5662 60.1633C25.4286 60.3679 25.3653 60.6135 25.387 60.8591C25.4086 61.1046 25.5139 61.3354 25.6852 61.5127C26.4115 62.1282 26.9162 63.1808 28.0672 64.2087C29.1902 65.21 30.4303 66.0718 31.7603 66.7754C32.8384 67.479 33.9704 68.0964 35.1456 68.6219C36.5324 69.2592 37.9746 69.7681 39.4543 70.1422C42.117 70.7492 44.8553 70.9567 47.5791 70.7578C50.7396 70.3283 53.793 69.3161 56.5841 67.7725C58.0461 67.0605 59.4062 66.1558 60.628 65.0827C60.7388 64.9692 60.8228 64.8323 60.8739 64.6822C60.925 64.532 60.942 64.3724 60.9235 64.2148C61.1269 64.2821 61.3427 64.3038 61.5554 64.2782C61.7682 64.2527 61.9728 64.1806 62.1545 64.0671C63.1685 63.4982 64.0514 62.7223 64.7458 61.7897C65.2055 61.305 65.6177 60.7773 65.9768 60.214C66.0867 60.0179 66.1501 59.7992 66.1623 59.5748C66.1745 59.3504 66.1351 59.1262 66.0471 58.9194C65.9592 58.7126 65.825 58.5286 65.6549 58.3817C65.4848 58.2348 65.2833 58.1289 65.0659 58.072Z" fill="black"/>
</g>
<path d="M14.3426 58.1461C14.3212 58.1471 14.2998 58.1438 14.2797 58.1364C14.2596 58.129 14.2413 58.1176 14.2256 58.103C14.1936 58.0688 14.1758 58.0237 14.1758 57.9768C14.1758 57.9299 14.1936 57.8848 14.2256 57.8506C15.6113 56.2173 17.1263 54.6982 18.7558 53.3081C18.7893 53.2747 18.8347 53.2559 18.882 53.2559C18.9293 53.2559 18.9747 53.2747 19.0082 53.3081C19.0245 53.3242 19.0376 53.3433 19.0465 53.3645C19.0553 53.3856 19.0599 53.4083 19.0599 53.4312C19.0599 53.4541 19.0553 53.4768 19.0465 53.498C19.0376 53.5191 19.0245 53.5383 19.0082 53.5543C17.3744 54.9286 15.8571 56.4356 14.4718 58.0599C14.4585 58.0834 14.4399 58.1034 14.4175 58.1184C14.395 58.1333 14.3694 58.1428 14.3426 58.1461Z" fill="black"/>
<path d="M13.7066 63.3407C13.6833 63.3406 13.6604 63.3356 13.6391 63.3261C13.6179 63.3165 13.599 63.3026 13.5835 63.2853C13.55 63.2518 13.5312 63.2064 13.5312 63.1591C13.5312 63.1118 13.55 63.0664 13.5835 63.0329C16.1071 60.4662 18.7169 57.9241 21.3328 55.4682C21.3488 55.448 21.3689 55.4315 21.3919 55.4198C21.4148 55.4081 21.4401 55.4016 21.4658 55.4005C21.4915 55.3995 21.5172 55.404 21.541 55.4139C21.5648 55.4237 21.5862 55.4386 21.6037 55.4574C21.6212 55.4763 21.6345 55.4987 21.6425 55.5232C21.6505 55.5477 21.6532 55.5736 21.6503 55.5992C21.6473 55.6248 21.6389 55.6494 21.6255 55.6714C21.6122 55.6935 21.5942 55.7123 21.5729 55.7268C18.9631 58.1888 16.3595 60.7248 13.842 63.2853C13.8246 63.3036 13.8036 63.318 13.7802 63.3275C13.7569 63.3371 13.7318 63.3415 13.7066 63.3407Z" fill="black"/>
<path d="M13.1106 69.496C13.0892 69.497 13.0678 69.4937 13.0478 69.4863C13.0277 69.4789 13.0093 69.4675 12.9937 69.4529C12.9602 69.4194 12.9414 69.374 12.9414 69.3267C12.9414 69.2794 12.9602 69.234 12.9937 69.2005C15.8435 65.9198 18.878 62.7253 21.9987 59.7031C22.0321 59.6697 22.0775 59.6509 22.1248 59.6509C22.1721 59.6509 22.2175 59.6697 22.251 59.7031C22.283 59.7373 22.3009 59.7824 22.3009 59.8293C22.3009 59.8762 22.283 59.9213 22.251 59.9555C19.1303 62.9715 16.0959 66.166 13.2645 69.4344C13.2461 69.4568 13.2223 69.4742 13.1954 69.4849C13.1685 69.4957 13.1394 69.4995 13.1106 69.496Z" fill="black"/>
<path d="M19.3348 67.8034C19.2918 67.8041 19.2501 67.7888 19.2178 67.7603C19.1858 67.7261 19.168 67.681 19.168 67.6342C19.168 67.5873 19.1858 67.5422 19.2178 67.508C20.8412 65.5544 22.6129 63.729 24.5174 62.0483C24.5509 62.0149 24.5963 61.9961 24.6436 61.9961C24.6909 61.9961 24.7363 62.0149 24.7698 62.0483C24.8018 62.0825 24.8196 62.1277 24.8196 62.1745C24.8196 62.2214 24.8018 62.2665 24.7698 62.3007C22.8811 63.9708 21.1238 65.7837 19.5133 67.7234C19.4945 67.7527 19.4676 67.7758 19.4359 67.79C19.4042 67.8043 19.3691 67.8089 19.3348 67.8034Z" fill="black"/>
<path d="M25.226 66.9599C25.1783 66.9596 25.1324 66.9421 25.0967 66.9106C25.0647 66.8764 25.0469 66.8313 25.0469 66.7845C25.0469 66.7376 25.0647 66.6925 25.0967 66.6583L27.6695 64.0054C27.7038 63.9734 27.7489 63.9556 27.7957 63.9556C27.8426 63.9556 27.8877 63.9734 27.9219 64.0054C27.9554 64.0389 27.9741 64.0843 27.9741 64.1316C27.9741 64.1789 27.9554 64.2243 27.9219 64.2578L25.3429 66.9045C25.3281 66.9211 25.3101 66.9345 25.2901 66.944C25.27 66.9536 25.2482 66.9589 25.226 66.9599Z" fill="black"/>
<path d="M44.0279 54L35.8 42.0181C35.1463 41.0659 34.8779 39.8881 35.0517 38.7348C35.2255 37.5814 35.8278 36.5435 36.7308 35.8414C37.1739 35.5012 37.6787 35.2563 38.2152 35.1212C38.7517 34.9862 39.309 34.9637 39.8541 35.0551C40.3992 35.1465 40.921 35.35 41.3885 35.6535C41.856 35.9569 42.2598 36.3542 42.5759 36.8217L43.9969 38.8977L45.4241 36.8217C45.7402 36.3542 46.144 35.9569 46.6115 35.6535C47.079 35.35 47.6008 35.1465 48.1459 35.0551C48.691 34.9637 49.2483 34.9862 49.7848 35.1212C50.3213 35.2563 50.8261 35.5012 51.2692 35.8414C52.1722 36.5435 52.7745 37.5814 52.9483 38.7348C53.1221 39.8881 52.8537 41.0659 52.2 42.0181L44.0279 54Z" fill="#F35A05"/>
<path d="M44.522 55C44.4361 54.9988 44.3517 54.9768 44.2756 54.9357C44.1994 54.8947 44.1336 54.8358 44.0834 54.7637L35.8729 42.8466C35.1537 41.7778 34.8626 40.4626 35.0607 39.1768C35.2588 37.891 35.9307 36.7343 36.9355 35.9493C37.4307 35.566 37.9956 35.2898 38.5964 35.1373C39.1972 34.9848 39.8216 34.959 40.4322 35.0616C41.0503 35.1619 41.6424 35.3901 42.1731 35.7325C42.7039 36.0748 43.1624 36.5244 43.5212 37.0541L44.4973 38.4847L45.4796 37.0541C45.8384 36.5244 46.2969 36.0748 46.8277 35.7325C47.3585 35.3901 47.9506 35.1619 48.5686 35.0616C49.1792 34.959 49.8036 34.9848 50.4044 35.1373C51.0052 35.2898 51.5701 35.566 52.0653 35.9493C53.0741 36.7378 53.747 37.9007 53.9418 39.1925C54.1366 40.4842 53.8381 41.8037 53.1094 42.8722L44.9421 54.7893C44.8923 54.8551 44.8285 54.9084 44.7557 54.9449C44.6829 54.9814 44.603 55.0003 44.522 55ZM39.7279 36.0834C38.9634 36.0853 38.22 36.3429 37.6089 36.8178C36.8249 37.433 36.3024 38.3386 36.1514 39.344C36.0005 40.3494 36.2328 41.3761 36.7996 42.208L44.522 53.48L52.2507 42.208C52.8174 41.3761 53.0497 40.3494 52.8988 39.344C52.7478 38.3386 52.2253 37.433 51.4414 36.8178C51.062 36.5229 50.6291 36.3099 50.1685 36.1914C49.7079 36.0729 49.2289 36.0514 48.7601 36.1281C48.2823 36.206 47.8247 36.3831 47.4148 36.6487C47.005 36.9143 46.6514 37.263 46.3754 37.6736L44.9545 39.7364C44.9054 39.8096 44.8398 39.8694 44.7634 39.9106C44.687 39.9517 44.602 39.9731 44.5158 39.9727C44.43 39.9715 44.3455 39.9495 44.2694 39.9085C44.1932 39.8674 44.1274 39.8085 44.0772 39.7364L42.6686 37.6736C42.3933 37.2637 42.0407 36.9154 41.632 36.6499C41.2233 36.3843 40.7668 36.2068 40.2901 36.1281C40.0937 36.0992 39.8955 36.0842 39.697 36.0834H39.7279Z" fill="#07040C"/>
</svg>
