<svg width="100" height="100" viewBox="0 0 100 100" fill="none" xmlns="http://www.w3.org/2000/svg">
<path d="M70.2094 7.62061L72.1866 14.0161H78.5821L73.4071 17.9634L75.3843 24.3589L70.2094 20.4045L65.0415 24.3589L67.0187 17.9634L61.8438 14.0161H68.2393L70.2094 7.62061Z" fill="white"/>
<path d="M75.3824 25.0083C75.2454 25.0094 75.112 24.9641 75.0041 24.8798L70.2074 21.2181L65.4179 24.8798C65.3134 24.9532 65.1888 24.9926 65.061 24.9926C64.9333 24.9926 64.8087 24.9532 64.7041 24.8798C64.5904 24.8046 64.5052 24.6933 64.4625 24.5638C64.4198 24.4343 64.4219 24.2942 64.4686 24.166L66.3101 18.1916L61.4849 14.5013C61.382 14.4223 61.3065 14.3131 61.2689 14.1889C61.2312 14.0647 61.2335 13.9319 61.2752 13.8091C61.3169 13.6862 61.3961 13.5795 61.5015 13.504C61.607 13.4285 61.7335 13.3878 61.8633 13.3878H67.7948L69.6364 7.43487C69.676 7.30877 69.7548 7.19859 69.8613 7.12038C69.9679 7.04217 70.0967 7 70.2289 7C70.361 7 70.4898 7.04217 70.5963 7.12038C70.7029 7.19859 70.7817 7.30877 70.8213 7.43487L72.6628 13.3878H78.6016C78.7307 13.3893 78.8561 13.431 78.9605 13.5071C79.0648 13.5832 79.1428 13.6899 79.1836 13.8124C79.2245 13.9349 79.2261 14.0671 79.1883 14.1906C79.1505 14.3141 79.0752 14.4227 78.9728 14.5013L74.1476 18.1916L75.9962 24.166C76.0404 24.2944 76.0412 24.4337 75.9987 24.5626C75.9561 24.6915 75.8726 24.8029 75.7607 24.8798C75.6527 24.9641 75.5194 25.0094 75.3824 25.0083ZM63.6763 14.6655L67.3879 17.5207C67.4884 17.5986 67.5633 17.7048 67.6027 17.8257C67.6422 17.9466 67.6445 18.0766 67.6092 18.1988L66.1817 22.7384L69.8077 19.9618C69.9162 19.8785 70.0492 19.8333 70.186 19.8333C70.3228 19.8333 70.4558 19.8785 70.5643 19.9618L74.1903 22.7384L72.7628 18.1988C72.7247 18.0774 72.7249 17.9473 72.7632 17.826C72.8015 17.7048 72.8761 17.5982 72.9769 17.5207L76.6886 14.6655H72.1346C72.0024 14.6655 71.8736 14.6232 71.767 14.5449C71.6605 14.4666 71.5817 14.3563 71.5422 14.2301L70.1574 9.75467L68.7799 14.2301C68.7394 14.3557 68.6604 14.4654 68.554 14.5436C68.4477 14.6217 68.3193 14.6644 68.1874 14.6655H63.6763Z" fill="black"/>
<path d="M87.4321 17.9917L88.6526 21.9461H92.607L89.4093 24.3944L90.6298 28.3487L87.4321 25.9005L84.2272 28.3487L85.4549 24.3944L82.25 21.9461H86.2115L87.4321 17.9917Z" fill="white"/>
<path d="M90.6283 28.9698C90.4917 28.9687 90.359 28.9237 90.25 28.8413L87.4306 26.6999L84.5754 28.8413C84.4713 28.9157 84.3465 28.9557 84.2185 28.9557C84.0906 28.9557 83.9658 28.9157 83.8616 28.8413C83.7485 28.7654 83.6634 28.6544 83.6196 28.5254C83.5757 28.3965 83.5755 28.2566 83.6189 28.1275L84.7182 24.5586L81.863 22.3744C81.754 22.2954 81.6739 22.1827 81.6352 22.0537C81.5966 21.9247 81.6014 21.7866 81.6489 21.6606C81.6905 21.5382 81.7692 21.4319 81.8742 21.3564C81.9791 21.2809 82.1049 21.24 82.2342 21.2395H85.7318L86.8239 17.7205C86.8635 17.5944 86.9423 17.4842 87.0489 17.406C87.1554 17.3278 87.2841 17.2856 87.4163 17.2856C87.5485 17.2856 87.6772 17.3278 87.7837 17.406C87.8903 17.4842 87.9691 17.5944 88.0087 17.7205L89.0937 21.2395H92.5912C92.7217 21.2385 92.8492 21.2787 92.9555 21.3543C93.0619 21.4299 93.1417 21.5371 93.1837 21.6606C93.2312 21.7866 93.236 21.9247 93.1973 22.0537C93.1586 22.1827 93.0786 22.2954 92.9696 22.3744L90.1144 24.5586L91.2065 28.1275C91.2531 28.2556 91.2553 28.3958 91.2126 28.5253C91.1698 28.6548 91.0847 28.7661 90.9709 28.8413C90.8731 28.9192 90.7532 28.9642 90.6283 28.9698ZM87.4306 25.2795C87.5674 25.2795 87.7003 25.3247 87.8088 25.408L89.4649 26.6785L88.8153 24.5729C88.7772 24.4515 88.7774 24.3214 88.8157 24.2001C88.854 24.0789 88.9286 23.9723 89.0295 23.8948L90.7711 22.5671H88.6297C88.4974 22.5671 88.3687 22.5248 88.2622 22.4465C88.1556 22.3682 88.0768 22.2579 88.0373 22.1317L87.4091 20.0903L86.781 22.1317C86.7415 22.2579 86.6627 22.3682 86.5561 22.4465C86.4496 22.5248 86.3208 22.5671 86.1886 22.5671H84.0472L85.7888 23.8948C85.8897 23.9723 85.9643 24.0789 86.0026 24.2001C86.0409 24.3214 86.041 24.4515 86.003 24.5729L85.3534 26.6785L87.0094 25.408C87.1294 25.3152 87.2792 25.2695 87.4306 25.2795Z" fill="black"/>
<path d="M22.5557 69.7344C21.4174 68.1279 20.6067 66.3128 20.17 64.393C19.7333 62.4731 19.6791 60.486 20.0105 58.5452C20.342 56.6044 21.0525 54.7479 22.1016 53.0817C23.1506 51.4156 24.5177 49.9724 26.1246 48.8347L58.659 25.7865L50.4362 14.1875L16.9382 37.9209C10.628 42.4001 6.35328 49.2004 5.05248 56.8286C3.75167 64.4567 5.53112 72.2894 10.0001 78.6067C14.4783 84.918 21.278 89.1942 28.9062 90.4963C36.5345 91.7985 44.3677 90.0202 50.686 85.5519L84.1768 61.8185L75.954 50.2195L43.4268 73.2676C40.1887 75.5611 36.1733 76.4771 32.2609 75.8148C28.3485 75.1525 24.8584 72.9659 22.5557 69.7344Z" fill="white"/>
<path d="M33.8911 91.5831C32.1881 91.5816 30.4882 91.4384 28.809 91.1549C22.9941 90.1621 17.6041 87.4674 13.3205 83.4116C9.0369 79.3557 6.05203 74.1209 4.74333 68.3688C3.43462 62.6168 3.86081 56.6058 5.96801 51.096C8.07521 45.5861 11.7688 40.8247 16.5818 37.4139L50.0726 13.6805C50.2071 13.5861 50.3736 13.5489 50.5354 13.577C50.6973 13.6051 50.8415 13.6962 50.9363 13.8304L59.1591 25.4294C59.2518 25.565 59.2877 25.7316 59.2591 25.8934C59.247 25.9735 59.2186 26.0504 59.1756 26.1191C59.1327 26.1879 59.076 26.2471 59.0093 26.2931L26.482 49.3412C24.9415 50.432 23.631 51.8156 22.6254 53.413C21.6198 55.0104 20.9388 56.7902 20.6213 58.6509C20.3038 60.5115 20.356 62.4165 20.7749 64.257C21.1939 66.0975 21.9714 67.8373 23.0629 69.3772C25.2652 72.4878 28.611 74.5983 32.3669 75.2459C36.1227 75.8935 39.9821 75.0254 43.0989 72.832L75.6262 49.7767C75.7608 49.6815 75.9275 49.643 76.0902 49.6696C76.1707 49.6833 76.2475 49.7131 76.3162 49.7573C76.3849 49.8015 76.4439 49.859 76.4898 49.9266L84.7127 61.5256C84.8054 61.6612 84.8413 61.8278 84.8126 61.9895C84.7994 62.0693 84.7704 62.1457 84.7276 62.2143C84.6847 62.2829 84.6287 62.3424 84.5628 62.3893L51.0719 86.1227C46.052 89.6849 40.0465 91.5936 33.8911 91.5831ZM50.3082 15.0509L17.3027 38.4274C11.117 42.8099 6.9257 49.4701 5.65068 56.9429C4.37565 64.4157 6.12141 72.0889 10.5039 78.2746C14.8864 84.4602 21.5466 88.6516 29.0194 89.9266C36.4922 91.2016 44.1654 89.4559 50.351 85.0734L83.3351 61.6969L75.8404 51.1114L43.8127 73.8027C40.4333 76.1929 36.2436 77.1446 32.1633 76.4487C28.083 75.7528 24.4455 73.4662 22.0494 70.091C19.6573 66.7123 18.7045 62.522 19.4005 58.4411C20.0965 54.3602 22.3843 50.7226 25.7611 48.3277L57.7815 25.6364L50.3082 15.0509Z" fill="black"/>
<path d="M50.4421 14.2176L40.5703 21.2124L48.7866 32.8081L58.6583 25.8133L50.4421 14.2176Z" fill="#F35A05"/>
<path d="M48.7789 33.4024C48.6794 33.4022 48.5815 33.3781 48.4933 33.3321C48.4051 33.2861 48.3292 33.2197 48.2721 33.1383L40.0564 21.5393C39.9613 21.4056 39.923 21.2398 39.9497 21.078C39.9765 20.9162 40.0661 20.7715 40.1991 20.6756L50.0708 13.6805C50.2053 13.5861 50.3717 13.5489 50.5336 13.577C50.6955 13.6051 50.8397 13.6962 50.9345 13.8304L59.1573 25.4294C59.25 25.565 59.2859 25.7316 59.2572 25.8934C59.2452 25.9735 59.2168 26.0504 59.1738 26.1191C59.1308 26.1879 59.0742 26.2471 59.0074 26.2931L49.1286 33.2882C49.0267 33.3615 48.9045 33.4015 48.7789 33.4024ZM41.4269 21.3323L48.9287 31.9177L57.7797 25.6364L50.2849 15.0509L41.4269 21.3323Z" fill="black"/>
<path d="M75.9967 50.2806L66.125 57.2754L74.3413 68.8711L84.213 61.8763L75.9967 50.2806Z" fill="#F35A05"/>
<path d="M74.3336 69.4629H74.2265C74.0648 69.4329 73.9212 69.3406 73.8267 69.2059L65.6111 57.6069C65.516 57.4733 65.4777 57.3074 65.5044 57.1456C65.5312 56.9838 65.6208 56.8391 65.7538 56.7432L75.6255 49.7481C75.7601 49.6529 75.9268 49.6145 76.0895 49.641C76.17 49.6548 76.2468 49.6846 76.3155 49.7288C76.3842 49.7729 76.4433 49.8305 76.4892 49.898L84.712 61.497C84.8045 61.6321 84.8406 61.798 84.8126 61.9593C84.7846 62.1207 84.6948 62.2647 84.5621 62.3607L74.6905 69.3558C74.5847 69.426 74.4605 69.4632 74.3336 69.4629ZM66.9744 57.3927L74.4763 67.9782L83.3273 61.6969L75.8325 51.1114L66.9744 57.3927Z" fill="black"/>
<path d="M84.9255 49.9907C84.8665 50.001 84.8061 50.001 84.7471 49.9907C84.6688 49.9678 84.5958 49.9296 84.5323 49.8785C84.4687 49.8273 84.4159 49.7641 84.3767 49.6925C84.3376 49.621 84.3131 49.5424 84.3043 49.4613C84.2956 49.3801 84.303 49.2981 84.326 49.2199L87.331 38.9699C87.3597 38.8685 87.4142 38.7764 87.4893 38.7026C87.5644 38.6288 87.6574 38.5757 87.7592 38.5487C87.8592 38.5206 87.9647 38.5183 88.0658 38.542C88.167 38.5657 88.2604 38.6147 88.3374 38.6844L91.5851 41.5895L94.7971 32.5172C94.8547 32.3656 94.9694 32.2425 95.1166 32.1743C95.2638 32.106 95.4318 32.0981 95.5847 32.1522C95.7377 32.2063 95.8634 32.3181 95.935 32.4637C96.0066 32.6093 96.0183 32.7771 95.9678 32.9312L92.4488 42.8529C92.4131 42.9485 92.3549 43.0341 92.2791 43.1024C92.2033 43.1707 92.1121 43.2198 92.0134 43.2454C91.9154 43.2704 91.8129 43.2711 91.7147 43.2475C91.6164 43.2239 91.5254 43.1766 91.4495 43.1098L88.2446 40.2547L85.5179 49.5339C85.4822 49.6641 85.4052 49.7791 85.2983 49.8615C85.1914 49.944 85.0605 49.9893 84.9255 49.9907Z" fill="black"/>
<path d="M10.4347 79.8629C10.3025 79.864 10.1734 79.8229 10.0662 79.7455C9.95894 79.6681 9.87923 79.5585 9.83862 79.4327C9.798 79.3069 9.79861 79.1713 9.84036 79.0459C9.88211 78.9204 9.96282 78.8115 10.0707 78.7351L22.6119 69.7985C22.7465 69.7155 22.9078 69.6869 23.0627 69.7187C23.2176 69.7505 23.3546 69.8402 23.4457 69.9695C23.5368 70.0988 23.575 70.258 23.5527 70.4146C23.5304 70.5712 23.4492 70.7133 23.3257 70.8121L10.7845 79.7415C10.6832 79.817 10.561 79.8594 10.4347 79.8629Z" fill="black"/>
<path d="M7.11883 67.2215H7.04032C6.98893 67.2008 6.94755 67.1609 6.92492 67.1103C6.90229 67.0598 6.90015 67.0024 6.91895 66.9503L17.1832 40.0691C17.2048 40.0203 17.2442 39.9818 17.2935 39.9615C17.3427 39.9411 17.3979 39.9406 17.4475 39.9599C17.4972 39.9792 17.5374 40.0169 17.56 40.0651C17.5826 40.1134 17.5857 40.1685 17.5687 40.2189L7.31152 67.1216C7.29122 67.1539 7.26268 67.1802 7.22879 67.1978C7.19491 67.2153 7.15695 67.2235 7.11883 67.2215Z" fill="black"/>
<path d="M8.34602 71.59H8.27466C8.22327 71.5693 8.18192 71.5294 8.15929 71.4788C8.13666 71.4283 8.13453 71.3709 8.15332 71.3188L21.1442 37.2854C21.1649 37.234 21.2048 37.1927 21.2554 37.17C21.306 37.1474 21.3633 37.1453 21.4154 37.1641C21.4408 37.1743 21.464 37.1894 21.4835 37.2086C21.503 37.2278 21.5185 37.2506 21.5292 37.2759C21.5398 37.3011 21.5453 37.3282 21.5454 37.3555C21.5455 37.3829 21.5401 37.41 21.5297 37.4353L8.53875 71.4686C8.52281 71.5061 8.49582 71.5378 8.46138 71.5595C8.42694 71.5811 8.38667 71.5918 8.34602 71.59Z" fill="black"/>
<path d="M10.2093 74.9732H10.1379C10.0865 74.9524 10.0452 74.9126 10.0226 74.862C9.99995 74.8115 9.99781 74.7541 10.0166 74.7019L25.4058 34.3801C25.4266 34.3288 25.4664 34.2874 25.517 34.2648C25.5676 34.2421 25.625 34.24 25.6771 34.2588C25.7025 34.269 25.7256 34.2841 25.7451 34.3033C25.7647 34.3225 25.7802 34.3454 25.7908 34.3706C25.8014 34.3958 25.8069 34.4229 25.807 34.4503C25.8071 34.4776 25.8017 34.5047 25.7913 34.53L10.402 74.8518C10.3853 74.8887 10.3581 74.9198 10.3239 74.9414C10.2896 74.963 10.2498 74.974 10.2093 74.9732Z" fill="black"/>
<path d="M13.3343 74.9736H13.2629C13.2115 74.9528 13.1702 74.913 13.1476 74.8624C13.1249 74.8118 13.1228 74.7544 13.1416 74.7023L17.7098 62.9534C17.7305 62.902 17.7704 62.8606 17.821 62.838C17.8716 62.8154 17.9289 62.8132 17.9811 62.832C18.0065 62.8422 18.0296 62.8574 18.0491 62.8765C18.0686 62.8957 18.0841 62.9186 18.0948 62.9438C18.1054 62.9691 18.1109 62.9961 18.111 63.0235C18.1111 63.0509 18.1057 63.078 18.0953 63.1033L13.527 74.8522C13.5111 74.8896 13.4841 74.9213 13.4497 74.943C13.4152 74.9647 13.375 74.9754 13.3343 74.9736Z" fill="black"/>
<path d="M17.3683 72.1181C17.3426 72.1248 17.3156 72.1248 17.2898 72.1181C17.2647 72.1087 17.2417 72.0943 17.2222 72.0758C17.2028 72.0572 17.1872 72.035 17.1766 72.0104C17.1659 71.9857 17.1603 71.9591 17.1602 71.9323C17.16 71.9054 17.1652 71.8788 17.1756 71.854L18.7102 67.8997C18.731 67.8483 18.7708 67.8069 18.8214 67.7843C18.872 67.7617 18.9294 67.7595 18.9815 67.7783C19.0069 67.7885 19.03 67.8036 19.0495 67.8228C19.0691 67.842 19.0846 67.8649 19.0952 67.8901C19.1058 67.9153 19.1113 67.9424 19.1114 67.9698C19.1115 67.9971 19.1061 68.0243 19.0957 68.0495L17.5611 72.0039C17.5433 72.0394 17.5156 72.0691 17.4815 72.0894C17.4473 72.1096 17.408 72.1196 17.3683 72.1181Z" fill="black"/>
<path d="M7.01889 59.6338H6.94038C6.89029 59.6118 6.85053 59.5714 6.82929 59.5209C6.80805 59.4705 6.80692 59.4138 6.82615 59.3626L12.0582 45.6508C12.0677 45.6247 12.0823 45.6009 12.1012 45.5806C12.1201 45.5603 12.1429 45.544 12.1682 45.5327C12.1935 45.5214 12.2208 45.5153 12.2485 45.5147C12.2762 45.5141 12.3037 45.5191 12.3295 45.5294C12.379 45.55 12.4186 45.5891 12.4399 45.6384C12.4613 45.6877 12.4626 45.7433 12.4436 45.7935L7.21162 59.5125C7.19568 59.5499 7.16865 59.5816 7.13421 59.6033C7.09977 59.625 7.05955 59.6356 7.01889 59.6338Z" fill="black"/>
<path d="M23.954 48.0923H23.8898C23.8642 48.0843 23.8405 48.0712 23.8201 48.0538C23.7997 48.0364 23.7831 48.015 23.7711 47.9911C23.7591 47.9671 23.7521 47.941 23.7504 47.9142C23.7487 47.8875 23.7524 47.8607 23.7613 47.8354C25.5958 42.175 27.6158 36.4933 29.7429 30.9329C29.7618 30.8808 29.8006 30.8384 29.8508 30.815C29.901 30.7916 29.9585 30.7891 30.0105 30.808C30.0626 30.8269 30.105 30.8657 30.1284 30.9159C30.1518 30.9661 30.1544 31.0236 30.1354 31.0757C27.9941 36.6361 25.9883 42.3107 24.1539 47.9638C24.1378 48.0032 24.11 48.0366 24.0742 48.0596C24.0385 48.0826 23.9965 48.094 23.954 48.0923Z" fill="black"/>
<path d="M28.1728 45.18H28.1086C28.083 45.172 28.0593 45.1588 28.0389 45.1414C28.0185 45.124 28.0018 45.1027 27.9898 45.0788C27.9778 45.0548 27.9708 45.0286 27.9691 45.0019C27.9675 44.9751 27.9712 44.9483 27.9801 44.923L33.462 28.4489C33.4799 28.3965 33.5174 28.3531 33.5667 28.3279C33.6159 28.3026 33.673 28.2973 33.726 28.3132C33.7519 28.3221 33.7757 28.3359 33.7962 28.354C33.8166 28.3721 33.8333 28.394 33.8452 28.4186C33.8572 28.4431 33.8642 28.4698 33.8658 28.497C33.8674 28.5243 33.8635 28.5516 33.8545 28.5773L28.3727 45.0515C28.3557 45.0903 28.3278 45.1232 28.2922 45.146C28.2566 45.1689 28.2151 45.1807 28.1728 45.18Z" fill="black"/>
<path d="M32.1652 42.3392H32.101C32.0752 42.3304 32.0513 42.3165 32.0309 42.2984C32.0104 42.2804 31.9938 42.2584 31.9818 42.2339C31.9699 42.2093 31.9629 42.1827 31.9613 42.1554C31.9597 42.1282 31.9635 42.1009 31.9725 42.0751L37.6043 25.401C37.6123 25.3755 37.6254 25.3518 37.6428 25.3314C37.6602 25.311 37.6815 25.2943 37.7055 25.2823C37.7295 25.2703 37.7557 25.2633 37.7824 25.2616C37.8092 25.2599 37.836 25.2637 37.8613 25.2726C37.8877 25.2807 37.9123 25.294 37.9335 25.3117C37.9548 25.3295 37.9722 25.3513 37.9849 25.376C37.9975 25.4006 38.0051 25.4275 38.0072 25.4551C38.0092 25.4827 38.0057 25.5104 37.9969 25.5367L32.3651 42.2107C32.3482 42.2495 32.3202 42.2823 32.2846 42.3052C32.2491 42.3281 32.2075 42.3399 32.1652 42.3392Z" fill="black"/>
<path d="M36.4034 39.3482H36.3463C36.32 39.3408 36.2954 39.3283 36.2739 39.3113C36.2525 39.2944 36.2346 39.2734 36.2214 39.2495C36.2081 39.2256 36.1997 39.1993 36.1966 39.1722C36.1935 39.145 36.1959 39.1175 36.2035 39.0913C37.6311 34.573 39.1586 30.0476 40.8432 25.6221C40.8533 25.5967 40.8684 25.5736 40.8876 25.5541C40.9068 25.5345 40.9297 25.519 40.9549 25.5084C40.9802 25.4978 41.0073 25.4923 41.0346 25.4922C41.062 25.4921 41.0891 25.4974 41.1144 25.5079C41.1395 25.5173 41.1625 25.5318 41.182 25.5503C41.2014 25.5688 41.2169 25.591 41.2276 25.6157C41.2382 25.6403 41.2438 25.6669 41.244 25.6937C41.2442 25.7206 41.2389 25.7472 41.2286 25.772C39.5512 30.1832 37.9951 34.7086 36.6033 39.2126C36.5875 39.2527 36.5599 39.2871 36.5243 39.3113C36.4886 39.3355 36.4465 39.3484 36.4034 39.3482Z" fill="black"/>
<path d="M40.7015 36.5717H40.6444C40.5926 36.5553 40.5493 36.5191 40.5239 36.471C40.4986 36.4229 40.4931 36.3668 40.5088 36.3147C41.2654 33.8165 42.0934 31.3182 42.9714 28.8343C42.9903 28.7822 43.0291 28.7398 43.0793 28.7164C43.1295 28.6929 43.187 28.6904 43.239 28.7094C43.2911 28.7283 43.3335 28.7671 43.3569 28.8173C43.3803 28.8675 43.3829 28.925 43.3639 28.977C42.486 31.4325 41.658 33.9378 40.9014 36.4361C40.8864 36.4768 40.8591 36.5118 40.8233 36.5361C40.7874 36.5604 40.7448 36.5729 40.7015 36.5717Z" fill="black"/>
<path d="M44.2125 34.0161H44.134C44.0826 33.9953 44.0413 33.9555 44.0187 33.9049C43.996 33.8544 43.9939 33.797 44.0127 33.7448L44.7978 31.6534C44.821 31.6084 44.8598 31.5734 44.907 31.5551C44.9542 31.5367 45.0064 31.5363 45.0539 31.5539C45.1014 31.5715 45.1407 31.6058 45.1646 31.6505C45.1884 31.6951 45.1951 31.747 45.1833 31.7962L44.3981 33.8947C44.3826 33.931 44.3567 33.9619 44.3237 33.9835C44.2907 34.0051 44.252 34.0164 44.2125 34.0161Z" fill="black"/>
<g opacity="0.13">
<path d="M82.9054 63.1461C83.1922 63.0642 83.4525 62.9082 83.6599 62.6938C83.8673 62.4793 84.0146 62.2141 84.0869 61.9247C84.1593 61.6353 84.1541 61.332 84.072 61.0452C83.9899 60.7584 83.8337 60.4983 83.6192 60.291C83.4211 60.104 83.182 59.9659 82.9211 59.8876C82.6601 59.8094 82.3846 59.7932 82.1162 59.8404C81.8479 59.8875 81.5943 59.9967 81.3757 60.1592C81.1571 60.3217 80.9793 60.533 80.8568 60.7764C80.2572 61.2546 80.1431 61.4901 79.8433 61.6543C78.1302 62.882 76.3243 63.967 74.5756 65.1376C69.836 68.264 65.1036 71.6616 62.2413 73.8601C57.9586 77.0721 54.0042 80.2342 48.6437 83.2963C44.9891 85.4377 39.2146 87.4577 35.974 87.8146C35.4661 87.8926 34.9531 87.9331 34.4393 87.9359C33.0117 88.0073 31.5842 87.8931 30.1566 87.8217C28.936 87.7575 27.7226 87.6504 26.502 87.6504C26.0954 87.6031 25.6833 87.647 25.2957 87.7789C24.9907 87.9154 24.7413 88.1516 24.5885 88.4488C24.4357 88.7459 24.3887 89.0863 24.4552 89.4137C24.5217 89.7412 24.6977 90.0362 24.9543 90.2502C25.2109 90.4643 25.5327 90.5845 25.8667 90.5912C29.2501 90.5555 32.6049 91.1266 35.9811 91.1551C38.5561 90.9567 41.0858 90.367 43.483 89.4063C50.4924 86.9866 56.4596 82.4755 62.2342 77.9501C65.2392 75.5803 72.8768 70.3054 75.9318 67.9571C77.9397 66.3626 80.0291 64.8735 82.1916 63.4959C82.3272 63.4245 82.4557 63.346 82.5914 63.2817C82.727 63.2175 82.6628 63.2817 82.6271 63.2817H82.5914C82.677 63.2461 82.7912 63.2032 82.9054 63.1461Z" fill="black"/>
</g>
</svg>
