<svg width="100" height="100" viewBox="0 0 100 100" fill="none" xmlns="http://www.w3.org/2000/svg">
<path d="M0.999992 79L87 79L87 19L0.999992 19L0.999992 79Z" fill="white"/>
<path d="M87.4478 80H0.552179C0.405731 80 0.265249 79.9411 0.161695 79.8363C0.0581404 79.7315 0 79.5894 0 79.4412V18.5588C0 18.4106 0.0581404 18.2685 0.161695 18.1637C0.265249 18.0589 0.405731 18 0.552179 18H87.4478C87.5943 18 87.7348 18.0589 87.8383 18.1637C87.9419 18.2685 88 18.4106 88 18.5588V79.4412C88 79.5894 87.9419 79.7315 87.8383 79.8363C87.7348 79.9411 87.5943 80 87.4478 80ZM1.12969 78.8823H86.9211V19.1434H1.10436L1.12969 78.8823Z" fill="black"/>
<path d="M0.999992 24L87 24V16L0.999992 16V24Z" fill="#F35A05"/>
<path d="M87.4478 25H0.552179C0.405731 25 0.265249 24.9421 0.161695 24.8391C0.0581404 24.736 0 24.5963 0 24.4505V16.5495C0 16.4037 0.0581404 16.264 0.161695 16.1609C0.265249 16.0579 0.405731 16 0.552179 16H87.4478C87.5943 16 87.7348 16.0579 87.8383 16.1609C87.9419 16.264 88 16.4037 88 16.5495V24.4505C88 24.5963 87.9419 24.736 87.8383 24.8391C87.7348 24.9421 87.5943 25 87.4478 25ZM1.12969 23.9011H86.9211V17.0989H1.10436L1.12969 23.9011Z" fill="black"/>
<path d="M21 33H10V40H21V33Z" fill="white"/>
<path d="M20.4545 40H9.54545C9.40079 40 9.26202 39.945 9.15973 39.8472C9.05743 39.7493 9 39.6166 9 39.4783V32.5217C9 32.4532 9.01407 32.3854 9.04148 32.3221C9.06889 32.2588 9.10908 32.2013 9.15973 32.1528C9.21038 32.1044 9.27049 32.0659 9.33667 32.0397C9.40285 32.0135 9.47382 32 9.54545 32H20.4545C20.5262 32 20.5972 32.0135 20.6633 32.0397C20.7295 32.0659 20.7896 32.1044 20.8403 32.1528C20.8909 32.2013 20.9311 32.2588 20.9585 32.3221C20.9859 32.3854 21 32.4532 21 32.5217V39.4783C21 39.6166 20.9426 39.7493 20.8403 39.8472C20.738 39.945 20.5992 40 20.4545 40ZM10.0658 38.9565H19.8841V33.0435H10.0658V38.9565Z" fill="black"/>
<path d="M40 33H29V40H40V33Z" fill="white"/>
<path d="M40.4091 40H28.5909C28.4342 40 28.2839 39.945 28.173 39.8472C28.0622 39.7493 28 39.6166 28 39.4783V32.5217C28 32.4532 28.0152 32.3854 28.0449 32.3221C28.0746 32.2588 28.1182 32.2013 28.173 32.1528C28.2279 32.1044 28.2931 32.0659 28.3648 32.0397C28.4365 32.0135 28.5133 32 28.5909 32H40.4091C40.4867 32 40.5635 32.0135 40.6352 32.0397C40.7069 32.0659 40.772 32.1044 40.8269 32.1528C40.8818 32.2013 40.9253 32.2588 40.955 32.3221C40.9847 32.3854 41 32.4532 41 32.5217V39.4783C41 39.6166 40.9377 39.7493 40.8269 39.8472C40.7161 39.945 40.5658 40 40.4091 40ZM29.1818 38.9565H39.8182V33.0435H29.1818V38.9565Z" fill="black"/>
<path d="M59 33H48V40H59V33Z" fill="white"/>
<path d="M59.4091 40H47.5909C47.5131 40.0008 47.4359 39.9878 47.3638 39.9619C47.2917 39.936 47.2261 39.8976 47.1711 39.8489C47.116 39.8003 47.0725 39.7425 47.0432 39.6788C47.0138 39.6152 46.9991 39.547 47 39.4782V32.5218C46.9991 32.453 47.0138 32.3848 47.0432 32.3212C47.0725 32.2575 47.116 32.1997 47.1711 32.1511C47.2261 32.1024 47.2917 32.064 47.3638 32.0381C47.4359 32.0122 47.5131 31.9992 47.5909 32H59.4091C59.4867 32 59.5635 32.0135 59.6352 32.0397C59.7069 32.066 59.7721 32.1044 59.827 32.1528C59.8818 32.2013 59.9254 32.2588 59.9551 32.3221C59.9848 32.3854 60 32.4533 60 32.5218V39.4782C60 39.6166 59.9378 39.7493 59.827 39.8472C59.7161 39.945 59.5658 40 59.4091 40ZM48.1818 38.9565H58.8182V33.0435H48.1818V38.9565Z" fill="black"/>
<path d="M78 33H67V40H78V33Z" fill="white"/>
<path d="M78.4545 40H67.5455C67.4736 40.0008 67.4023 39.9878 67.3357 39.9619C67.2692 39.936 67.2087 39.8976 67.1579 39.8489C67.1071 39.8003 67.0669 39.7425 67.0398 39.6788C67.0127 39.6152 66.9992 39.547 67 39.4782V32.5218C66.9992 32.453 67.0127 32.3848 67.0398 32.3212C67.0669 32.2575 67.1071 32.1997 67.1579 32.1511C67.2087 32.1024 67.2692 32.064 67.3357 32.0381C67.4023 32.0122 67.4736 31.9992 67.5455 32H78.4545C78.5262 32 78.5972 32.0135 78.6633 32.0397C78.7295 32.066 78.7896 32.1044 78.8403 32.1528C78.8909 32.2013 78.9311 32.2588 78.9585 32.3221C78.9859 32.3854 79 32.4533 79 32.5218V39.4782C79 39.6166 78.9426 39.7493 78.8403 39.8472C78.738 39.945 78.5992 40 78.4545 40ZM68.0909 38.9565H77.9405V33.0435H68.1222L68.0909 38.9565Z" fill="black"/>
<path d="M21 49H10V56H21V49Z" fill="white"/>
<path d="M20.4545 57H9.54545C9.40079 57 9.26202 56.945 9.15973 56.8472C9.05743 56.7493 9 56.6166 9 56.4783V49.5217C9 49.3834 9.05743 49.2507 9.15973 49.1528C9.26202 49.055 9.40079 49 9.54545 49H20.4545C20.5992 49 20.738 49.055 20.8403 49.1528C20.9426 49.2507 21 49.3834 21 49.5217V56.4783C21 56.6166 20.9426 56.7493 20.8403 56.8472C20.738 56.945 20.5992 57 20.4545 57ZM10.0658 55.9565H19.8841V50.0435H10.0658V55.9565Z" fill="black"/>
<path d="M40 49H29V56H40V49Z" fill="white"/>
<path d="M40.4091 57H28.5909C28.4342 57 28.2839 56.945 28.173 56.8472C28.0622 56.7493 28 56.6166 28 56.4783V49.5217C28 49.3834 28.0622 49.2507 28.173 49.1528C28.2839 49.055 28.4342 49 28.5909 49H40.4091C40.5658 49 40.7161 49.055 40.8269 49.1528C40.9377 49.2507 41 49.3834 41 49.5217V56.4783C41 56.6166 40.9377 56.7493 40.8269 56.8472C40.7161 56.945 40.5658 57 40.4091 57ZM29.1818 55.9565H39.8182V50.0435H29.1818V55.9565Z" fill="black"/>
<path d="M59 49H48V56H59V49Z" fill="white"/>
<path d="M59.4091 57H47.5909C47.5131 57.0008 47.4359 56.9878 47.3638 56.9619C47.2917 56.9359 47.2261 56.8976 47.1711 56.8489C47.116 56.8003 47.0725 56.7425 47.0432 56.6788C47.0138 56.6152 46.9991 56.547 47 56.4782V49.5218C46.9991 49.453 47.0138 49.3848 47.0432 49.3212C47.0725 49.2575 47.116 49.1997 47.1711 49.1511C47.2261 49.1024 47.2917 49.064 47.3638 49.0381C47.4359 49.0122 47.5131 48.9992 47.5909 49H59.4091C59.5658 49 59.7161 49.055 59.827 49.1528C59.9378 49.2507 60 49.3834 60 49.5218V56.4782C60 56.6166 59.9378 56.7493 59.827 56.8471C59.7161 56.945 59.5658 57 59.4091 57ZM48.1818 55.9565H58.8182V50.0435H48.1818V55.9565Z" fill="black"/>
<path d="M78 49H67V56H78V49Z" fill="white"/>
<path d="M78.4545 57H67.5455C67.4736 57.0008 67.4023 56.9878 67.3357 56.9619C67.2692 56.9359 67.2087 56.8976 67.1579 56.8489C67.1071 56.8003 67.0669 56.7425 67.0398 56.6788C67.0127 56.6152 66.9992 56.547 67 56.4782V49.5218C66.9992 49.453 67.0127 49.3848 67.0398 49.3212C67.0669 49.2575 67.1071 49.1997 67.1579 49.1511C67.2087 49.1024 67.2692 49.064 67.3357 49.0381C67.4023 49.0122 67.4736 48.9992 67.5455 49H78.4545C78.5992 49 78.738 49.055 78.8403 49.1528C78.9426 49.2507 79 49.3834 79 49.5218V56.4782C79 56.6166 78.9426 56.7493 78.8403 56.8471C78.738 56.945 78.5992 57 78.4545 57ZM68.0909 55.9565H77.9405V50.0435H68.1222L68.0909 55.9565Z" fill="black"/>
<path d="M21 64H10V71H21V64Z" fill="white"/>
<path d="M20.4545 72H9.54545C9.40079 72 9.26202 71.9382 9.15973 71.8281C9.05743 71.718 9 71.5687 9 71.413V63.587C9 63.4313 9.05743 63.282 9.15973 63.1719C9.26202 63.0618 9.40079 63 9.54545 63H20.4545C20.5992 63 20.738 63.0618 20.8403 63.1719C20.9426 63.282 21 63.4313 21 63.587V71.413C21 71.5687 20.9426 71.718 20.8403 71.8281C20.738 71.9382 20.5992 72 20.4545 72ZM10.0658 70.8261H19.8841V64.1739H10.0658V70.8261Z" fill="black"/>
<path d="M40 64H29V71H40V64Z" fill="white"/>
<path d="M40.4091 72H28.5909C28.4342 72 28.2839 71.9382 28.173 71.8281C28.0622 71.718 28 71.5687 28 71.413V63.587C28 63.4313 28.0622 63.282 28.173 63.1719C28.2839 63.0618 28.4342 63 28.5909 63H40.4091C40.5658 63 40.7161 63.0618 40.8269 63.1719C40.9377 63.282 41 63.4313 41 63.587V71.413C41 71.5687 40.9377 71.718 40.8269 71.8281C40.7161 71.9382 40.5658 72 40.4091 72ZM29.1818 70.8261H39.8182V64.1739H29.1818V70.8261Z" fill="black"/>
<path d="M59 64H48V71H59V64Z" fill="white"/>
<path d="M59.4091 72H47.5909C47.5131 72.0009 47.4359 71.9863 47.3638 71.9571C47.2917 71.9279 47.2261 71.8847 47.1711 71.8301C47.116 71.7754 47.0725 71.7103 47.0432 71.6387C47.0138 71.5671 46.9991 71.4903 47 71.413V63.587C46.9991 63.5097 47.0138 63.4329 47.0432 63.3613C47.0725 63.2897 47.116 63.2246 47.1711 63.1699C47.2261 63.1153 47.2917 63.0721 47.3638 63.0429C47.4359 63.0137 47.5131 62.9991 47.5909 63H59.4091C59.5658 63 59.7161 63.0619 59.827 63.172C59.9378 63.282 60 63.4313 60 63.587V71.413C60 71.5687 59.9378 71.718 59.827 71.828C59.7161 71.9381 59.5658 72 59.4091 72ZM48.1818 70.8261H58.8182V64.1739H48.1818V70.8261Z" fill="black"/>
<path d="M78 64H67V71H78V64Z" fill="white"/>
<path d="M78.4545 72H67.5455C67.4736 72.0009 67.4023 71.9863 67.3357 71.9571C67.2692 71.9279 67.2087 71.8847 67.1579 71.8301C67.1071 71.7754 67.0669 71.7103 67.0398 71.6387C67.0127 71.5671 66.9992 71.4903 67 71.413V63.587C66.9992 63.5097 67.0127 63.4329 67.0398 63.3613C67.0669 63.2897 67.1071 63.2246 67.1579 63.1699C67.2087 63.1153 67.2692 63.0721 67.3357 63.0429C67.4023 63.0137 67.4736 62.9991 67.5455 63H78.4545C78.5992 63 78.738 63.0619 78.8403 63.172C78.9426 63.282 79 63.4313 79 63.587V71.413C79 71.5687 78.9426 71.718 78.8403 71.828C78.738 71.9381 78.5992 72 78.4545 72ZM68.0909 70.8261H77.9405V64.1739H68.1222L68.0909 70.8261Z" fill="black"/>
<path d="M60.4998 21C60.3673 21 60.2401 20.944 60.1464 20.8443C60.0526 20.7447 60 20.6096 60 20.4687V13.5313C60 13.3904 60.0526 13.2553 60.1464 13.1556C60.2401 13.056 60.3673 13 60.4998 13C60.6324 13 60.7596 13.056 60.8533 13.1556C60.9471 13.2553 60.9997 13.3904 60.9997 13.5313V20.4565C61.002 20.5275 60.9908 20.5982 60.9667 20.6645C60.9425 20.7308 60.9059 20.7911 60.8592 20.8419C60.8125 20.8927 60.7565 20.9329 60.6948 20.9601C60.633 20.9873 60.5667 21.0008 60.4998 21Z" fill="black"/>
<path d="M27.4998 21C27.3673 21 27.2402 20.944 27.1464 20.8443C27.0527 20.7447 27 20.6096 27 20.4687V13.5313C27 13.3904 27.0527 13.2553 27.1464 13.1556C27.2402 13.056 27.3673 13 27.4998 13C27.6324 13 27.7596 13.056 27.8533 13.1556C27.9471 13.2553 27.9997 13.3904 27.9997 13.5313V20.4565C28.002 20.5275 27.9908 20.5982 27.9667 20.6645C27.9425 20.7308 27.9059 20.7911 27.8592 20.8419C27.8125 20.8927 27.7566 20.9329 27.6948 20.9601C27.6331 20.9873 27.5667 21.0008 27.4998 21Z" fill="black"/>
<path d="M30.1748 35C30.1295 34.9983 30.0861 34.9807 30.0521 34.9501C30.0188 34.9162 30 34.8702 30 34.8223C30 34.7743 30.0188 34.7284 30.0521 34.6945C30.5736 34.127 31.1319 33.5721 31.6964 33.0483C31.7311 33.0172 31.7758 33 31.8221 33C31.8684 33 31.9132 33.0172 31.9479 33.0483C31.9813 33.0822 32 33.1282 32 33.1761C32 33.2241 31.9813 33.27 31.9479 33.304C31.3896 33.8215 30.8374 34.3702 30.322 34.9252C30.3049 34.9484 30.2827 34.9673 30.2571 34.9803C30.2316 34.9932 30.2034 35 30.1748 35Z" fill="black"/>
<path d="M37.2356 38.9997C37.2043 39.0013 37.1731 38.9963 37.1438 38.9852C37.1145 38.974 37.088 38.9569 37.0656 38.935C37.0235 38.89 37 38.8307 37 38.7691C37 38.7075 37.0235 38.6482 37.0656 38.6032L38.5958 37.0655C38.6408 37.0234 38.7001 37 38.7617 37C38.8234 37 38.8827 37.0234 38.9277 37.0655C38.9505 37.0867 38.9687 37.1124 38.9811 37.141C38.9936 37.1695 39 37.2003 39 37.2314C39 37.2626 38.9936 37.2934 38.9811 37.3219C38.9687 37.3505 38.9505 37.3761 38.9277 37.3973L37.3975 38.935C37.3767 38.9567 37.3515 38.9737 37.3236 38.9849C37.2956 38.9961 37.2657 39.0011 37.2356 38.9997Z" fill="black"/>
<path d="M11.1374 50.9995C11.1027 50.9979 11.0691 50.9863 11.0409 50.9662C11.0147 50.9404 11 50.9053 11 50.8688C11 50.8323 11.0147 50.7972 11.0409 50.7714C11.2676 50.5196 11.5232 50.2962 11.7595 50.0397C11.7728 50.0269 11.7886 50.0168 11.8058 50.01C11.8231 50.0032 11.8416 49.9998 11.8602 50C11.8787 50.0002 11.8971 50.0041 11.9142 50.0113C11.9312 50.0185 11.9467 50.0289 11.9597 50.042C11.9727 50.0551 11.983 50.0706 11.9899 50.0876C11.9968 50.1046 12.0002 50.1228 12 50.1411C11.9998 50.1594 11.9958 50.1775 11.9885 50.1944C11.9812 50.2112 11.9706 50.2264 11.9573 50.2392C11.7113 50.4673 11.475 50.7144 11.2483 50.9519C11.2354 50.9684 11.2185 50.9814 11.1991 50.9898C11.1797 50.9981 11.1585 51.0014 11.1374 50.9995Z" fill="black"/>
<path d="M11.1965 53.9997C11.1589 53.9998 11.1221 53.9899 11.0904 53.9711C11.0587 53.9524 11.0335 53.9255 11.0178 53.8939C11.0021 53.8622 10.9966 53.827 11.002 53.7925C11.0073 53.758 11.0233 53.7256 11.0479 53.6993C12.2031 52.4474 13.4192 51.1955 14.669 50.0501C14.706 50.0174 14.7553 49.9994 14.8064 50C14.8576 50.0006 14.9064 50.0197 14.9426 50.0532C14.9787 50.0867 14.9994 50.1319 15 50.1793C15.0006 50.2267 14.9812 50.2724 14.946 50.3067C13.7097 51.471 12.4936 52.6978 11.3451 53.9371C11.3277 53.9579 11.305 53.9745 11.2792 53.9854C11.2533 53.9963 11.2249 54.0012 11.1965 53.9997Z" fill="black"/>
<path d="M13.1763 54.9982C13.1326 54.9974 13.0903 54.9851 13.0548 54.9628C13.0196 54.93 13 54.8868 13 54.8419C13 54.797 13.0196 54.7538 13.0548 54.721C14.5206 53.1168 16.0742 51.5481 17.6684 50.0501C17.7051 50.018 17.7549 50 17.8068 50C17.8587 50 17.9086 50.018 17.9453 50.0501C17.9805 50.0828 18 50.1261 18 50.171C18 50.2159 17.9805 50.2591 17.9453 50.2919C16.3579 51.784 14.811 53.3468 13.3519 54.9451C13.3296 54.9655 13.3021 54.981 13.2715 54.9903C13.241 54.9995 13.2083 55.0022 13.1763 54.9982Z" fill="black"/>
<path d="M16.1809 54.9981C16.1577 54.999 16.1346 54.996 16.1128 54.989C16.091 54.9821 16.0711 54.9714 16.0541 54.9577C16.0194 54.9257 16 54.8834 16 54.8395C16 54.7955 16.0194 54.7533 16.0541 54.7212C17.2491 53.4982 18.4574 52.2637 19.659 51.0581C19.6757 51.0414 19.696 51.0277 19.7187 51.0179C19.7415 51.008 19.7663 51.0021 19.7918 51.0004C19.8172 50.9988 19.8427 51.0016 19.8669 51.0085C19.8911 51.0154 19.9135 51.0264 19.9327 51.0408C19.952 51.0552 19.9678 51.0727 19.9793 51.0924C19.9907 51.1121 19.9976 51.1335 19.9995 51.1555C20.0013 51.1774 19.9981 51.1995 19.9901 51.2204C19.9821 51.2413 19.9694 51.2606 19.9528 51.2773C18.7511 52.483 17.5428 53.7117 16.3545 54.9404C16.3339 54.9623 16.307 54.9791 16.2766 54.9892C16.2461 54.9994 16.2132 55.0024 16.1809 54.9981Z" fill="black"/>
<path d="M18.3155 54.9955C18.2581 55.0015 18.198 55.0015 18.1406 54.9955C18.0706 54.9753 18.0224 54.9446 18.0061 54.9099C17.9897 54.8752 18.0066 54.8392 18.0532 54.8096C18.4904 54.5465 18.9714 54.2834 19.4633 54.0385C19.5228 54.0138 19.6033 54 19.6874 54C19.7714 54 19.8521 54.0138 19.9115 54.0385C19.9684 54.0637 20 54.0969 20 54.1315C20 54.166 19.9684 54.1993 19.9115 54.2245C19.4306 54.4649 18.9605 54.7189 18.5342 54.9774C18.4694 54.9946 18.3913 55.0011 18.3155 54.9955Z" fill="black"/>
<path d="M30.1788 38C30.154 38.0005 30.1293 37.9951 30.1067 37.9843C30.0841 37.9734 30.0641 37.9574 30.0481 37.9373C30.0172 37.9024 30 37.8565 30 37.8087C30 37.761 30.0172 37.7151 30.0481 37.6802C31.3139 36.5329 32.5441 35.3103 33.7029 34.0564C33.7185 34.0391 33.7372 34.0253 33.7579 34.0156C33.7786 34.0059 33.8008 34.0006 33.8235 34.0001C33.8461 33.9995 33.8686 34.0036 33.8897 34.0122C33.9108 34.0208 33.9301 34.0337 33.9465 34.0502C33.9629 34.0666 33.9761 34.0863 33.9852 34.1082C33.9944 34.13 33.9994 34.1535 33.9999 34.1774C34.0005 34.2012 33.9966 34.225 33.9884 34.2473C33.9803 34.2696 33.968 34.2899 33.9524 34.3072C32.7639 35.5611 31.5754 36.815 30.2739 37.9561C30.248 37.9818 30.2144 37.9973 30.1788 38Z" fill="black"/>
<path d="M32.1912 39C32.153 39 32.1157 38.9897 32.084 38.9704C32.0524 38.9511 32.0278 38.9237 32.0137 38.8917C31.9995 38.8597 31.9963 38.8246 32.0044 38.791C32.0125 38.7573 32.0317 38.7267 32.0594 38.7029C33.8727 37.1164 35.7652 35.5478 37.6708 34.0504C37.7066 34.0181 37.7552 34 37.8059 34C37.8566 34 37.9052 34.0181 37.9411 34.0504C37.9597 34.066 37.9745 34.0849 37.9846 34.1058C37.9948 34.1268 38 34.1494 38 34.1722C38 34.1951 37.9948 34.2177 37.9846 34.2387C37.9745 34.2596 37.9597 34.2785 37.9411 34.2941C36.042 35.7855 34.1562 37.3482 32.3429 38.9346C32.3245 38.9549 32.3014 38.9713 32.2752 38.9826C32.249 38.9939 32.2203 38.9998 32.1912 39Z" fill="black"/>
<path d="M35.1724 38.9997C35.1255 38.999 35.0808 38.9784 35.0479 38.9423C35.0171 38.9068 35 38.86 35 38.8114C35 38.7628 35.0171 38.716 35.0479 38.6805C36.2328 37.4547 37.471 36.2289 38.7091 35.0542C38.7414 35.0195 38.785 35 38.8306 35C38.8761 35 38.9198 35.0195 38.9521 35.0542C38.9829 35.0897 39 35.1365 39 35.1851C39 35.2337 38.9829 35.2805 38.9521 35.3159C37.7198 36.4907 36.4876 37.7101 35.3027 38.9359C35.2874 38.9571 35.2676 38.974 35.2449 38.9851C35.2222 38.9962 35.1973 39.0013 35.1724 38.9997Z" fill="black"/>
<path d="M49.2002 66.9999C49.1512 66.9999 49.1034 66.9864 49.0641 66.9614C49.023 66.9266 49 66.8794 49 66.8302C49 66.7809 49.023 66.7337 49.0641 66.6989L50.6289 65.0723C50.6466 65.0528 50.6688 65.0365 50.694 65.0243C50.7193 65.0122 50.7471 65.0043 50.776 65.0014C50.8048 64.9984 50.8341 65.0003 50.862 65.007C50.89 65.0137 50.9161 65.025 50.9388 65.0403C50.9781 65.0759 51 65.1228 51 65.1716C51 65.2203 50.9781 65.2672 50.9388 65.3028L49.3741 66.9358C49.3526 66.9568 49.3258 66.9735 49.2957 66.9846C49.2657 66.9957 49.233 67.0009 49.2002 66.9999Z" fill="black"/>
<path d="M49.1781 69.9933C49.144 70.0022 49.1084 70.0022 49.0744 69.9933C49.0363 69.9646 49.0106 69.9221 49.0026 69.8745C48.9946 69.8269 49.0051 69.7781 49.0317 69.7382C50.1626 68.1081 51.3846 66.5459 52.6918 65.0593C52.7074 65.0417 52.7263 65.0274 52.7473 65.0173C52.7684 65.0072 52.7911 65.0014 52.8144 65.0002C52.8376 64.9991 52.8608 65.0026 52.8827 65.0106C52.9045 65.0186 52.9247 65.0309 52.9419 65.0468C52.9592 65.0628 52.9731 65.082 52.983 65.1034C52.993 65.1249 52.9987 65.1481 52.9998 65.1718C53.0009 65.1955 52.9975 65.2192 52.9897 65.2415C52.9818 65.2638 52.9698 65.2844 52.9541 65.3019C51.6434 66.7745 50.4211 68.3266 49.294 69.9497C49.2615 69.9775 49.2205 69.9929 49.1781 69.9933Z" fill="black"/>
<path d="M52.1585 69.9978C52.1187 69.9979 52.0799 69.984 52.0474 69.9581C52.0169 69.9212 52 69.8726 52 69.8222C52 69.7717 52.0169 69.7231 52.0474 69.6863L54.7103 66.0537C54.7428 66.0192 54.7858 66 54.8303 66C54.8749 66 54.9177 66.0192 54.9503 66.0537C54.9821 66.0897 55 66.1386 55 66.1896C55 66.2405 54.9821 66.2894 54.9503 66.3255L52.2873 69.9581C52.2695 69.9745 52.2489 69.9866 52.2267 69.9935C52.2045 70.0003 52.1813 70.0018 52.1585 69.9978Z" fill="black"/>
<path d="M55.1861 70C55.1462 70 55.1075 69.9891 55.0764 69.9691C55.0565 69.9578 55.0397 69.9435 55.0269 69.9269C55.0141 69.9104 55.0056 69.8919 55.002 69.8727C54.9984 69.8534 54.9997 69.8338 55.0058 69.8149C55.012 69.7961 55.0228 69.7784 55.0377 69.763L55.6829 69.0419C55.7148 69.0174 55.7564 69.0026 55.8006 69.0003C55.8448 68.998 55.8886 69.0083 55.9242 69.0293C55.9598 69.0503 55.9848 69.0806 55.995 69.115C56.0052 69.1494 55.9998 69.1856 55.9797 69.2171L55.3345 69.9382C55.3183 69.9576 55.2962 69.9734 55.2702 69.9842C55.2443 69.995 55.2154 70.0004 55.1861 70Z" fill="black"/>
<g opacity="0.13">
<path d="M87.4401 24.4702H0.550781V27.0471H87.4401V24.4702Z" fill="black"/>
</g>
<path d="M76.7728 91.5454C89.3498 91.5454 99.5454 81.3497 99.5454 68.7727C99.5454 56.1957 89.3498 46 76.7728 46C64.1957 46 54 56.1957 54 68.7727C54 81.3497 64.1957 91.5454 76.7728 91.5454Z" fill="white"/>
<path d="M76.6985 92.3941C72.0886 92.3953 67.5818 91.0293 63.7483 88.4689C59.9147 85.9085 56.9266 82.2687 55.1619 78.0099C53.3972 73.7511 52.9352 69.0646 53.8342 64.5432C54.7333 60.0217 56.9531 55.8685 60.2129 52.6088C63.4726 49.3491 67.6258 47.1293 72.1472 46.2302C76.6687 45.3312 81.3551 45.7932 85.6139 47.5579C89.8727 49.3226 93.5125 52.3107 96.0729 56.1442C98.6333 59.9778 99.9993 64.4845 99.9981 69.0945C99.9901 75.2714 97.5328 81.1931 93.165 85.5609C88.7972 89.9287 82.8755 92.3861 76.6985 92.3941ZM76.6985 46.8426C72.2962 46.8366 67.9911 48.1366 64.3278 50.578C60.6645 53.0194 57.8077 56.4926 56.1189 60.558C54.4301 64.6235 53.9851 69.0986 54.8402 73.417C55.6954 77.7354 57.8123 81.7031 60.9231 84.8181C64.0338 87.9331 67.9987 90.0554 72.3159 90.9165C76.6332 91.7775 81.1089 91.3386 85.1766 89.6553C89.2444 87.9721 92.7214 85.12 95.1678 81.4601C97.6142 77.8001 98.92 73.4967 98.92 69.0945C98.9137 63.2001 96.5714 57.5486 92.4063 53.3778C88.2412 49.207 82.5929 46.857 76.6985 46.8426Z" fill="black"/>
<path d="M76.6989 53.2501C76.5591 53.2501 76.4251 53.1946 76.3262 53.0958C76.2274 52.997 76.1719 52.8629 76.1719 52.7232V49.6343C76.1719 49.4946 76.2274 49.3606 76.3262 49.2618C76.4251 49.1629 76.5591 49.1074 76.6989 49.1074C76.8386 49.1074 76.9726 49.1629 77.0714 49.2618C77.1702 49.3606 77.2258 49.4946 77.2258 49.6343V52.7232C77.2258 52.8629 77.1702 52.997 77.0714 53.0958C76.9726 53.1946 76.8386 53.2501 76.6989 53.2501Z" fill="black"/>
<path d="M76.6989 89.0809C76.5591 89.0809 76.4251 89.0254 76.3262 88.9265C76.2274 88.8277 76.1719 88.6937 76.1719 88.554V85.4591C76.1719 85.3193 76.2274 85.1853 76.3262 85.0865C76.4251 84.9876 76.5591 84.9321 76.6989 84.9321C76.8386 84.9321 76.9726 84.9876 77.0714 85.0865C77.1702 85.1853 77.2258 85.3193 77.2258 85.4591V88.554C77.2258 88.6937 77.1702 88.8277 77.0714 88.9265C76.9726 89.0254 76.8386 89.0809 76.6989 89.0809Z" fill="black"/>
<path d="M96.1587 69.6212H93.0699C92.9301 69.6212 92.7962 69.5657 92.6973 69.4669C92.5985 69.3681 92.543 69.234 92.543 69.0943C92.543 68.9546 92.5985 68.8205 92.6973 68.7217C92.7962 68.6229 92.9301 68.5674 93.0699 68.5674H96.1587C96.2985 68.5674 96.4325 68.6229 96.5313 68.7217C96.6302 68.8205 96.6857 68.9546 96.6857 69.0943C96.6857 69.234 96.6302 69.3681 96.5313 69.4669C96.4325 69.5657 96.2985 69.6212 96.1587 69.6212Z" fill="black"/>
<path d="M63.364 71H59.636C59.4673 71 59.3055 70.9473 59.1862 70.8536C59.067 70.7598 59 70.6326 59 70.5C59 70.3674 59.067 70.2402 59.1862 70.1464C59.3055 70.0527 59.4673 70 59.636 70H63.364C63.5327 70 63.6944 70.0527 63.8137 70.1464C63.9329 70.2402 64 70.3674 64 70.5C64 70.6326 63.9329 70.7598 63.8137 70.8536C63.6944 70.9473 63.5327 71 63.364 71Z" fill="black"/>
<path d="M77.2255 69.0945C77.1223 69.0916 77.022 69.0589 76.937 69.0001C76.852 68.9414 76.7859 68.8592 76.7468 68.7636C76.7076 68.668 76.6971 68.5631 76.7165 68.4616C76.7359 68.3601 76.7844 68.2665 76.856 68.192L85.2989 59.7249C85.3985 59.6301 85.5312 59.578 85.6687 59.5796C85.8062 59.5813 85.9377 59.6367 86.0349 59.7339C86.1322 59.8312 86.1875 59.9626 86.1892 60.1001C86.1909 60.2376 86.1387 60.3703 86.0439 60.4699L77.601 68.9128C77.5537 68.9665 77.496 69.0102 77.4315 69.0414C77.367 69.0726 77.2971 69.0906 77.2255 69.0945Z" fill="black"/>
<path d="M76.7012 71.5532C78.0592 71.5532 79.1601 70.4523 79.1601 69.0942C79.1601 67.7362 78.0592 66.6353 76.7012 66.6353C75.3431 66.6353 74.2422 67.7362 74.2422 69.0942C74.2422 70.4523 75.3431 71.5532 76.7012 71.5532Z" fill="white"/>
<path d="M76.7008 72.0802C76.1102 72.0802 75.5329 71.9051 75.0419 71.577C74.5508 71.2489 74.1681 70.7825 73.9421 70.2369C73.7161 69.6913 73.657 69.091 73.7722 68.5118C73.8874 67.9326 74.1718 67.4005 74.5894 66.9829C75.007 66.5654 75.539 66.281 76.1182 66.1658C76.6974 66.0506 77.2978 66.1097 77.8434 66.3357C78.389 66.5617 78.8553 66.9444 79.1834 67.4354C79.5115 67.9264 79.6866 68.5037 79.6866 69.0943C79.685 69.8857 79.3699 70.6443 78.8103 71.2039C78.2507 71.7635 77.4922 72.0786 76.7008 72.0802ZM76.7008 67.1622C76.3186 67.1622 75.9451 67.2756 75.6273 67.4879C75.3096 67.7001 75.062 68.0019 74.9157 68.3549C74.7695 68.708 74.7313 69.0964 74.8058 69.4712C74.8804 69.846 75.0644 70.1903 75.3346 70.4605C75.6048 70.7307 75.949 70.9147 76.3238 70.9892C76.6986 71.0638 77.0871 71.0255 77.4401 70.8793C77.7931 70.733 78.0949 70.4854 78.3072 70.1677C78.5195 69.8499 78.6328 69.4764 78.6328 69.0943C78.6328 68.5819 78.4292 68.0905 78.0669 67.7281C77.7046 67.3658 77.2132 67.1622 76.7008 67.1622Z" fill="black"/>
<g opacity="0.13">
<path d="M54.6256 65.4724C54.6558 65.2786 54.6861 65.0848 54.7225 64.8667C55.0851 62.8488 55.7444 60.8956 56.6787 59.0706C56.5817 58.932 56.4557 58.8163 56.3093 58.7314C55.0097 60.1348 53.9443 61.7381 53.1539 63.4798C52.5096 64.8595 52.0043 66.3 51.6457 67.78C51.573 68.0989 51.5064 68.4199 51.4459 68.743C51.1975 70.463 51.2642 71.8803 51.8274 74.6602C51.9679 75.464 52.2186 76.2446 52.5724 76.9799C52.626 77.2148 52.7413 77.4312 52.9063 77.6069C53.0712 77.7825 53.28 77.911 53.5112 77.9792C53.7656 78.0439 54.0336 78.0305 54.2804 77.9408C54.5271 77.8511 54.7412 77.6893 54.8947 77.4763C55.0482 77.2633 55.1341 77.0091 55.1412 76.7467C55.1483 76.4842 55.0762 76.2257 54.9344 76.0048L54.9708 76.0532C54.9502 76.0161 54.9319 75.9776 54.9163 75.9382C54.8436 75.6717 54.7648 75.4112 54.68 75.1508C54.0176 73.3687 53.7792 71.4569 53.9836 69.5666C54.0367 68.1815 54.2521 66.8073 54.6256 65.4724Z" fill="black"/>
</g>
</svg>
