<svg width="100" height="100" viewBox="0 0 100 100" fill="none" xmlns="http://www.w3.org/2000/svg">
<path d="M7.36199 81.252L93.6445 81.252L93.6445 21.5159L7.36199 21.5159L7.36199 81.252Z" fill="white"/>
<path d="M93.6458 81.8005H7.35692C7.28521 81.8013 7.21405 81.7879 7.14756 81.761C7.08107 81.7342 7.02057 81.6944 6.96957 81.644C6.91857 81.5935 6.87808 81.5335 6.85045 81.4673C6.82281 81.4012 6.80859 81.3302 6.80859 81.2585V21.5224C6.80859 21.377 6.86636 21.2376 6.96919 21.1347C7.07202 21.0319 7.21149 20.9741 7.35692 20.9741H93.6458C93.7912 20.9741 93.9307 21.0319 94.0335 21.1347C94.1363 21.2376 94.1941 21.377 94.1941 21.5224V81.2585C94.1941 81.3302 94.1799 81.4012 94.1522 81.4673C94.1246 81.5335 94.0841 81.5935 94.0331 81.644C93.9821 81.6944 93.9216 81.7342 93.8551 81.761C93.7886 81.7879 93.7175 81.8013 93.6458 81.8005ZM7.93046 80.7038H93.0974V22.0897H7.90524L7.93046 80.7038Z" fill="black"/>
<path d="M7.36199 26.8545L93.6445 26.8545V18.9699L7.36199 18.9699V26.8545Z" fill="#F35A05"/>
<path d="M93.6458 27.4026H7.35692C7.21149 27.4026 7.07202 27.3449 6.96919 27.242C6.86636 27.1392 6.80859 26.9997 6.80859 26.8543V18.9761C6.80859 18.8306 6.86636 18.6912 6.96919 18.5883C7.07202 18.4855 7.21149 18.4277 7.35692 18.4277H93.6458C93.7912 18.4277 93.9307 18.4855 94.0335 18.5883C94.1363 18.6912 94.1941 18.8306 94.1941 18.9761V26.8543C94.1941 26.9997 94.1363 27.1392 94.0335 27.242C93.9307 27.3449 93.7912 27.4026 93.6458 27.4026ZM7.93046 26.306H93.0975V19.5244H7.90524L7.93046 26.306Z" fill="black"/>
<path d="M82.0054 42.1381C81.86 42.1381 81.7205 42.0804 81.6177 41.9775C81.5148 41.8747 81.4571 41.7353 81.4571 41.5898C81.4562 41.5181 81.4696 41.447 81.4965 41.3805C81.5234 41.314 81.5632 41.2535 81.6136 41.2025C81.664 41.1515 81.724 41.111 81.7902 41.0834C81.8564 41.0557 81.9274 41.0415 81.9991 41.0415H87.2807C87.4261 41.0415 87.5656 41.0993 87.6684 41.2021C87.7712 41.3049 87.829 41.4444 87.829 41.5898C87.829 41.7353 87.7712 41.8747 87.6684 41.9775C87.5656 42.0804 87.4261 42.1381 87.2807 42.1381H81.9991H82.0054Z" fill="black"/>
<path d="M21.4426 42.2077C19.2115 42.2077 16.9362 42.2077 14.6421 42.1636C14.4967 42.1636 14.3572 42.1058 14.2543 42.003C14.1515 41.9001 14.0938 41.7607 14.0938 41.6152C14.0938 41.4698 14.1515 41.3303 14.2543 41.2275C14.3572 41.1247 14.4967 41.0669 14.6421 41.0669C18.3858 41.111 22.0791 41.1236 25.6149 41.0669C25.7598 41.0685 25.8983 41.1268 26.0008 41.2293C26.1033 41.3318 26.1616 41.4703 26.1632 41.6152C26.1641 41.6875 26.1505 41.7592 26.1232 41.8261C26.096 41.893 26.0556 41.9538 26.0045 42.0048C25.9534 42.0559 25.8926 42.0963 25.8257 42.1235C25.7588 42.1508 25.6871 42.1644 25.6149 42.1636C24.2535 42.193 22.8628 42.2077 21.4426 42.2077Z" fill="black"/>
<path d="M75.8139 54.8252C75.6685 54.8252 75.5291 54.7674 75.4262 54.6646C75.3234 54.5617 75.2656 54.4223 75.2656 54.2768C75.2656 54.1314 75.3234 53.9919 75.4262 53.8891C75.5291 53.7863 75.6685 53.7285 75.8139 53.7285H87.3162C87.4616 53.7285 87.6011 53.7863 87.7039 53.8891C87.8067 53.9919 87.8645 54.1314 87.8645 54.2768C87.8645 54.4223 87.8067 54.5617 87.7039 54.6646C87.6011 54.7674 87.4616 54.8252 87.3162 54.8252H75.8139Z" fill="black"/>
<path d="M54.0014 67.5439C53.856 67.5439 53.7166 67.4861 53.6137 67.3833C53.5109 67.2805 53.4531 67.141 53.4531 66.9956C53.4531 66.8502 53.5109 66.7107 53.6137 66.6079C53.7166 66.505 53.856 66.4473 54.0014 66.4473H86.6867C86.8321 66.4473 86.9716 66.505 87.0744 66.6079C87.1773 66.7107 87.235 66.8502 87.235 66.9956C87.235 67.141 87.1773 67.2805 87.0744 67.3833C86.9716 67.4861 86.8321 67.5439 86.6867 67.5439H54.0014Z" fill="black"/>
<path d="M25.837 54.844C22.1689 54.844 18.4251 54.844 14.6499 54.8125C14.5045 54.8125 14.365 54.7547 14.2622 54.6519C14.1593 54.5491 14.1016 54.4096 14.1016 54.2641C14.1016 54.1187 14.1593 53.9793 14.2622 53.8764C14.365 53.7736 14.5045 53.7158 14.6499 53.7158C21.2109 53.7536 27.6584 53.7536 33.8161 53.7158C33.9599 53.7174 34.0975 53.7749 34.1998 53.876C34.3021 53.9771 34.3612 54.114 34.3644 54.2579C34.3628 54.4034 34.3047 54.5426 34.2024 54.6461C34.1001 54.7495 33.9616 54.8092 33.8161 54.8125L25.837 54.844Z" fill="black"/>
<g opacity="0.13">
<path d="M93.638 27.4722H7.35547V30.031H93.638V27.4722Z" fill="black"/>
</g>
<path d="M53.9946 56.773C67.0826 56.773 77.6924 46.1631 77.6924 33.0752C77.6924 19.9873 67.0826 9.37744 53.9946 9.37744C40.9067 9.37744 30.2969 19.9873 30.2969 33.0752C30.2969 46.1631 40.9067 56.773 53.9946 56.773Z" fill="white"/>
<path d="M53.997 57.3276C49.2001 57.3288 44.5105 55.9075 40.5214 53.2433C36.5322 50.5792 33.4228 46.792 31.5862 42.3605C29.7496 37.9291 29.2685 33.0525 30.2035 28.3476C31.1386 23.6427 33.4479 19.3207 36.8394 15.9284C40.2309 12.536 44.5523 10.2255 49.257 9.28923C53.9616 8.35293 58.8383 8.83285 63.2702 10.6683C67.7021 12.5037 71.4902 15.6122 74.1554 19.6006C76.8205 23.589 78.2431 28.2782 78.2431 33.0752C78.2364 39.5042 75.68 45.668 71.1346 50.2146C66.5892 54.7612 60.426 57.3192 53.997 57.3276ZM53.997 9.92572C49.4167 9.92447 44.9389 11.2816 41.13 13.8255C37.3211 16.3694 34.3522 19.9858 32.5988 24.2172C30.8454 28.4487 30.3863 33.105 31.2796 37.5974C32.1728 42.0897 34.3783 46.2163 37.6171 49.455C40.8559 52.6938 44.9824 54.8993 49.4748 55.7926C53.9671 56.6859 58.6235 56.2267 62.8549 54.4734C67.0863 52.72 70.7027 49.7511 73.2466 45.9422C75.7905 42.1333 77.1477 37.6555 77.1464 33.0752C77.1381 26.9381 74.6965 21.0548 70.3569 16.7152C66.0173 12.3757 60.134 9.93406 53.997 9.92572Z" fill="black"/>
<path d="M64.1917 42.9057C69.8232 37.2742 69.8232 28.1438 64.1917 22.5123C58.5602 16.8808 49.4298 16.8808 43.7983 22.5123C38.1668 28.1438 38.1668 37.2742 43.7983 42.9057C49.4298 48.5372 58.5602 48.5372 64.1917 42.9057Z" fill="white"/>
<path d="M53.996 47.6781C51.0366 47.6781 48.1435 46.8008 45.6825 45.1571C43.2214 43.5135 41.3029 41.1772 40.1692 38.4435C39.0355 35.7098 38.7376 32.7014 39.3131 29.7984C39.8887 26.8955 41.3118 24.2283 43.4027 22.1339C45.4936 20.0395 48.1584 18.6118 51.0603 18.0314C53.9623 17.451 56.9712 17.7438 59.7068 18.8729C62.4424 20.002 64.7819 21.9167 66.4297 24.3749C68.0775 26.8332 68.9597 29.7247 68.9647 32.6842C68.9663 36.657 67.3906 40.4679 64.5838 43.2794C61.777 46.0909 57.9688 47.6731 53.996 47.6781ZM53.996 18.8374C51.2536 18.8374 48.5728 19.6506 46.2926 21.1742C44.0124 22.6978 42.2352 24.8633 41.1857 27.3969C40.1363 29.9305 39.8617 32.7185 40.3967 35.4082C40.9317 38.0978 42.2523 40.5685 44.1915 42.5076C46.1306 44.4468 48.6012 45.7674 51.2909 46.3024C53.9806 46.8374 56.7686 46.5628 59.3022 45.5133C61.8358 44.4639 64.0013 42.6867 65.5249 40.4065C67.0485 38.1263 67.8617 35.4455 67.8617 32.7031C67.8642 30.8806 67.5074 29.0756 66.8117 27.3911C66.116 25.7067 65.095 24.1759 63.8072 22.8863C62.5194 21.5968 60.99 20.5737 59.3065 19.8757C57.623 19.1777 55.8185 18.8185 53.996 18.8185V18.8374Z" fill="black"/>
<path d="M57.5392 36.252C59.4959 34.2952 59.4959 31.1227 57.5392 29.166C55.5824 27.2092 52.4099 27.2092 50.4532 29.166C48.4964 31.1227 48.4964 34.2952 50.4532 36.252C52.4099 38.2087 55.5824 38.2087 57.5392 36.252Z" fill="white"/>
<path d="M53.9963 38.2682C52.898 38.2682 51.8242 37.9428 50.9106 37.333C49.997 36.7233 49.2845 35.8566 48.863 34.8424C48.4416 33.8281 48.33 32.7117 48.5425 31.634C48.7549 30.5564 49.2819 29.5659 50.0568 28.7875C50.8317 28.009 51.8198 27.4776 52.8965 27.2603C53.9731 27.043 55.09 27.1495 56.1062 27.5663C57.1224 27.9832 57.9923 28.6918 58.6062 29.6026C59.22 30.5134 59.5502 31.5857 59.5552 32.6841C59.5577 33.416 59.4158 34.1411 59.1376 34.8181C58.8595 35.4951 58.4505 36.1106 57.9341 36.6293C57.4178 37.148 56.8042 37.5597 56.1285 37.8409C55.4528 38.1222 54.7282 38.2673 53.9963 38.2682ZM53.9963 28.247C53.1138 28.247 52.2511 28.5088 51.5173 28.9991C50.7834 29.4894 50.2115 30.1863 49.8738 31.0017C49.536 31.817 49.4477 32.7142 49.6198 33.5798C49.792 34.4454 50.217 35.2405 50.8411 35.8646C51.4651 36.4886 52.2602 36.9136 53.1258 37.0858C53.9914 37.2579 54.8886 37.1696 55.704 36.8318C56.5193 36.4941 57.2162 35.9222 57.7066 35.1884C58.1969 34.4546 58.4586 33.5918 58.4586 32.7093C58.4503 31.5307 57.9767 30.4032 57.1409 29.5721C56.3052 28.7411 55.1749 28.2739 53.9963 28.2723V28.247Z" fill="black"/>
<path d="M53.9955 33.2579C53.9242 33.2586 53.8534 33.245 53.7874 33.2179C53.7214 33.1909 53.6614 33.1509 53.6111 33.1003C53.5098 32.9967 53.4531 32.8576 53.4531 32.7127C53.4531 32.5679 53.5098 32.4287 53.6111 32.3251L82.4139 3.28907C82.464 3.23582 82.5241 3.19311 82.5909 3.16344C82.6577 3.13377 82.7297 3.11775 82.8028 3.11632C82.8758 3.11488 82.9484 3.12807 83.0163 3.15509C83.0842 3.18211 83.146 3.22243 83.1981 3.27368C83.2502 3.32492 83.2915 3.38606 83.3196 3.4535C83.3477 3.52094 83.3621 3.59331 83.3618 3.66638C83.3616 3.73945 83.3468 3.81173 83.3182 3.87898C83.2896 3.94623 83.2479 4.00709 83.1954 4.05798L54.3863 33.1003C54.2818 33.2022 54.1414 33.2588 53.9955 33.2579Z" fill="black"/>
<path d="M72.418 14.1737L80.0756 6.50977L86.019 8.14844L78.355 15.8061L72.418 14.1737Z" fill="white"/>
<path d="M78.3376 16.3545C78.2895 16.3606 78.2408 16.3606 78.1927 16.3545L72.2556 14.7221C72.1635 14.6953 72.0797 14.6453 72.0124 14.5769C71.9451 14.5085 71.8965 14.4239 71.8712 14.3313C71.8441 14.2328 71.8451 14.1287 71.874 14.0307C71.903 13.9327 71.9587 13.8447 72.035 13.7767L79.699 6.11905C79.766 6.04939 79.8505 5.99913 79.9437 5.97361C80.0369 5.94809 80.1353 5.94825 80.2284 5.97408L86.1718 7.61276C86.264 7.63731 86.3482 7.68578 86.4157 7.75329C86.4832 7.82081 86.5317 7.90495 86.5562 7.99722C86.5807 8.09042 86.5802 8.18843 86.5547 8.28137C86.5293 8.37432 86.4798 8.45891 86.4113 8.52664L78.7536 16.1906C78.699 16.2447 78.6339 16.2871 78.5624 16.3152C78.4909 16.3434 78.4144 16.3567 78.3376 16.3545ZM73.4531 13.8901L78.1738 15.1948L84.9427 8.42579L80.2284 7.12116L73.4531 13.8901Z" fill="black"/>
<path d="M78.3983 0.52832L70.7344 8.18598L72.373 14.1293L80.0307 6.46536L78.3983 0.52832Z" fill="white"/>
<path d="M72.3747 14.6778C72.3287 14.6839 72.282 14.6839 72.236 14.6778C72.1429 14.6536 72.0577 14.6054 71.9891 14.5379C71.9206 14.4704 71.8709 14.386 71.8453 14.2933L70.2129 8.35625C70.1857 8.26273 70.1843 8.16364 70.2087 8.06937C70.2331 7.9751 70.2824 7.88914 70.3515 7.82054L78.0092 0.156576C78.0783 0.090178 78.1632 0.0425755 78.2559 0.0183031C78.3485 -0.00596924 78.4459 -0.00610322 78.5386 0.0179184C78.6318 0.0420805 78.7169 0.0903324 78.7855 0.157817C78.8541 0.225301 78.9037 0.309642 78.9294 0.402377L80.5618 6.33942C80.5889 6.43294 80.5903 6.53205 80.5659 6.62632C80.5415 6.72059 80.4922 6.80654 80.4231 6.87515L72.7591 14.5328C72.7082 14.5817 72.6478 14.6197 72.5817 14.6446C72.5157 14.6695 72.4452 14.6808 72.3747 14.6778ZM71.3537 8.37516L72.652 13.1021L79.421 6.33312L78.1226 1.60618L71.3537 8.37516Z" fill="black"/>
<path d="M41.2913 32.8924C41.2428 32.891 41.1961 32.8733 41.159 32.8419C41.1247 32.8077 41.1055 32.7612 41.1055 32.7127C41.1055 32.6643 41.1247 32.6178 41.159 32.5835L53.8209 20.0792C53.8377 20.0615 53.8579 20.0474 53.8802 20.0377C53.9026 20.0279 53.9266 20.0228 53.951 20.0225C53.9754 20.0222 53.9996 20.0268 54.0221 20.0359C54.0447 20.0451 54.0652 20.0588 54.0825 20.076C54.0997 20.0932 54.1133 20.1137 54.1225 20.1363C54.1317 20.1589 54.1363 20.1831 54.136 20.2075C54.1357 20.2318 54.1305 20.2559 54.1208 20.2783C54.111 20.3006 54.0969 20.3208 54.0793 20.3376L41.4174 32.8483C41.3821 32.8778 41.3373 32.8935 41.2913 32.8924Z" fill="black"/>
<path d="M41.9959 28.4113C41.9471 28.4111 41.9001 28.3932 41.8635 28.3609C41.8307 28.3259 41.8125 28.2797 41.8125 28.2317C41.8125 28.1837 41.8307 28.1375 41.8635 28.1025L49.6157 20.344C49.6508 20.3112 49.6969 20.293 49.7449 20.293C49.7929 20.293 49.8391 20.3112 49.8741 20.344C49.8919 20.3605 49.906 20.3805 49.9157 20.4027C49.9254 20.425 49.9304 20.449 49.9304 20.4732C49.9304 20.4974 49.9254 20.5214 49.9157 20.5437C49.906 20.5659 49.8919 20.5859 49.8741 20.6024L42.1219 28.3609C42.087 28.3918 42.0425 28.4096 41.9959 28.4113Z" fill="black"/>
<path d="M41.9959 36.365C41.9471 36.3648 41.9001 36.3468 41.8635 36.3146C41.8307 36.2796 41.8125 36.2334 41.8125 36.1854C41.8125 36.1374 41.8307 36.0912 41.8635 36.0562L57.1788 20.5392C57.2134 20.5063 57.2594 20.4882 57.3071 20.4888C57.3548 20.4894 57.4004 20.5086 57.4341 20.5423C57.4679 20.576 57.4871 20.6216 57.4877 20.6693C57.4882 20.717 57.4701 20.7631 57.4372 20.7976L42.1219 36.3083C42.1058 36.3257 42.0864 36.3398 42.0647 36.3495C42.043 36.3592 42.0196 36.3645 41.9959 36.365Z" fill="black"/>
<path d="M55.8788 26.6399C55.8555 26.6402 55.8323 26.6359 55.8107 26.6273C55.7891 26.6186 55.7694 26.6058 55.7527 26.5895C55.7185 26.5552 55.6992 26.5087 55.6992 26.4603C55.6992 26.4118 55.7185 26.3653 55.7527 26.3311L60.3662 21.5852C60.4012 21.5524 60.4474 21.5342 60.4954 21.5342C60.5434 21.5342 60.5896 21.5524 60.6246 21.5852C60.6589 21.6195 60.6781 21.666 60.6781 21.7144C60.6781 21.7629 60.6589 21.8093 60.6246 21.8436L56.0111 26.5832C55.9762 26.6188 55.9286 26.6392 55.8788 26.6399Z" fill="black"/>
<path d="M43.2498 39.1443C43.225 39.1443 43.2005 39.1392 43.1778 39.1295C43.155 39.1197 43.1345 39.1055 43.1174 39.0875C43.0847 39.0525 43.0664 39.0063 43.0664 38.9583C43.0664 38.9103 43.0847 38.8642 43.1174 38.8291L47.4914 34.5623C47.5265 34.5295 47.5727 34.5112 47.6206 34.5112C47.6686 34.5112 47.7148 34.5295 47.7498 34.5623C47.7841 34.5966 47.8033 34.643 47.8033 34.6915C47.8033 34.7399 47.7841 34.7864 47.7498 34.8207L43.3821 39.0938C43.3456 39.1261 43.2986 39.144 43.2498 39.1443Z" fill="black"/>
<path d="M50.4662 44.9744C50.4443 44.9754 50.4224 44.9721 50.4019 44.9645C50.3813 44.9569 50.3625 44.9453 50.3465 44.9303C50.3122 44.896 50.293 44.8496 50.293 44.8011C50.293 44.7526 50.3122 44.7062 50.3465 44.6719L55.7541 38.8357C55.7891 38.8029 55.8353 38.7847 55.8833 38.7847C55.9313 38.7847 55.9775 38.8029 56.0125 38.8357C56.0468 38.87 56.066 38.9164 56.066 38.9649C56.066 39.0133 56.0468 39.0598 56.0125 39.0941L50.6049 44.9177C50.5876 44.9371 50.5662 44.9523 50.5421 44.9621C50.5181 44.972 50.4921 44.9762 50.4662 44.9744Z" fill="black"/>
<path d="M45.2303 41.7224C45.2055 41.7224 45.181 41.7174 45.1583 41.7077C45.1355 41.6979 45.115 41.6836 45.0979 41.6657C45.0651 41.6307 45.0469 41.5845 45.0469 41.5365C45.0469 41.4885 45.0651 41.4423 45.0979 41.4073L48.8795 37.6257C48.9145 37.5929 48.9607 37.5747 49.0087 37.5747C49.0566 37.5747 49.1028 37.5929 49.1379 37.6257C49.1721 37.66 49.1914 37.7065 49.1914 37.7549C49.1914 37.8034 49.1721 37.8499 49.1379 37.8841L45.3563 41.6972C45.3192 41.7218 45.274 41.7308 45.2303 41.7224Z" fill="black"/>
<path d="M47.617 43.5626C47.5922 43.5626 47.5677 43.5576 47.545 43.5478C47.5222 43.5381 47.5017 43.5238 47.4846 43.5059C47.4518 43.4709 47.4336 43.4247 47.4336 43.3767C47.4336 43.3287 47.4518 43.2825 47.4846 43.2475L51.7515 38.9869C51.768 38.9692 51.788 38.955 51.8102 38.9453C51.8325 38.9357 51.8564 38.9307 51.8807 38.9307C51.9049 38.9307 51.9289 38.9357 51.9512 38.9453C51.9734 38.955 51.9934 38.9692 52.0099 38.9869C52.0427 39.022 52.0609 39.0681 52.0609 39.1161C52.0609 39.1641 52.0427 39.2103 52.0099 39.2453L47.743 43.5059C47.7269 43.5233 47.7074 43.5373 47.6858 43.5471C47.6641 43.5568 47.6407 43.5621 47.617 43.5626Z" fill="black"/>
<path d="M60.1029 30.2895C60.0579 30.2891 60.0149 30.271 59.9832 30.239C59.9489 30.2047 59.9297 30.1583 59.9297 30.1098C59.9297 30.0614 59.9489 30.0149 59.9832 29.9806C61.3824 28.4932 62.8383 27.0247 64.3068 25.6129C64.3419 25.5795 64.3888 25.5614 64.4373 25.5626C64.4857 25.5637 64.5317 25.5841 64.5652 25.6192C64.5986 25.6543 64.6167 25.7013 64.6155 25.7497C64.6144 25.7982 64.594 25.8442 64.5589 25.8776C63.0967 27.2831 61.6471 28.7516 60.2542 30.2327C60.2345 30.2524 60.2108 30.2677 60.1847 30.2775C60.1586 30.2872 60.1307 30.2913 60.1029 30.2895Z" fill="black"/>
<path d="M60.7225 33.9006C60.6759 33.8988 60.6314 33.881 60.5965 33.8502C60.5622 33.8159 60.543 33.7694 60.543 33.7209C60.543 33.6725 60.5622 33.626 60.5965 33.5917L65.6385 28.4236C65.6728 28.3894 65.7193 28.3701 65.7677 28.3701C65.8162 28.3701 65.8627 28.3894 65.8969 28.4236C65.9297 28.4586 65.948 28.5048 65.948 28.5528C65.948 28.6008 65.9297 28.647 65.8969 28.682L60.8549 33.8502C60.8373 33.8669 60.8165 33.88 60.7938 33.8887C60.7711 33.8974 60.7468 33.9014 60.7225 33.9006Z" fill="black"/>
<path d="M53.4999 45.6298C53.4533 45.6281 53.4087 45.6103 53.3738 45.5794C53.3396 45.5451 53.3203 45.4987 53.3203 45.4502C53.3203 45.4018 53.3396 45.3553 53.3738 45.321C57.8487 40.5499 61.9642 36.2768 66.3193 31.8776C66.3539 31.8447 66.3999 31.8266 66.4476 31.8272C66.4953 31.8277 66.5409 31.847 66.5746 31.8807C66.6084 31.9144 66.6276 31.96 66.6282 32.0077C66.6287 32.0554 66.6106 32.1014 66.5777 32.136C62.2227 36.5478 58.1134 40.8021 53.6385 45.5668C53.6216 45.587 53.6003 45.6031 53.5763 45.6141C53.5524 45.625 53.5262 45.6304 53.4999 45.6298Z" fill="black"/>
<path d="M57.8968 44.9742C57.848 44.974 57.801 44.9561 57.7644 44.9238C57.7302 44.8896 57.7109 44.8431 57.7109 44.7946C57.7109 44.7462 57.7302 44.6997 57.7644 44.6654C58.3947 44.0352 60.0775 42.2767 61.6973 40.575C63.317 38.8733 64.9998 37.1149 65.6427 36.4846C65.677 36.4504 65.7234 36.4312 65.7719 36.4312C65.8203 36.4312 65.8668 36.4504 65.9011 36.4846C65.9339 36.5197 65.9521 36.5659 65.9521 36.6138C65.9521 36.6618 65.9339 36.708 65.9011 36.7431C65.2708 37.3733 63.5817 39.1317 61.962 40.8271C60.3422 42.5225 58.6657 44.2936 58.0165 44.9238C57.9849 44.9558 57.9418 44.9739 57.8968 44.9742Z" fill="black"/>
<g opacity="0.13">
<path d="M73.8811 45.7055C73.3895 45.8316 73.1941 46.2728 73.0113 46.7013C72.7963 47.1693 72.5254 47.6095 72.2046 48.0123C71.2277 49.1026 69.0533 52.3422 66.4881 53.6846C64.7573 54.7999 62.9023 55.7094 60.9607 56.3947C59.5726 56.9506 58.0944 57.2475 56.5993 57.2708C55.2128 57.3212 53.8199 57.3401 52.4333 57.2708C52.4295 57.0983 52.3825 56.9294 52.2966 56.7797C52.2107 56.6299 52.0887 56.5041 51.9417 56.4136C50.4795 56.004 49.3072 56.0985 48.1287 55.7834C46.9501 55.4683 45.9417 55.2477 44.8513 54.9893C44.7177 54.9514 44.5777 54.9414 44.44 54.9598C44.3023 54.9782 44.1699 55.0247 44.0509 55.0964C43.5782 54.7939 43.0929 54.4662 42.6013 54.1384C40.326 52.4871 39.0655 51.8317 37.2315 49.8464C36.8187 49.3337 36.4557 48.7829 36.1474 48.2014C35.6279 47.7564 35.1334 47.283 34.6663 46.7833C34.244 46.3295 33.8533 45.8505 33.4751 45.3589C33.4004 45.4158 33.3327 45.4814 33.2734 45.5543C33.4231 46.1007 33.6062 46.6375 33.8218 47.1614C34.4182 48.5935 35.1684 49.9565 36.0592 51.2266C37.1371 52.7325 38.3754 54.1167 39.7525 55.3548L39.9164 55.4557C41.1694 56.3155 42.4839 57.0823 43.8492 57.7498C44.4227 58.0334 45.0026 58.3044 45.595 58.5628C47.8631 59.3846 50.2094 59.9717 52.5972 60.315C53.322 60.4158 54.0405 60.4851 54.759 60.5419C56.9255 60.2423 59.0661 59.7787 61.1624 59.1553C63.7185 58.4825 66.0888 57.2392 68.0953 55.5187C70.0671 53.6703 71.714 51.5035 72.9672 49.1089C73.5659 48.0123 74.108 46.8904 74.6248 45.7623C74.392 45.6538 74.1276 45.6336 73.8811 45.7055Z" fill="black"/>
</g>
<g opacity="0.13">
<path d="M79.5966 6.89392C78.0588 8.19226 76.6533 9.63555 75.1848 10.9906C74.7815 11.3499 74.3592 11.6902 73.9243 12.0431C73.6974 12.2574 73.3886 12.4276 73.294 12.7427C73.2001 12.977 73.1894 13.2365 73.2637 13.4778C73.338 13.719 73.4928 13.9275 73.7023 14.0684C73.9117 14.2092 74.1632 14.274 74.4147 14.2518C74.6661 14.2297 74.9024 14.1219 75.084 13.9465C76.5714 12.686 77.939 11.3184 79.3382 9.96959C79.8487 9.48429 80.3593 8.99899 80.8887 8.5389C81.0904 8.34982 81.3551 8.19856 81.437 7.90864C81.521 7.67077 81.5179 7.41079 81.4281 7.17501C81.3384 6.93923 81.1679 6.74297 80.9469 6.62116C80.726 6.49935 80.469 6.45991 80.2218 6.50986C79.9745 6.55981 79.753 6.69591 79.5966 6.89392Z" fill="black"/>
</g>
<path d="M41.5932 73.462H14.6811C14.5357 73.462 14.3962 73.4042 14.2934 73.3014C14.1906 73.1985 14.1328 73.059 14.1328 72.9136V63.5669C14.1328 63.4215 14.1906 63.282 14.2934 63.1792C14.3962 63.0763 14.5357 63.0186 14.6811 63.0186H41.5932C41.7387 63.0186 41.8781 63.0763 41.981 63.1792C42.0838 63.282 42.1416 63.4215 42.1416 63.5669V72.9325C42.1367 73.0747 42.0767 73.2093 41.9744 73.3081C41.8721 73.4069 41.7354 73.462 41.5932 73.462ZM15.198 72.3905H41.0386V64.0963H15.198V72.3905Z" fill="black"/>
</svg>
